<?xml version="1.0"?>
<svg xmlns:rdf="http://www.w3.org/1999/02/22-rdf-syntax-ns#" xmlns="http://www.w3.org/2000/svg" xmlns:cc="http://creativecommons.org/ns#" xmlns:xlink="http://www.w3.org/1999/xlink" xmlns:dc="http://purl.org/dc/elements/1.1/" xmlns:svg="http://www.w3.org/2000/svg" id="svg3273" viewBox="0 0 477.29 429.99" version="1.1">
  <defs id="defs3275">
    <filter id="filter4755" height="1.21" width="1.0434" y="-.105" x="-.021724" color-interpolation-filters="sRGB">
      <feGaussianBlur id="feGaussianBlur4757" stdDeviation="4.2"/>
    </filter>
    <linearGradient id="linearGradient3151" x1="968" gradientUnits="userSpaceOnUse" y1="465.91" gradientTransform="matrix(.67668 -.78377 .73449 .78742 -448.93 1409.3)" x2="1012.5" y2="395.09">
      <stop id="stop3113" stop-color="#2e3436" offset="0"/>
      <stop id="stop3115" stop-color="#d3d7cf" stop-opacity="0" offset="1"/>
    </linearGradient>
    <linearGradient id="linearGradient3208" y2="221.36" gradientUnits="userSpaceOnUse" y1="218.51" x2="343" x1="307.71">
      <stop id="stop4643" stop-color="#555753" offset="0"/>
      <stop id="stop4645" stop-color="#555753" stop-opacity="0" offset="1"/>
    </linearGradient>
    <radialGradient id="radialGradient3271" gradientUnits="userSpaceOnUse" cy="419.48" cx="291.47" gradientTransform="matrix(1.405 .017610 -.012533 .99992 -125.01 -5.5994)" r="205.71">
      <stop id="stop4635" stop-color="#fff" offset="0"/>
      <stop id="stop4637" stop-color="#f0f0f2" stop-opacity="0" offset="1"/>
    </radialGradient>
  </defs>
  <g id="layer1" transform="translate(-111.36 -317.37)">
    <g id="g3212" transform="translate(-133.73 -313.1)">
      <path id="path3210" opacity=".75" d="m708 816.36c0 26.51-103.87 48-232 48s-232-21.49-232-48 103.87-48 232-48 232 21.49 232 48z" transform="matrix(.90086 0 0 1 75.487 186.02)" filter="url(#filter4755)" fill="#d3d7cf"/>
      <g id="g3131" transform="matrix(-.21948 -.97562 .97562 -.21948 -355.45 1524)">
        <path id="path3133" fill="#d3d7cf" d="m700 937.36c0 108.8-88.2 197-197 197s-197-88.2-197-197 88.2-197 197-197 197 88.2 197 197z"/>
        <path id="path3135" fill="#1c77e8" d="m304.24 927.83c5.9652-41.52 16.617-73.441 40.122-108.76l8.9584-12.222 16.318-2.2802c135.44-11.338 206.06 64.849 232.89 99.384 10.321 12.549 27.652 23.799 26.617 24.834-1.5096 1.5096-325.84 0.55625-324.91-0.95253z"/>
        <path id="path3137" d="m662.25 929.5-37.706-0.59177 1.0719-4.4551c7.5022-31.182 8.2057-77.61 1.5607-103-5.3021-20.26-8.9296-28.353-18.874-42.109-4.2366-5.8605-7.1732-11.185-6.5256-11.833 0.64756-0.64756 6.3094 2.3474 12.582 6.6554 39.704 27.269 69.199 69.982 79.599 115.27 5.8408 25.435 8.6717 41.709 7.1514 41.112-0.63443-0.24921-18.121-0.71941-38.859-1.0449z" fill="#e8150e"/>
        <path id="path3139" fill="#fa7d43" d="m448.18 1129.1c-73.086-20.415-130.66-86.736-140.39-162.03-1.9408-11.815-2.4224-27.788-3.3732-39.706 99.01-0.1251 198.02 2.8285 297.03 3.6169 9.6163-0.43411 26.189-1.0069 16.868 12.972-4.4429 14.012-9.914 27.878-13.125 42.153-6.2169 2.2781-0.0911 9.6445-7.2146 11.762-6.3976 7.1607-2.841 16.873-10.95 19.449 1.7182 9.8602-13.737 11.245-10.441 23.607-10.075-0.9716-5.4218 11.904-14.098 12.925-8.9182 10.481-10.913 19.437-23.25 26.326-7.6001 8.9185-15.995 14.788-23.1 22.676-0.44361 1.208-9.599 4.6529-8.957 7.6035-8.7275-1.7653-4.2949 9.3014-12.448 6.1856-5.9307 3.6697-9.0265 9.7798-15.369 9.4919 2.703 3.9003-9.6145 2.56-13.02 6.6791-6.2283 0.3624-12.207-2.2618-18.169-3.7063z"/>
        <path id="path3141" d="m481.46 1134c-3.575-0.5203-6.5-1.7238-6.5-2.6744 0-0.9507 5.625-5.1002 12.5-9.2211 27.243-16.33 52.976-39.234 74.294-66.128 26.483-33.411 40.326-58.497 54.438-98.653 3.6693-10.441 7.4336-19.238 8.3652-19.548 1.6388-0.54628 16.737 29.877 19.385 39.061 0.7371 2.5565 2.2487 3.9463 3.4708 3.191 1.2325-0.76173 1.5929-0.41239 0.83679 0.81108-0.73053 1.182 0.54564 10.096 2.8359 19.809 2.2903 9.7129 4.6546 27.56 5.254 39.66l1.0899 22-15.735 15.151c-27.637 26.611-55.02 42.077-90.497 51.113-18.936 4.823-54.747 7.611-69.738 5.4293z" fill="#efeff0"/>
        <path id="path3143" d="m658.4 1034.8c-1.9137-30.829-9.9174-59.083-24.967-88.137-4.0917-7.8994-7.7469-15.038-8.1226-15.863-0.37571-0.825 16.625-1.5 37.779-1.5h38.462l-1.3261 18.865c-1.6512 23.49-8.7469 51.948-17.883 71.722-7.3374 15.881-18.453 33.413-21.184 33.413-0.88554 0-2.1268-8.325-2.7585-18.5z" fill="#0cbf87"/>
        <path id="path3145" transform="matrix(.82961 -.10898 .13024 .99148 19.846 93.697)" fill="#f86630" d="m636 907.36c0 27.062-21.938 49-49 49s-49-21.938-49-49 21.938-49 49-49 49 21.938 49 49z"/>
        <path id="path3147" d="m592.91 892.13c-7.1182-8.8576-22.479-23.657-34.974-33.696-39.091-31.406-83.744-49.112-136-53.928-18.626-1.7163-42.753-1.394-57.924 0.77374-3.9457 0.56381-7.3097 0.88947-7.4754 0.72369-0.40178-0.40177 10.874-11.735 17.149-17.236 25.323-22.201 56.965-37.813 90.185-44.498 41.662-8.384 84.716-3.2036 123.07 14.807 8.3396 3.9168 15.074 7.745 14.815 8.4213-0.41127 1.0718 1.5499 4.5803 7.7251 13.82 7.2587 10.861 11.052 18.495 14.14 28.456 6.1214 19.748 7.4603 29.393 7.5257 54.212l0.0448 17-1.25-0.12478c-4.6889-0.46804-12.088-0.18883-15 0.56606-6.5277 1.6921-13.598 5.8413-17.892 10.5-1.1706 1.2699-2.1985 2.309-2.2843 2.309s-0.91783-0.94797-1.8489-2.1066z" fill="#f8d119"/>
      </g>
      <path id="path3149" opacity=".75" fill="url(#linearGradient3151)" d="m362.28 1000.9c31.395 14.616 65.886 21.844 101.52 19.716 102.99-6.2 183.2-88.34 201.17-195.17l-302.69 175.47z"/>
      <path id="path3165" opacity=".75" transform="matrix(.93708 -.0016153 .00027336 .93887 111.48 499.85)" fill="url(#linearGradient3208)" d="m343 221.36c0 5.5228-8.9543 10-20 10s-20-4.4772-20-10 8.9543-10 20-10 20 4.4772 20 10z"/>
      <path id="path3167" d="m413.32 697c-2.8434-0.0784-5.7999 1.191-7.9912 5.4626l0.002 4.7363s1.662 0.60969 3.8589 1.2507l-0.34241 7.2935 9.3539 0.90609-0.8288-6.6629c2.2819 0.0735 4.0987-0.35109 4.5299-1.8519 1.3628-4.7444 0.58359-7.1264 0.58359-7.1264s-4.4263-3.8771-9.1653-4.0079z" fill="#d9c8c2"/>
      <path id="path3169" opacity=".6" transform="matrix(.55122 -.00095018 .00039051 1.3412 236.06 335.46)" fill="#7e6a5f" d="m327.04 272.07c0 0.97632-2.8492 1.7678-6.364 1.7678-3.5147 0-6.364-0.79145-6.364-1.7678 0-0.97631 2.8492-1.7678 6.364-1.7678 3.5147 0 6.364 0.79145 6.364 1.7678z"/>
      <path id="path3175" opacity=".75" transform="matrix(.85831 .38064 -.38064 .85831 260.35 291.99)" fill="url(#radialGradient3271)" d="m608.57 440.93c0 113.61-92.101 205.71-205.71 205.71s-205.71-92.101-205.71-205.71 92.101-205.71 205.71-205.71 205.71 92.101 205.71 205.71z"/>
    </g>
  </g>
  <metadata>
    <rdf:RDF>
      <cc:Work>
        <dc:format>image/svg+xml</dc:format>
        <dc:type rdf:resource="http://purl.org/dc/dcmitype/StillImage"/>
        <cc:license rdf:resource="http://creativecommons.org/licenses/publicdomain/"/>
        <dc:publisher>
          <cc:Agent rdf:about="http://openclipart.org/">
            <dc:title>Openclipart</dc:title>
          </cc:Agent>
        </dc:publisher>
        <dc:title>beach ball</dc:title>
        <dc:date>2010-06-14T19:53:16</dc:date>
        <dc:description>ball, beach, clip art, clipart, funny, holiday, sports2010, summer, summer2010, </dc:description>
        <dc:source>http://openclipart.org/detail/66751/beach-ball-by-rg1024-66751</dc:source>
        <dc:creator>
          <cc:Agent>
            <dc:title>rg1024</dc:title>
          </cc:Agent>
        </dc:creator>
        <dc:subject>
          <rdf:Bag>
            <rdf:li>ball</rdf:li>
            <rdf:li>beach</rdf:li>
            <rdf:li>clip art</rdf:li>
            <rdf:li>clipart</rdf:li>
            <rdf:li>funny</rdf:li>
            <rdf:li>holiday</rdf:li>
            <rdf:li>sports2010</rdf:li>
            <rdf:li>summer</rdf:li>
            <rdf:li>summer2010</rdf:li>
          </rdf:Bag>
        </dc:subject>
      </cc:Work>
      <cc:License rdf:about="http://creativecommons.org/licenses/publicdomain/">
        <cc:permits rdf:resource="http://creativecommons.org/ns#Reproduction"/>
        <cc:permits rdf:resource="http://creativecommons.org/ns#Distribution"/>
        <cc:permits rdf:resource="http://creativecommons.org/ns#DerivativeWorks"/>
      </cc:License>
    </rdf:RDF>
  </metadata>
</svg>
