<?xml version="1.0" encoding="UTF-8" standalone="no"?>
<!-- Created with Inkscape (http://www.inkscape.org/) -->

<svg
   xmlns:dc="http://purl.org/dc/elements/1.1/"
   xmlns:cc="http://creativecommons.org/ns#"
   xmlns:rdf="http://www.w3.org/1999/02/22-rdf-syntax-ns#"
   xmlns:svg="http://www.w3.org/2000/svg"
   xmlns="http://www.w3.org/2000/svg"
   xmlns:sodipodi="http://sodipodi.sourceforge.net/DTD/sodipodi-0.dtd"
   xmlns:inkscape="http://www.inkscape.org/namespaces/inkscape"
   width="74.226265mm"
   height="121.13805mm"
   viewBox="0 0 74.226265 121.13805"
   version="1.1"
   id="svg176"
   inkscape:version="0.92.1 r15371"
   sodipodi:docname="futebol-02.svg">
  <defs
     id="defs170" />
  <sodipodi:namedview
     id="base"
     pagecolor="#ffffff"
     bordercolor="#666666"
     borderopacity="1.0"
     inkscape:pageopacity="0.0"
     inkscape:pageshadow="2"
     inkscape:zoom="0.7"
     inkscape:cx="128.35378"
     inkscape:cy="158.80237"
     inkscape:document-units="mm"
     inkscape:current-layer="layer1"
     showgrid="false"
     fit-margin-top="0"
     fit-margin-left="0"
     fit-margin-right="0"
     fit-margin-bottom="0"
     inkscape:window-width="1600"
     inkscape:window-height="851"
     inkscape:window-x="0"
     inkscape:window-y="0"
     inkscape:window-maximized="1" />
  <metadata
     id="metadata173">
    <rdf:RDF>
      <cc:Work
         rdf:about="">
        <dc:format>image/svg+xml</dc:format>
        <dc:type
           rdf:resource="http://purl.org/dc/dcmitype/StillImage" />
        <dc:title></dc:title>
      </cc:Work>
    </rdf:RDF>
  </metadata>
  <g
     inkscape:label="Camada 1"
     inkscape:groupmode="layer"
     id="layer1"
     transform="translate(-65.984442,-54.440115)">
    <g
       id="g220"
       transform="matrix(0.94907784,0,0,0.94907784,5.2499515,5.8565142)">
      <path
         d="m 108.89934,158.304 c 0.56054,-0.42754 1.44034,-0.92417 1.9551,-1.10362 0.51477,-0.17945 1.24229,-0.74063 1.61673,-1.24708 0.61739,-0.83507 0.62916,-0.92054 0.12642,-0.91778 -1.40956,0.008 -6.00478,2.8902 -6.00478,3.76665 0,0.54789 1.30447,0.26615 2.30653,-0.49817 z m 13.89577,0.47857 c -0.17963,-0.33564 -0.78021,-0.94565 -1.33463,-1.35559 -1.85831,-1.37403 -1.95728,-1.21295 -0.22941,0.37336 0.94214,0.86495 1.75296,1.57711 1.80181,1.58256 0.0489,0.005 -0.0581,-0.2647 -0.23777,-0.60033 z m -2.88134,-0.38619 c 0.47785,-0.79071 0.47193,-0.88066 -0.0995,-1.51254 -0.99168,-1.09651 -2.79793,-1.85136 -4.43008,-1.85136 -1.26443,0 -1.65413,0.14898 -2.3849,0.91173 l -0.8735,0.91174 1.17269,1.03484 c 1.22674,1.08254 2.5056,1.455 4.76192,1.3869 1.10584,-0.0334 1.4358,-0.19027 1.85341,-0.88131 z m 4.60747,3.64378 -0.47225,-1.24581 0.16291,1.24581 c 0.0896,0.68519 0.25674,1.73634 0.37143,2.33589 l 0.20852,1.09008 0.10083,-1.09008 c 0.0555,-0.59955 -0.11169,-1.6507 -0.37144,-2.33589 z m -17.74242,3.19238 c 0.65334,-1.26923 0.84867,-2.10546 0.87288,-3.73699 0.0307,-2.07184 0.0194,-2.10188 -0.791,-2.10231 -0.67511,-3.1e-4 -0.94748,0.26423 -1.52251,1.47897 -0.41128,0.86883 -0.76317,2.33447 -0.8526,3.55123 -0.15702,2.13623 -0.13436,2.18043 1.23434,2.4081 0.11945,0.0199 0.59595,-0.69968 1.05889,-1.599 z m 13.45209,0.91922 c 0.55009,-0.90764 1.00016,-1.90479 1.00016,-2.21588 0,-0.96349 -1.65364,-3.66077 -2.42387,-3.95361 -0.40216,-0.15291 -1.48621,-0.27801 -2.409,-0.27801 h -1.67779 l -1.11518,1.90277 c -1.24905,2.13119 -1.2361,2.41302 0.2168,4.7156 l 0.93348,1.4794 h 2.23762 2.23762 z m -7.08965,3.45797 0.99573,-1.61828 -1.10897,-2.04129 -1.10897,-2.04129 h -2.09569 -2.09569 l -0.77045,1.54494 -0.77045,1.54495 1.00613,1.94057 c 1.06291,2.05006 1.20826,2.13556 3.81139,2.24201 1.05749,0.0432 1.2143,-0.0721 2.13697,-1.57161 z m 9.90464,0.80654 c 1.18962,-1.44321 1.79401,-3.53454 1.41042,-4.88035 -0.24733,-0.86772 -0.44121,-1.01714 -1.42709,-1.09978 -1.01794,-0.0853 -1.19781,0.0154 -1.66928,0.93435 -0.29062,0.5665 -0.7889,1.36425 -1.10728,1.77277 -0.60282,0.77352 -0.71471,1.77035 -0.3842,3.42291 0.17086,0.85429 0.3204,0.97328 1.22313,0.97328 0.80239,0 1.232,-0.2469 1.9543,-1.12318 z m -4.39107,4.07235 c 1.265,-0.52856 3.19915,-1.91194 3.19915,-2.28817 0,-0.13291 -0.4555,-0.18292 -1.01222,-0.11111 -1.32258,0.17057 -4.90274,1.98596 -4.90423,2.48677 -0.002,0.53239 1.33684,0.4893 2.7173,-0.0875 z m -3.18276,0.47217 c 0.10745,-0.17385 -0.12955,-0.58654 -0.52666,-0.91709 -0.39711,-0.33056 -1.21255,-1.00829 -1.8121,-1.50608 -0.84765,-0.70379 -1.523,-0.949 -3.03666,-1.10257 -1.09632,-0.11123 -1.94658,-0.0747 -1.94658,0.0837 0,0.15467 -0.0805,0.49091 -0.17882,0.7472 -0.47818,1.24612 6.78372,3.85513 7.50082,2.69484 z m -4.73632,-0.0273 c -2.07911,-0.79931 -4.38795,-2.88208 -5.54109,-4.99851 -1.25702,-2.3071 -1.47116,-6.11724 -0.49006,-8.71925 0.87612,-2.32356 2.64249,-4.27309 5.05851,-5.58302 1.84989,-1.00299 2.14718,-1.0673 4.92746,-1.06589 2.64516,0.001 3.14038,0.0958 4.67179,0.89089 2.31671,1.20286 4.47889,3.54253 5.30938,5.7452 0.98608,2.61535 0.77467,6.41963 -0.48526,8.73207 -1.17607,2.15853 -3.47816,4.20881 -5.6295,5.01373 -2.25854,0.84503 -5.60057,0.83853 -7.82123,-0.0152 z"
         style="fill:#000000;stroke-width:0.31145239"
         id="path193"
         inkscape:connector-curvature="0" />
      <path
         id="path189"
         d="m 135.62041,169.12994 c -0.79115,-0.27313 -1.54151,-0.79864 -1.83395,-1.2844 -0.27223,-0.45218 -1.082,-1.73314 -1.7995,-2.84659 -0.7175,-1.11344 -1.5339,-2.39711 -1.81423,-2.8526 -0.70594,-1.14706 -1.8022,-2.2778 -2.63373,-2.71658 -0.38486,-0.20308 -0.97483,-0.90843 -1.31103,-1.56745 -0.33957,-0.6656 -1.85771,-2.27543 -3.41544,-3.62171 -1.5772,-1.36311 -3.03564,-2.91248 -3.33319,-3.54103 -0.29098,-0.61464 -1.05125,-1.81829 -1.68949,-2.67478 -0.63824,-0.85649 -1.45278,-2.13999 -1.81008,-2.8522 -0.3573,-0.71222 -0.82858,-1.35926 -1.04728,-1.43787 -0.21871,-0.0786 -1.09841,0.11863 -1.95491,0.43829 -0.85649,0.31967 -1.97772,0.5809 -2.49162,0.58051 -0.51389,-3.1e-4 -1.49497,0.2759 -2.18016,0.61398 -0.6852,0.33807 -3.36044,1.17556 -5.94498,1.86108 -7.479044,1.98372 -7.107008,1.8084 -7.309066,3.44419 -0.09517,0.7705 -0.510349,2.03159 -0.922609,2.80244 -0.623251,1.16535 -0.764043,1.92639 -0.835474,4.51606 -0.06914,2.50648 -0.18946,3.19052 -0.616318,3.50383 -0.827482,0.60737 -1.595253,0.46189 -2.16692,-0.41059 -0.384706,-0.58713 -0.705699,-0.75433 -1.206754,-0.62857 -0.925465,0.23228 -1.193115,-0.11772 -0.595238,-0.77837 0.380909,-0.4209 0.416393,-0.68695 0.156405,-1.17274 -0.18495,-0.34559 -0.336275,-0.92667 -0.336275,-1.2913 0,-0.50152 -0.163587,-0.63923 -0.671819,-0.56551 -0.900327,0.13058 -1.099517,-0.57127 -0.239591,-0.84421 0.615203,-0.19525 0.663768,-0.36877 0.508618,-1.81728 -0.09434,-0.88077 -0.569404,-2.79271 -1.055696,-4.24875 -0.799847,-2.39487 -0.965537,-2.65675 -1.737285,-2.7459 -1.006028,-0.11621 -1.101046,-0.52547 -0.230203,-0.99153 0.402823,-0.21559 0.622904,-0.65213 0.622904,-1.23556 0,-1.9363 3.071864,-2.93985 6.088306,-1.989 l 1.775316,0.55961 2.955863,-1.53753 c 1.797292,-0.93489 3.460686,-2.07129 4.243816,-2.8993 1.48179,-1.56672 3.0371,-2.45206 4.80395,-2.73459 l 1.23726,-0.19784 -0.39428,-1.44554 c -0.54677,-2.00453 -1.02959,-3.16051 -1.31461,-3.14747 -0.13271,0.006 -0.59168,0.21133 -1.01993,0.45614 -1.19862,0.68519 -1.98006,0.55513 -2.97839,-0.49571 -0.50312,-0.52958 -1.405303,-1.221 -2.004849,-1.53648 -1.831972,-0.964 -5.606264,-4.89874 -6.386486,-6.658 -0.387288,-0.87326 -1.000837,-1.85473 -1.363442,-2.18106 -0.523013,-0.47067 -0.659286,-0.95556 -0.659286,-2.34588 0,-0.96391 -0.215518,-2.51891 -0.478932,-3.45556 -0.263414,-0.93665 -0.560278,-2.28383 -0.659697,-2.99372 -0.16654,-1.18918 -0.07986,-1.40019 1.101838,-2.68218 1.422035,-1.54272 1.557607,-1.97117 0.708959,-2.24052 -0.315505,-0.10013 -0.892941,-0.52194 -1.283194,-0.93734 -0.683796,-0.72787 -0.695052,-0.82819 -0.310219,-2.76428 0.379225,-1.90788 0.363605,-2.06948 -0.310259,-3.21039 -0.390275,-0.660761 -1.238201,-2.743071 -1.884284,-4.627361 -2.633538,-7.680643 -2.97043,-8.562919 -3.268985,-8.561047 -0.806796,0.005 -6.800476,3.646135 -7.171241,4.356436 -2.56187,4.907941 -3.841407,9.539692 -4.000858,14.482542 -0.03059,0.94828 -0.198087,1.31516 -0.701332,1.53619 -0.613576,0.26949 -0.630881,0.36282 -0.2405,1.29713 0.35723,0.85497 0.35181,1.2338 -0.03594,2.51269 -0.589996,1.94597 -0.325471,3.48004 0.66501,3.85662 1.149505,0.43704 0.878931,0.82813 -0.73965,1.06908 -0.813669,0.12113 -1.624007,0.33905 -1.80075,0.48427 -0.18927,0.15552 -0.860418,-0.0805 -1.632884,-0.57419 -1.026737,-0.6562 -1.312019,-1.0273 -1.313773,-1.70898 -0.0012,-0.47892 -0.349888,-1.52381 -0.774788,-2.32198 -0.728996,-1.36942 -0.74428,-1.49591 -0.271134,-2.24377 0.275777,-0.43589 0.849974,-1.16763 1.275994,-1.62607 0.718136,-0.77279 0.743703,-0.90329 0.350832,-1.79085 -0.233063,-0.52652 -0.529692,-0.95732 -0.659175,-0.95732 -0.496128,0 -0.205308,-1.823 0.417037,-2.61418 0.559682,-0.71152 0.623022,-1.0831 0.44544,-2.61316 -0.429626,-3.701691 0.65179,-8.592227 2.873889,-12.996705 0.517399,-1.025551 1.124761,-2.479601 1.349695,-3.231219 0.632068,-2.11208 2.947035,-4.418276 5.947314,-5.924785 1.395008,-0.700466 2.934053,-1.273574 3.420099,-1.273574 0.486047,0 1.145307,-0.261586 1.465026,-0.581303 0.319715,-0.319716 1.265751,-0.68056 2.102303,-0.801874 1.962714,-0.284628 4.90574,-1.669814 7.313201,-3.442085 1.048797,-0.772082 2.118066,-1.403786 2.376148,-1.403786 0.346366,0 0.409694,-0.183503 0.241833,-0.700767 -0.125073,-0.385423 -0.283948,-1.261383 -0.353053,-1.946578 -0.06911,-0.685195 -0.268098,-2.227734 -0.442203,-3.427864 -0.457044,-3.15044 0.02582,-7.106932 0.995972,-8.160787 1.089152,-1.183127 2.996932,-1.944913 4.890214,-1.952687 3.42389,-0.01406 5.2432,1.800863 5.69869,5.684921 0.35754,3.04891 0.30965,4.621827 -0.16333,5.364798 -0.57765,0.907372 -1.56642,5.798901 -1.21964,6.033694 1.78993,1.211959 2.85603,1.686484 4.61642,2.054809 1.18188,0.247279 2.62869,0.813047 3.35533,1.312081 1.92115,1.319386 4.45375,4.005737 5.16934,5.483152 0.47163,0.973739 1.09933,1.584778 2.43578,2.371121 1.93504,1.138542 4.35718,2.946766 4.99917,3.732091 0.21763,0.26621 0.52972,0.981788 0.69354,1.590169 0.40797,1.515045 1.6104,2.178445 3.84208,2.11973 1.25039,-0.0329 1.91519,0.103062 2.32723,0.475961 0.31725,0.287106 0.91617,0.52647 1.33093,0.531917 0.41476,0.0055 1.02616,0.215681 1.35867,0.467179 0.33252,0.251501 0.84563,0.457274 1.14027,0.457274 0.29462,0 0.86349,0.385423 1.26414,0.856494 0.40065,0.471072 1.14891,1.055491 1.66281,1.29871 0.75712,0.358332 0.82663,0.466889 0.36645,0.572281 -0.33679,0.07713 -0.49921,0.309114 -0.39909,0.570001 0.22509,0.58658 -0.57607,0.56564 -1.49915,-0.0392 -0.63283,-0.414636 -1.11972,-0.429305 -3.61749,-0.10898 -2.03646,0.26117 -3.05723,0.54114 -3.467,0.95091 -0.33066,0.33066 -0.94762,0.55426 -1.43266,0.51922 -0.46854,-0.0338 -1.15106,0.10051 -1.51671,0.29857 -0.51765,0.2804 -1.03475,0.25512 -2.3359,-0.11419 -0.91909,-0.26086 -2.02145,-0.57248 -2.4497,-0.69248 -1.21447,-0.34032 -3.67706,-1.874274 -6.19135,-3.856628 -1.26401,-0.996588 -2.50751,-1.811977 -2.76334,-1.811977 -0.3373,0 -0.37617,0.107221 -0.1414,0.390094 0.66939,0.806572 1.71631,3.915841 2.28064,6.773311 0.32138,1.62734 0.5848,3.000991 0.58537,3.052561 6.2e-4,0.0516 -0.4895,0.29871 -1.08905,0.54922 -0.83144,0.34739 -1.09008,0.63922 -1.09008,1.22991 0,0.42595 -0.30598,1.08043 -0.67996,1.45441 -0.64408,0.64408 -0.65031,0.69748 -0.11817,1.01222 1.91866,1.13479 2.64715,1.80253 3.78539,3.46975 1.63246,2.3911 1.77361,3.21297 0.9836,5.72715 -0.82536,2.62671 -0.89667,7.40345 -0.1536,10.28969 0.54325,2.11013 0.71255,4.66832 0.30948,4.67655 -0.12847,0.002 -0.4222,0.1243 -0.65273,0.2704 -0.33395,0.21165 -0.24763,0.53731 0.42475,1.60243 0.46414,0.73524 1.24254,2.22533 1.72979,3.3113 0.48724,1.08598 1.00131,1.97451 1.14238,1.97451 0.14106,0 0.44637,0.66572 0.67845,1.47939 0.23208,0.81367 0.73316,1.82979 1.1135,2.25803 1.43644,1.61736 3.20715,4.3061 4.75346,7.21791 0.88012,1.65732 2.51867,4.54283 3.64123,6.41227 1.12256,1.86944 2.04102,3.62864 2.04102,3.90934 0,0.64675 1.40232,1.58518 2.01655,1.34948 0.69879,-0.26815 3.05114,0.65959 3.64527,1.43765 0.32453,0.42501 0.46029,0.99747 0.35793,1.50928 -0.0907,0.4535 -0.0106,0.9199 0.17792,1.03643 0.57427,0.35492 0.38241,0.75006 -0.28007,0.57682 -0.3426,-0.0896 -0.62291,-0.0812 -0.62291,0.0186 0,0.36687 1.07988,2.55637 1.54496,3.13245 0.44922,0.55645 0.43295,0.58226 -0.25788,0.4089 -0.57045,-0.14315 -0.92294,0.0358 -1.55726,0.79034 -0.45095,0.53646 -0.77872,1.15833 -0.72838,1.38195 0.10777,0.47876 0.0123,0.4714 -1.74198,-0.13423 z"
         style="fill:#000000;stroke-width:0.31145239"
         inkscape:connector-curvature="0" />
    </g>
  </g>
</svg>
