<?xml version="1.0"?>
<svg xmlns:rdf="http://www.w3.org/1999/02/22-rdf-syntax-ns#" xmlns="http://www.w3.org/2000/svg" xmlns:cc="http://web.resource.org/cc/" xmlns:xlink="http://www.w3.org/1999/xlink" xmlns:dc="http://purl.org/dc/elements/1.1/" xmlns:svg="http://www.w3.org/2000/svg" id="svg2095" viewBox="0 0 161.67 98.176" version="1.0">
  <defs id="defs2097">
    <linearGradient id="linearGradient3014" x1="-746.71" gradientUnits="userSpaceOnUse" y1="401.66" gradientTransform="matrix(.42762 0 0 .42762 123.92 444.08)" x2="-746.71" y2="273.73">
      <stop id="stop3853" stop-color="#dcdcdc" offset="0"/>
      <stop id="stop3855" stop-color="#fff" offset="1"/>
    </linearGradient>
    <radialGradient id="radialGradient3018" gradientUnits="userSpaceOnUse" cy="260.15" cx="-601.8" gradientTransform="matrix(1 0 0 1.2 0 -52.03)" r="2.5254">
      <stop id="stop3751" stop-color="#722e00" offset="0"/>
      <stop id="stop3813" stop-color="#722e00" offset=".5"/>
      <stop id="stop3753" stop-color="#722e00" stop-opacity="0" offset="1"/>
    </radialGradient>
  </defs>
  <g id="layer1" transform="translate(235.95 -524.7)">
    <g id="g2983">
      <path id="path1927" style="color:#000000" fill="#ad4700" d="m-154.88 526.72c42.6-0.91 78.679 29.96 78.589 47.48-0.087 17.1-33.639 46.68-77.239 46.68-43.29 0-79.84-31.66-80.42-47.48-0.59-15.83 36.47-45.77 79.07-46.68z"/>
      <path id="path2817" stroke-linejoin="round" style="color:#000000" d="m-154.98 545.09c38.76-1.61 78.158 12.55 78.689 29.11s-43.129 31.1-78.989 29.84c-36.29-1.25-78.66-20.64-78.67-30.64-0.02-10.02 40.22-26.7 78.97-28.31z" stroke="#722e00" stroke-linecap="round" stroke-width=".85523" fill="none"/>
      <path id="rect2819" style="color:#000000" fill="url(#linearGradient3014)" d="m-206.65 541.97c5.32 10.96 9.03 36.91 0.07 63.21 4.36 2.78 9.13 5.22 14.11 7.47 14.02-27.44 7.75-69.76 0.31-77.92-5.11 2.08-9.83 4.44-14.49 7.24z"/>
      <path id="path2832" style="color:#000000" fill="url(#linearGradient3014)" d="m-117.95 614.55c6.06-2.57 11.74-5.57 16.85-8.82 12.412-19.53 9.17-45.89 0.94-62.72-5.14-3.45-10.95-6.62-17.26-9.23 8.58 13.88 13.21 56.97-0.53 80.77z"/>
      <path id="path3729" d="m-176.45 547.45c12.95-2.91 34.65-3.21 48.11-1.05" stroke="#ececec" stroke-linecap="round" stroke-width="4.2762" fill="none"/>
      <path id="path3731" d="m-176.45 547.45c12.95-2.91 34.65-3.21 48.11-1.05" stroke="#722e00" stroke-linecap="round" stroke-width=".47038" fill="none"/>
      <path id="path3757" style="color:#000000" transform="matrix(.0040057 -.78395 .78395 .0040057 -375.12 79.284)" fill="url(#radialGradient3018)" d="m-599.27 260.15a2.5254 3.0305 0 1 1 -5.05 0 2.5254 3.0305 0 1 1 5.05 0z"/>
      <path id="path3761" style="color:#000000" transform="matrix(.0040057 -.78395 .78395 .0040057 -375.88 69.453)" fill="url(#radialGradient3018)" d="m-599.27 260.15a2.5254 3.0305 0 1 1 -5.05 0 2.5254 3.0305 0 1 1 5.05 0z"/>
      <path id="path3765" style="color:#000000" transform="matrix(.0040057 -.78395 .78395 .0040057 -370.31 68.617)" fill="url(#radialGradient3018)" d="m-599.27 260.15a2.5254 3.0305 0 1 1 -5.05 0 2.5254 3.0305 0 1 1 5.05 0z"/>
      <path id="path3769" style="color:#000000" transform="matrix(.0040057 -.78395 .78395 .0040057 -368.64 78.291)" fill="url(#radialGradient3018)" d="m-599.27 260.15a2.5254 3.0305 0 1 1 -5.05 0 2.5254 3.0305 0 1 1 5.05 0z"/>
      <path id="path3773" style="color:#000000" transform="matrix(.0040057 -.78395 .78395 .0040057 -361.83 78.002)" fill="url(#radialGradient3018)" d="m-599.27 260.15a2.5254 3.0305 0 1 1 -5.05 0 2.5254 3.0305 0 1 1 5.05 0z"/>
      <path id="path3777" style="color:#000000" transform="matrix(.0040057 -.78395 .78395 .0040057 -363.35 68.329)" fill="url(#radialGradient3018)" d="m-599.27 260.15a2.5254 3.0305 0 1 1 -5.05 0 2.5254 3.0305 0 1 1 5.05 0z"/>
      <path id="path3781" style="color:#000000" transform="matrix(.0040057 -.78395 .78395 .0040057 -356.22 67.825)" fill="url(#radialGradient3018)" d="m-599.27 260.15a2.5254 3.0305 0 1 1 -5.05 0 2.5254 3.0305 0 1 1 5.05 0z"/>
      <path id="path3785" style="color:#000000" transform="matrix(.0040057 -.78395 .78395 .0040057 -355.03 77.389)" fill="url(#radialGradient3018)" d="m-599.27 260.15a2.5254 3.0305 0 1 1 -5.05 0 2.5254 3.0305 0 1 1 5.05 0z"/>
      <path id="path3789" style="color:#000000" transform="matrix(.0040057 -.78395 .78395 .0040057 -348.17 77.64)" fill="url(#radialGradient3018)" d="m-599.27 260.15a2.5254 3.0305 0 1 1 -5.05 0 2.5254 3.0305 0 1 1 5.05 0z"/>
      <path id="path3793" style="color:#000000" transform="matrix(.0040057 -.78395 .78395 .0040057 -348.93 67.97)" fill="url(#radialGradient3018)" d="m-599.27 260.15a2.5254 3.0305 0 1 1 -5.05 0 2.5254 3.0305 0 1 1 5.05 0z"/>
      <path id="path3797" style="color:#000000" transform="matrix(.0040057 -.78395 .78395 .0040057 -348.88 67.863)" fill="url(#radialGradient3018)" d="m-599.27 260.15a2.5254 3.0305 0 1 1 -5.05 0 2.5254 3.0305 0 1 1 5.05 0z"/>
      <path id="path3801" style="color:#000000" transform="matrix(.0040057 -.78395 .78395 .0040057 -341.53 68.278)" fill="url(#radialGradient3018)" d="m-599.27 260.15a2.5254 3.0305 0 1 1 -5.05 0 2.5254 3.0305 0 1 1 5.05 0z"/>
      <path id="path3805" style="color:#000000" transform="matrix(.0040057 -.78395 .78395 .0040057 -341.53 77.889)" fill="url(#radialGradient3018)" d="m-599.27 260.15a2.5254 3.0305 0 1 1 -5.05 0 2.5254 3.0305 0 1 1 5.05 0z"/>
      <path id="path3809" style="color:#000000" transform="matrix(.0040057 -.78395 .78395 .0040057 -333.97 78.306)" fill="url(#radialGradient3018)" d="m-599.27 260.15a2.5254 3.0305 0 1 1 -5.05 0 2.5254 3.0305 0 1 1 5.05 0z"/>
      <path id="path3747" style="color:#000000" transform="matrix(.0040057 -.78395 .78395 .0040057 -334.25 69.125)" fill="url(#radialGradient3018)" d="m-599.27 260.15a2.5254 3.0305 0 1 1 -5.05 0 2.5254 3.0305 0 1 1 5.05 0z"/>
      <path id="path3735" stroke-linejoin="round" style="color:#000000" d="m-572.32 276.19a14.268 4.2931 0 1 1 -26.84 0.39" transform="matrix(-.036874 -.35978 .42761 .0021849 -314.06 335.72)" stroke="#fff" stroke-linecap="round" stroke-width="5.3434" fill="none"/>
      <path id="path3737" stroke-linejoin="round" style="color:#000000" d="m-572.32 276.19a14.268 4.2931 0 1 1 -26.84 0.39" transform="matrix(-.061987 -.35991 .42761 .0021849 -322.5 335.02)" stroke="#fff" stroke-linecap="round" stroke-width="5.3434" fill="none"/>
      <path id="path3739" stroke-linejoin="round" style="color:#000000" d="m-572.32 276.19a14.268 4.2931 0 1 1 -26.84 0.39" transform="matrix(-.061987 -.35991 .42761 .0021849 -315.91 334.52)" stroke="#fff" stroke-linecap="round" stroke-width="5.3434" fill="none"/>
      <path id="path3741" stroke-linejoin="round" style="color:#000000" d="m-572.32 276.19a14.268 4.2931 0 1 1 -26.84 0.39" transform="matrix(-.036874 -.35978 .42761 .0021849 -294.29 334.2)" stroke="#fff" stroke-linecap="round" stroke-width="5.3434" fill="none"/>
      <path id="path3743" stroke-linejoin="round" style="color:#000000" d="m-572.32 276.19a14.268 4.2931 0 1 1 -26.84 0.39" transform="matrix(-.018040 -.35969 .42761 .0021849 -276.14 334.18)" stroke="#fff" stroke-linecap="round" stroke-width="5.3434" fill="none"/>
      <path id="path3745" stroke-linejoin="round" style="color:#000000" d="m-572.32 276.19a14.268 4.2931 0 1 1 -26.84 0.39" transform="matrix(.0070723 -.35956 .42761 .0021849 -254.41 334.72)" stroke="#fff" stroke-linecap="round" stroke-width="5.3434" fill="none"/>
      <path id="path3733" stroke-linejoin="round" style="color:#000000" d="m-572.32 276.19a14.268 4.2931 0 1 1 -26.84 0.39" transform="matrix(.0070723 -.35956 .42761 .0021849 -247.07 335.19)" stroke="#fff" stroke-linecap="round" stroke-width="5.3434" fill="none"/>
      <path id="path2400" style="color:#000000" d="m-154.94 524.72c-21.75 0.46-41.97 8.29-56.78 18.06-7.4 4.89-13.46 10.27-17.69 15.53-4.22 5.26-6.7 10.4-6.53 15.16 0.18 4.7 2.82 9.89 7.16 15.28s10.45 10.92 17.9 15.97c14.92 10.09 35.21 18.15 57.35 18.16 22.25 0 41.9-7.54 56.061-17.29 14.166-9.75 23.137-21.52 23.188-31.37 0.026-5.07-2.458-10.6-6.657-16.16-4.198-5.56-10.177-11.15-17.5-16.15-14.642-10.01-34.702-17.66-56.502-17.19zm0.1 4c20.8-0.44 40.1 6.89 54.12 16.47 7.012 4.79 12.722 10.15 16.595 15.28s5.863 10.03 5.844 13.72c-0.037 7.24-7.905 18.81-21.438 28.12-13.531 9.32-32.461 16.57-53.811 16.57-21.16-0.01-40.76-7.78-55.09-17.47-7.17-4.85-13.01-10.16-17.04-15.16s-6.19-9.72-6.31-12.94c-0.12-3.15 1.8-7.66 5.69-12.5 3.89-4.83 9.67-9.99 16.78-14.69 14.23-9.38 33.81-16.96 54.66-17.4z"/>
    </g>
  </g>
  <metadata>
    <rdf:RDF>
      <cc:Work>
        <dc:format>image/svg+xml</dc:format>
        <dc:type rdf:resource="http://purl.org/dc/dcmitype/StillImage"/>
        <cc:license rdf:resource="http://creativecommons.org/licenses/publicdomain/"/>
        <dc:publisher>
          <cc:Agent rdf:about="http://openclipart.org/">
            <dc:title>Openclipart</dc:title>
          </cc:Agent>
        </dc:publisher>
        <dc:title>Rugby ball</dc:title>
        <dc:date>2007-07-18T12:17:25</dc:date>
        <dc:description>ball, ball, clip art, clipart, football, football, image, leather, leather, media, png, public domain, remix, rugby, rugby, sport, sport, svg, tool, tool, </dc:description>
        <dc:source>http://openclipart.org/detail/4456/rugby-ball-by-molumen</dc:source>
        <dc:creator>
          <cc:Agent>
            <dc:title>molumen</dc:title>
          </cc:Agent>
        </dc:creator>
        <dc:subject>
          <rdf:Bag>
            <rdf:li>ball</rdf:li>
            <rdf:li>clip art</rdf:li>
            <rdf:li>clipart</rdf:li>
            <rdf:li>football</rdf:li>
            <rdf:li>image</rdf:li>
            <rdf:li>leather</rdf:li>
            <rdf:li>media</rdf:li>
            <rdf:li>png</rdf:li>
            <rdf:li>public domain</rdf:li>
            <rdf:li>remix</rdf:li>
            <rdf:li>rugby</rdf:li>
            <rdf:li>sport</rdf:li>
            <rdf:li>svg</rdf:li>
            <rdf:li>tool</rdf:li>
          </rdf:Bag>
        </dc:subject>
      </cc:Work>
      <cc:License rdf:about="http://creativecommons.org/licenses/publicdomain/">
        <cc:permits rdf:resource="http://creativecommons.org/ns#Reproduction"/>
        <cc:permits rdf:resource="http://creativecommons.org/ns#Distribution"/>
        <cc:permits rdf:resource="http://creativecommons.org/ns#DerivativeWorks"/>
      </cc:License>
    </rdf:RDF>
  </metadata>
</svg>
