<?xml version="1.0" encoding="UTF-8" standalone="no"?>
<!-- Created with Inkscape (http://www.inkscape.org/) -->

<svg
   xmlns:dc="http://purl.org/dc/elements/1.1/"
   xmlns:cc="http://creativecommons.org/ns#"
   xmlns:rdf="http://www.w3.org/1999/02/22-rdf-syntax-ns#"
   xmlns:svg="http://www.w3.org/2000/svg"
   xmlns="http://www.w3.org/2000/svg"
   xmlns:sodipodi="http://sodipodi.sourceforge.net/DTD/sodipodi-0.dtd"
   xmlns:inkscape="http://www.inkscape.org/namespaces/inkscape"
   id="svg3696"
   version="1.1"
   inkscape:version="0.91 r13725"
   width="544.58698"
   height="590.38123"
   viewBox="0 0 544.58698 590.38123"
   sodipodi:docname="silhouette-handball-01.svg">
  <title
     id="title3342">Silhouette Handball 01</title>
  <metadata
     id="metadata3702">
    <rdf:RDF>
      <cc:Work
         rdf:about="">
        <dc:format>image/svg+xml</dc:format>
        <dc:type
           rdf:resource="http://purl.org/dc/dcmitype/StillImage" />
        <dc:title>Silhouette Handball 01</dc:title>
        <cc:license
           rdf:resource="http://creativecommons.org/publicdomain/zero/1.0/" />
        <dc:creator>
          <cc:Agent>
            <dc:title>JLouis</dc:title>
          </cc:Agent>
        </dc:creator>
        <dc:rights>
          <cc:Agent>
            <dc:title>Domaine pubic</dc:title>
          </cc:Agent>
        </dc:rights>
        <dc:publisher>
          <cc:Agent>
            <dc:title>inkscape</dc:title>
          </cc:Agent>
        </dc:publisher>
        <dc:subject>
          <rdf:Bag>
            <rdf:li>silhouette</rdf:li>
            <rdf:li>sport</rdf:li>
            <rdf:li>handball</rdf:li>
            <rdf:li>player</rdf:li>
            <rdf:li>sportsman</rdf:li>
            <rdf:li>man</rdf:li>
            <rdf:li>handballeur</rdf:li>
            <rdf:li>sportif</rdf:li>
            <rdf:li>homme</rdf:li>
            <rdf:li></rdf:li>
          </rdf:Bag>
        </dc:subject>
        <dc:description>Silhouette of a handball player in extension - silhouette : handballeur en extension.</dc:description>
        <dc:date>1017-02-05</dc:date>
      </cc:Work>
      <cc:License
         rdf:about="http://creativecommons.org/publicdomain/zero/1.0/">
        <cc:permits
           rdf:resource="http://creativecommons.org/ns#Reproduction" />
        <cc:permits
           rdf:resource="http://creativecommons.org/ns#Distribution" />
        <cc:permits
           rdf:resource="http://creativecommons.org/ns#DerivativeWorks" />
      </cc:License>
    </rdf:RDF>
  </metadata>
  <defs
     id="defs3700" />
  <sodipodi:namedview
     pagecolor="#ffffff"
     bordercolor="#666666"
     borderopacity="1"
     objecttolerance="10"
     gridtolerance="10"
     guidetolerance="10"
     inkscape:pageopacity="0"
     inkscape:pageshadow="2"
     inkscape:window-width="1235"
     inkscape:window-height="756"
     id="namedview3698"
     showgrid="false"
     inkscape:zoom="0.67937274"
     inkscape:cx="268.99024"
     inkscape:cy="296.21381"
     inkscape:window-x="45"
     inkscape:window-y="0"
     inkscape:window-maximized="1"
     inkscape:current-layer="svg3696"
     fit-margin-top="10"
     fit-margin-left="10"
     fit-margin-right="10"
     fit-margin-bottom="10" />
  <g
     id="g3343"
     transform="translate(-65.581304,-44.66426)">
    <path
       style="fill:#ccd0d6"
       d="m 278.96626,621.5202 c -4.57737,-5.55315 -7.02516,-13.75337 -7.04979,-23.61715 -0.0152,-6.10431 0.85147,-9.32691 4.65741,-17.31723 5.69561,-11.9576 5.96331,-17.11029 1.24456,-23.9551 -2.99262,-4.34095 -3.43233,-6.17687 -3.4375,-14.35267 -0.005,-7.40578 0.51918,-10.0948 2.49406,-12.80183 3.73701,-5.12244 9.65248,-6.4875 18.77396,-4.33227 4.38437,1.03594 8.63988,1.36495 10.19823,0.78848 5.17995,-1.91618 21.42844,-23.30425 24.14276,-31.77938 3.23863,-10.1122 7.69044,-16.92891 16.76858,-25.6764 9.52651,-9.17952 12.76711,-14.34756 11.65742,-18.59098 -0.34659,-1.32535 -0.0983,-5.12614 0.55193,-8.44618 0.65015,-3.32004 1.37838,-12.07255 1.61832,-19.45001 0.36831,-11.32499 0.0944,-13.85524 -1.75938,-16.25 -1.20757,-1.56004 -2.56926,-4.36706 -3.02597,-6.23785 -1.3491,-5.52628 -4.92018,-6.55321 -9.4713,-2.72369 l -3.8516,3.2409 -3.61549,-3.8704 c -1.98851,-2.12871 -4.28446,-3.87039 -5.10211,-3.87039 -0.81764,0 -4.38884,2.45193 -7.93599,5.44872 -3.54715,2.99678 -13.04541,8.87461 -21.10725,13.06182 l -14.6579,7.61313 -12.2171,-0.47655 c -6.71941,-0.2621 -19.52961,-0.85203 -28.46711,-1.31095 -21.74719,-1.11668 -83.4947,1.29676 -96.25,3.76197 -13.42163,2.594 -18.61828,4.78045 -27.5,11.57038 -12.57348,9.61221 -18.21723,15.61423 -22.05634,23.45648 -6.47169,13.2199 -13.635849,15.29412 -18.679296,5.40814 -6.365538,-12.47749 -10.284817,-32.75087 -9.116595,-47.15771 1.271203,-15.67686 0.4184,-15.24388 28.734381,-14.58891 26.44236,0.61162 20.52793,1.86047 70.49285,-14.8847 33.80417,-11.32909 46.47867,-12.96995 68.125,-8.81959 5.5,1.05454 12.20451,1.91744 14.89892,1.91756 7.58064,3.3e-4 21.1308,-8.33967 35.72608,-21.98907 3.09375,-2.89325 8.71875,-7.22199 12.5,-9.61942 8.2408,-5.22492 21.4589,-19.07612 27.5,-28.81717 2.40625,-3.87999 4.75857,-7.05894 5.22739,-7.06433 2.07437,-0.0239 6.42517,-8.23697 6.74546,-12.73358 0.24414,-3.42764 1.83529,-6.92765 5.1924,-11.42164 12.27946,-16.43789 13.97601,-22.87656 13.93585,-52.88886 -0.0297,-22.26795 -0.22506,-24.35399 -2.55716,-27.31878 -5.8397,-7.42397 -18.47955,-9.37145 -41.0728,-6.32826 -15.4413,2.07985 -15.74858,2.07305 -22.62961,-0.50149 -9.43463,-3.52994 -19.48615,-10.76361 -24.41633,-17.57144 -3.9749,-5.48875 -5.62647,-7.61805 -12.35844,-15.93325 -1.80895,-2.23437 -3.01753,-4.0625 -2.68575,-4.0625 0.33179,0 0.0751,-2.39062 -0.57033,-5.3125 -3.56934,-16.15755 -4.859,-17.63096 -11.83138,-13.51716 -7.02236,4.1433 -16.05931,6.31768 -20.73355,4.9887 -11.52191,-3.27591 -18.27855,-10.10226 -21.72151,-21.94565 -2.2104,-7.60352 -1.12499,-13.78798 3.96246,-22.57726 3.97571,-6.868588 14.76915,-12.294126 28.4282,-14.289987 12.06189,-1.762485 18.11618,-0.317464 22.32643,5.328804 1.58602,2.126982 5.02666,6.151292 7.64587,8.942913 6.33161,6.74838 7.10035,8.4058 7.18335,15.48747 0.0897,7.66232 2.35383,14.14569 5.55226,15.8998 1.3738,0.75344 6.17069,4.74487 10.65974,8.86987 4.48906,4.125 10.39489,8.625 13.12406,10 2.72917,1.375 7.03543,3.81557 9.56945,5.42348 2.92878,1.85839 7.25627,3.14804 11.87814,3.53984 6.60389,0.5598 7.9014,0.23137 14.1458,-3.58069 3.78125,-2.30836 8.84375,-4.98145 11.25,-5.94018 2.40625,-0.95873 7.74145,-3.40962 11.85599,-5.44645 7.12874,-3.52892 8.03301,-3.67036 19.20491,-3.00383 12.8884,0.76893 16.64646,-0.20957 18.7788,-4.88952 0.75095,-1.64817 3.33853,-3.9376 5.75016,-5.08763 2.41164,-1.15003 4.662,-2.97387 5.00082,-4.05299 0.95532,-3.0427 -2.40131,-12.68127 -7.02509,-20.17257 -3.94079,-6.38473 -4.19059,-7.46008 -4.19059,-18.039456 0,-9.728865 0.46247,-12.191684 3.42033,-18.214496 6.66886,-13.579173 22.47332,-22.014344 36.36428,-19.408384 7.06263,1.324956 16.06719,9.468924 20.8176,18.827985 3.62325,7.138379 4.32178,10.074343 5.2958,22.258945 0.78313,9.796406 0.67639,16.962126 -0.35333,23.723696 -1.5786,10.36551 -0.71273,13.43725 3.78768,13.43725 1.1832,0 5.42113,1.125 9.41764,2.5 3.99651,1.375 8.44394,2.50347 9.88319,2.5077 1.43925,0.004 4.22798,0.84799 6.1972,1.875 1.96921,1.02702 5.10148,1.8673 6.96062,1.8673 5.09073,0 16.11059,3.57762 21.50067,6.98023 2.63073,1.66071 8.41576,6.31149 12.85561,10.33505 4.43985,4.02356 11.14297,8.94551 14.89584,10.93765 15.43405,8.19289 41.76995,27.74294 44.66853,33.15901 3.58693,6.70221 7.80387,61.32638 5.62924,72.91816 -1.03126,5.49712 -10.23206,14.968 -17.66301,18.18154 -2.78966,1.20639 -6.03701,3.66605 -7.21633,5.4659 -1.77146,2.7036 -3.09375,3.27246 -7.60663,3.27246 -3.82793,0 -5.68949,-0.59165 -6.22119,-1.97723 -2.77401,-7.22895 3.11596,-34.70199 8.14476,-37.99024 6.19371,-4.04996 7.34631,-6.06369 7.3521,-12.84503 0.005,-6.46555 -1.12672,-9.43716 -11.69956,-30.70572 -1.47458,-2.96628 -4.393,-6.45599 -6.48539,-7.75491 -5.69701,-3.53662 -26.5473,-11.22687 -30.43896,-11.22687 -1.87213,0 -4.49575,-0.82586 -5.83028,-1.83525 -3.29466,-2.49195 -15.86686,-2.46222 -20.72304,0.049 -5.23113,2.70513 -8.49236,10.73797 -9.90573,24.39919 -1.75144,16.92878 -4.33263,27.67448 -8.58574,35.74316 -2.89741,5.49677 -3.83219,8.90792 -3.83423,13.99174 -0.002,5.23434 -0.86621,8.23216 -3.90285,13.53965 -2.93533,5.13044 -4.17622,9.28411 -5.01602,16.79039 -0.61371,5.48546 -2.4896,13.23749 -4.16865,17.22672 -2.77858,6.6016 -2.94014,7.97682 -1.7986,15.30912 1.65597,10.63667 0.29326,14.36162 -5.66273,15.47897 -3.99771,0.74998 -4.81953,1.68033 -8.8065,9.96958 -2.41852,5.02832 -4.39732,10.28873 -4.39732,11.6898 0,1.40107 -2.53125,10.27885 -5.625,19.7284 -3.09375,9.44955 -5.625,18.5849 -5.625,20.3008 0,1.7159 -3.48993,10.6929 -7.7554,19.94888 -5.70425,12.37813 -9.43735,18.6759 -14.11486,23.81197 -8.69015,9.54205 -13.55854,16.01862 -16.6956,22.21071 -1.4567,2.8753 -5.49454,7.65655 -8.97298,10.625 -3.47844,2.96845 -7.50984,7.36592 -8.95866,9.77217 -3.97328,6.59892 -12.5756,15.21347 -28.5025,28.54299 -24.17525,20.23273 -31.05916,28.67673 -29.25119,35.88029 0.50927,2.02905 0.11888,3.94987 -1.08002,5.31459 -3.55915,4.05131 -7.38769,13.10812 -11.04097,26.11861 -4.50802,16.0545 -8.55885,24.26027 -14.04008,28.44101 -6.1305,4.67596 -11.02855,4.26668 -15.62148,-1.30534 z"
       id="path3357"
       inkscape:connector-curvature="0" />
    <path
       style="fill:#bbc2cd"
       d="m 281.5114,624.07045 c -4.01409,-2.81157 -7.46494,-10.2905 -8.92159,-19.33552 -1.52093,-9.44418 -0.31654,-15.85278 4.93408,-26.2542 4.64285,-9.19743 4.85651,-15.67591 0.71813,-21.77415 -5.75383,-8.47875 -5.33888,-23.42835 0.80643,-29.05378 4.32121,-3.95562 7.5072,-4.39836 16.55369,-2.30033 9.4095,2.1822 10.39187,1.88445 17.03417,-5.16297 8.19856,-8.69858 14.82395,-18.65451 17.40033,-26.14733 3.6896,-10.7304 9.26975,-19.03524 17.56329,-26.13912 8.13521,-6.96826 11.32958,-12.29427 11.03664,-18.40153 -0.10812,-2.25415 0.38916,-7.75472 1.10506,-12.22347 2.03163,-12.6817 1.32957,-30.49448 -1.31715,-33.41908 -1.19597,-1.32152 -2.17448,-3.25567 -2.17448,-4.2981 0,-2.06899 -3.8227,-6.03282 -5.81804,-6.03282 -0.6854,0 -2.54685,1.3845 -4.13656,3.07667 -3.21196,3.41898 -6.74096,2.67708 -8.13333,-1.70987 -1.39252,-4.38743 -4.1852,-3.79353 -12.15008,2.58385 -4.33784,3.47325 -10.98074,7.84602 -14.76199,9.71724 -3.78125,1.87123 -9.6875,5.03195 -13.125,7.02384 -5.75424,3.33432 -7.19196,3.61287 -18.125,3.51162 -6.53125,-0.0605 -17.78125,-0.58868 -25,-1.17377 -7.21875,-0.5851 -15.09375,-0.99518 -17.5,-0.91128 -2.40625,0.0839 -15.625,0.49544 -29.375,0.91454 -44.82849,1.36638 -59.92889,3.08051 -71.249,8.08794 -4.78182,2.11522 -13.06719,8.21979 -23.76384,17.50894 -4.89891,4.25427 -8.98376,10.05241 -10.03618,14.24555 -0.9122,3.63451 -8.339151,10.87473 -11.15519,10.87473 -7.588517,0 -16.125267,-26.85018 -15.82716,-49.78033 0.09228,-7.09793 0.707695,-13.91418 1.367595,-15.14722 1.596555,-2.98318 16.540134,-4.30818 36.137995,-3.20423 l 14.52578,0.81823 15,-5.15517 c 8.25,-2.83534 19.21875,-6.46741 24.375,-8.07126 5.15625,-1.60387 14.48886,-4.65078 20.73915,-6.77095 6.25029,-2.12017 15.53154,-4.50713 20.625,-5.30435 10.71225,-1.67669 29.37246,-0.79622 40.65404,1.91825 9.19032,2.21127 13.94912,1.21545 23.41321,-4.89945 8.70842,-5.62667 20.95361,-15.29002 22.90434,-18.07505 0.8746,-1.24868 4.55997,-4.12034 8.18972,-6.38148 9.21377,-5.73969 21.44073,-17.82972 27.75783,-27.44699 2.9353,-4.46875 6.60495,-9.24867 8.15478,-10.62205 3.70157,-3.28012 6.31193,-8.45916 6.31193,-12.52305 0,-3.76192 1.65615,-7.26873 5.76702,-12.21138 7.64539,-9.19233 13.17657,-24.3961 13.22975,-36.36518 0.17082,-38.43969 0.0324,-40.15821 -3.51938,-43.71004 -6.39608,-6.39607 -20.62837,-8.54592 -37.96007,-5.73402 -14.84386,2.40827 -21.23296,1.9091 -30.09961,-2.35164 -10.32287,-4.96051 -16.04119,-9.77505 -21.65472,-18.2322 -2.47887,-3.73456 -4.93024,-6.97806 -5.4475,-7.20777 -2.7088,-1.20295 -6.41648,-8.99612 -8.2922,-17.42937 -1.16358,-5.23143 -2.8733,-10.54792 -3.79938,-11.81442 -1.61171,-2.20415 -2.05536,-2.13143 -10.36604,1.69921 -10.57508,4.87438 -16.96241,5.13204 -25.08692,1.01203 -7.23585,-3.66938 -9.41603,-6.0096 -12.86744,-13.81211 -4.73121,-10.69568 -2.81914,-22.98428 4.8503,-31.172033 4.66219,-4.977283 14.26611,-9.016838 25.47776,-10.716335 14.03504,-2.127477 19.37864,-0.22423 25.44978,9.064523 1.88757,2.887965 5.01641,6.657085 6.95296,8.375835 2.99306,2.65644 3.71894,4.61567 4.84111,13.06667 1.31593,9.91013 3.73797,15.68333 6.57965,15.68333 0.82359,0 4.60749,3.05118 8.40868,6.78039 3.80119,3.72921 11.6925,9.69939 17.53625,13.26705 8.44055,5.15304 12.03847,6.61346 17.5,7.10336 6.39779,0.57388 7.82942,0.1412 20.625,-6.23335 25.48192,-12.69467 23.1083,-11.96382 37.24954,-11.4692 13.49871,0.47215 15.39887,-0.0989 18.2719,-5.49157 0.85513,-1.60508 3.4398,-3.70593 5.7437,-4.66856 2.3039,-0.96263 4.56928,-2.3657 5.03418,-3.11793 1.31364,-2.1255 -1.87534,-11.8888 -7.28788,-22.31236 -4.7612,-9.169211 -4.90289,-9.797927 -4.28439,-19.010596 0.81461,-12.13388 3.8635,-18.930021 11.80564,-26.315477 8.48641,-7.89158 18.69093,-11.049527 29.02596,-8.982523 5.68388,1.136774 16.80716,11.774858 20.76024,19.854669 4.39172,8.976367 6.26266,29.010087 4.11621,44.076027 -1.69452,11.89391 -1.41471,12.50338 6.75711,14.71787 2.91929,0.79109 9.52654,2.68224 14.68279,4.20255 5.15625,1.52032 13.46961,3.5448 18.47414,4.49887 11.27766,2.14995 19.41,6.49328 29.5431,15.77843 4.31189,3.95107 10.52656,8.61232 13.8104,10.35835 7.7971,4.14575 30.90961,19.79257 38.5344,26.08718 3.29287,2.71841 6.84169,6.59529 7.88626,8.61525 3.38405,6.54404 5.5338,25.35349 5.83525,51.05607 l 0.29145,24.84945 -6.66962,6.7633 c -3.73084,3.78324 -8.70568,7.43527 -11.29047,8.28833 -2.80708,0.92642 -5.44075,2.95365 -6.70972,5.16471 -1.76053,3.06754 -2.87715,3.63971 -7.10308,3.63971 -7.98311,0 -9.41182,-5.5564 -5.6851,-22.10993 2.73073,-12.12947 3.93262,-14.62054 9.43919,-19.56389 4.57098,-4.10344 4.8938,-4.84878 4.8938,-11.29856 0,-5.39933 -0.9794,-8.89509 -4.49079,-16.02897 -2.46992,-5.018 -5.7043,-11.62416 -7.1875,-14.68035 -2.13765,-4.40473 -4.12197,-6.28476 -9.57171,-9.06861 -10.5738,-5.40136 -26.03149,-11.00507 -28.13285,-10.19871 -1.03755,0.39815 -3.35341,-0.23729 -5.14636,-1.41208 -5.0824,-3.33011 -16.45031,-3.1418 -21.35948,0.35382 -5.01406,3.57033 -8.5495,12.78602 -9.66057,25.1819 -1.41099,15.74191 -4.20213,27.55772 -8.17083,34.58987 -3.00623,5.32678 -3.77991,8.18653 -3.77991,13.97185 0,6.01308 -0.68155,8.34604 -3.93112,13.45644 -3.04905,4.79505 -4.1572,8.2858 -4.93873,15.55722 -1.11974,10.41815 -2.31654,15.0839 -5.39726,21.04138 -1.67333,3.23585 -1.8799,5.53872 -1.05865,11.80197 1.57607,12.01993 0.6485,14.96373 -5.14679,16.33429 -4.46329,1.05554 -5.15431,1.83533 -8.90243,10.04586 -2.23493,4.89583 -4.45295,11.07805 -4.92892,13.73828 -0.47596,2.66022 -2.81006,10.64834 -5.18689,17.75136 -2.37681,7.10303 -4.90886,16.09198 -5.62676,19.97545 -2.06108,11.14939 -15.20074,37.24464 -22.90151,45.48221 -8.6989,9.30525 -13.94597,16.28725 -15.0898,20.0792 -0.51845,1.71875 -4.95293,7.12682 -9.85439,12.01792 -4.90146,4.8911 -10.59925,11.32048 -12.66175,14.28752 -3.59881,5.17714 -11.02324,12.08046 -34.8936,32.44456 -13.72774,11.7113 -18.84749,18.74922 -18.64096,25.625 0.0826,2.75 -0.55334,5.84375 -1.4132,6.875 -3.62144,4.34329 -8.25513,15.05245 -10.62444,24.55475 -6.42683,25.77517 -17.22643,38.03743 -27.2914,30.98765 z"
       id="path3355"
       inkscape:connector-curvature="0" />
    <path
       style="fill:#b0b7c6"
       d="m 281.5114,624.07045 c -5.7334,-4.01583 -9.16765,-13.9842 -9.16765,-26.61033 0,-6.80505 0.7281,-9.60838 4.45312,-17.14547 5.42495,-10.97662 5.79698,-17.27716 1.41719,-24.0009 -5.74602,-8.82116 -5.33177,-23.04052 0.83439,-28.64056 4.10086,-3.72435 8.17465,-4.28062 16.60656,-2.26757 4.1085,0.98086 7.89024,1.80342 8.40389,1.82791 1.91457,0.0913 11.08451,-9.21815 17.18249,-17.44386 3.46771,-4.67769 7.42213,-11.75208 8.7876,-15.72087 3.75858,-10.92453 7.5754,-16.54883 17.90385,-26.38238 10.24911,-9.75802 9.72625,-8.50333 11.89065,-28.53337 2.08229,-19.27016 1.69467,-31.19693 -1.1306,-34.7887 -1.34359,-1.70808 -2.44289,-3.9141 -2.44289,-4.90222 0,-2.00193 -3.87126,-5.93408 -5.84219,-5.93408 -0.69868,0 -2.28845,1.125 -3.53281,2.5 -3.04249,3.3619 -6.10445,3.15043 -8.08952,-0.5587 -2.64589,-4.9439 -4.62624,-4.69715 -12.22265,1.5229 -3.9533,3.23702 -10.56283,7.63617 -14.68783,9.7759 -4.125,2.13973 -10.275,5.48553 -13.66666,7.4351 -5.88711,3.38402 -6.82209,3.53419 -20.625,3.31284 -7.95209,-0.12752 -19.76283,-0.84562 -26.24609,-1.59577 -6.48327,-0.75015 -15.27596,-1.04884 -19.53932,-0.66377 -4.26338,0.38508 -18.36513,1.01993 -31.33726,1.41077 -38.87443,1.17126 -56.9424,3.79975 -66.86195,9.72692 -15.86318,9.47863 -28.48431,21.88736 -30.52274,30.00908 -0.9122,3.63451 -8.339151,10.87473 -11.15519,10.87473 -7.400183,0 -15.84085,-25.90272 -15.747275,-48.32523 0.07694,-18.43577 0.192469,-18.6165 12.558701,-19.64782 5.602989,-0.46726 16.493904,-0.47942 24.202034,-0.027 13.02698,0.76458 14.8051,0.57993 25.22776,-2.61983 6.16715,-1.89332 13.74424,-4.44695 16.83799,-5.67475 13.74085,-5.45327 46.25374,-15.15733 54.89537,-16.38452 10.63982,-1.51095 26.5645,-0.70558 39.09404,1.97712 10.0141,2.14412 14.6769,1.18165 24.3963,-5.03578 8.04584,-5.14686 20.60145,-15.21041 22.048,-17.67186 0.58229,-0.99083 4.47199,-4.00761 8.64376,-6.70396 9.94635,-6.42864 23.92799,-19.81453 26.61845,-25.48424 1.17458,-2.47525 4.50583,-7.1502 7.40278,-10.38878 6.37619,-7.12815 8.1513,-10.31593 8.1513,-14.63835 0,-3.78118 1.65076,-7.28236 5.76703,-12.23148 3.40457,-4.09345 8.6386,-14.20719 11.45962,-22.14352 1.85615,-5.22188 2.6251,-18.1261 1.71318,-28.75 -0.20654,-2.40625 -0.30403,-8.97567 -0.21664,-14.59871 0.18606,-11.97157 -0.95368,-14.42977 -8.35505,-18.02026 -7.34434,-3.56284 -16.96723,-4.25736 -32.58716,-2.35198 -18.15924,2.21515 -21.51419,1.95393 -30.58804,-2.38162 -10.02076,-4.78799 -16.85506,-10.72235 -21.56794,-18.72788 -2.0625,-3.50346 -4.45312,-6.3811 -5.3125,-6.39475 -0.85937,-0.0136 -1.5625,-0.78137 -1.5625,-1.70606 0,-0.9247 -1.03906,-2.6216 -2.30902,-3.7709 -1.40639,-1.27276 -3.17688,-6.22511 -4.52907,-12.66855 -1.22103,-5.8184 -3.00562,-11.23087 -3.96576,-12.02772 -1.36197,-1.13034 -3.6169,-0.58633 -10.25812,2.47481 -11.39387,5.25176 -17.49779,5.21977 -26.49333,-0.13888 -15.28462,-9.10506 -18.50142,-31.0359 -6.44089,-43.911523 4.79437,-5.118383 14.84955,-9.251499 25.82124,-10.613639 14.25081,-1.769246 18.85863,-0.17729 24.7724,8.558627 2.10511,3.109725 5.3701,7.060285 7.2555,8.779035 2.85354,2.6013 3.66128,4.79353 4.81993,13.08135 1.39127,9.95184 3.81107,15.66865 6.63219,15.66865 0.82359,0 4.60749,3.05118 8.40868,6.78039 7.76595,7.61889 25.15624,18.74469 31.48962,20.14613 7.33542,1.62317 10.25548,0.89376 24.22786,-6.05192 24.84511,-12.3505 22.82867,-11.71447 35.74198,-11.27378 14.61993,0.49891 16.83065,-0.0155 19.12399,-4.45037 1.01348,-1.95983 3.81231,-4.49798 6.21964,-5.64035 2.40733,-1.14234 4.74277,-2.66888 5.18986,-3.3923 1.30841,-2.11704 -2.00888,-12.34564 -6.84883,-21.1178 -4.18451,-7.58423 -4.47776,-8.83215 -4.40601,-18.749996 0.0498,-6.880395 0.78714,-12.250429 2.09219,-15.237016 2.40996,-5.515189 11.36459,-15.513698 16.07599,-17.950061 5.46617,-2.826663 15.10951,-4.542155 20.79721,-3.699699 6.90272,1.022429 17.696,10.678187 22.17937,19.841879 4.29603,8.780761 6.26119,29.408973 4.21025,44.194893 -1.58957,11.45985 -0.94461,13.35721 4.92084,14.47616 1.86851,0.35646 8.45979,2.15317 14.64729,3.99269 6.1875,1.83952 15.37599,4.13125 20.41886,5.09274 11.33694,2.16153 18.7089,6.09169 29.21866,15.57714 4.47732,4.04094 10.60925,8.66559 13.62653,10.27699 7.95882,4.2505 31.98379,20.52432 39.04595,26.44861 3.333,2.79599 6.88181,6.67282 7.88626,8.6152 3.2964,6.37455 5.42528,25.20702 5.74339,50.80746 l 0.31035,24.97571 -6.66963,6.75393 c -3.94222,3.99206 -8.68391,7.41871 -11.59538,8.37959 -3.09333,1.02088 -5.50107,2.82596 -6.47221,4.85221 -1.31975,2.75356 -2.36177,3.22657 -7.10784,3.22657 -5.2499,0 -5.62948,-0.23748 -6.77751,-4.24042 -0.90152,-3.14341 -0.62837,-7.18568 1.05584,-15.625 2.69589,-13.50878 4.00882,-16.35761 9.95022,-21.59041 4.13249,-3.63963 4.49151,-4.50594 4.49151,-10.83795 0,-6.89898 -0.27215,-7.62082 -11.62391,-30.83122 -2.20373,-4.50582 -4.11898,-6.30697 -9.62609,-9.05261 -11.03751,-5.50289 -26.08813,-10.93104 -28.13285,-10.14641 -1.03755,0.39815 -3.35341,-0.23729 -5.14636,-1.41208 -2.00649,-1.3147 -6.01744,-2.19936 -10.43174,-2.30083 -13.70608,-0.31509 -18.68551,7.17921 -21.25884,31.99562 -1.72137,16.6004 -3.29722,22.94428 -7.59744,30.58488 -2.9055,5.16251 -3.68277,8.07882 -3.68277,13.81777 0,6.01308 -0.68155,8.34604 -3.93113,13.45644 -3.04904,4.79505 -4.1572,8.2858 -4.93872,15.55722 -1.10185,10.25169 -2.31904,15.08328 -5.21435,20.69803 -1.45896,2.82932 -1.74345,6.33632 -1.23407,15.21276 0.71027,12.37715 0.97873,11.80119 -6.23739,13.38191 -4.21882,0.92415 -9.87496,11.34894 -12.671,23.35382 -1.02205,4.38816 -3.80365,13.88473 -6.18134,21.10348 -2.37769,7.21875 -4.73465,15.63624 -5.23769,18.70554 -0.50305,3.06929 -4.22635,12.48409 -8.27402,20.92178 -5.98079,12.46741 -9.11013,17.26647 -16.70518,25.61862 -5.14018,5.65256 -10.51607,12.83151 -11.94644,15.95323 -1.43036,3.12171 -6.35883,9.35817 -10.95217,13.85882 -4.59332,4.50064 -10.18415,10.81113 -12.42406,14.0233 -2.23991,3.21218 -13.51538,13.95314 -25.05659,23.8688 -22.61844,19.4327 -28.00864,25.86921 -28.37956,33.8884 -0.14722,3.18254 -1.90234,7.93594 -4.76798,12.9131 -2.56833,4.46078 -5.59252,12.32096 -6.97355,18.125 -6.12505,25.74155 -17.2421,38.50503 -27.36336,31.41581 z"
       id="path3353"
       inkscape:connector-curvature="0" />
    <path
       style="fill:#959cb3"
       d="m 281.5114,624.07045 c -5.22807,-3.66188 -8.16294,-11.50363 -8.76647,-23.42352 -0.53908,-10.64641 -0.4092,-11.30575 3.9739,-20.17434 5.55712,-11.24407 5.92269,-17.52936 1.40617,-24.17602 -2.66384,-3.92018 -3.125,-6.01762 -3.125,-14.21278 0,-8.51919 0.3685,-10.05186 3.23611,-13.45982 2.84487,-3.38093 4.01713,-3.84592 9.69576,-3.84592 3.55281,0 8.42467,0.56785 10.82638,1.2619 6.1121,1.76625 9.43031,-0.004 16.86675,-8.99528 9.12674,-11.03577 12.88783,-17.11114 14.94534,-24.14162 2.63996,-9.02068 7.92271,-16.63231 17.28149,-24.89993 4.51542,-3.98895 8.76858,-8.73707 9.45147,-10.55135 1.5977,-4.2447 2.82976,-17.01899 3.4109,-35.36493 0.39969,-12.61761 0.15745,-14.95867 -1.81077,-17.5 -1.24972,-1.61359 -2.64054,-4.44317 -3.09072,-6.28797 -1.1225,-4.59988 -5.26361,-5.72245 -8.81212,-2.3888 -3.67913,3.45636 -4.71295,3.31876 -8.70203,-1.1583 -3.8925,-4.36867 -4.15263,-4.29123 -14.5397,4.32845 -3.77637,3.13381 -7.43391,5.69783 -8.12787,5.69783 -0.69395,0 -6.0404,2.8125 -11.88099,6.25 l -10.61925,6.25 -15.03566,0 c -8.26963,0 -19.80216,-0.60861 -25.62788,-1.35246 -13.87193,-1.77124 -73.52872,0.55925 -94.41093,3.68815 -17.21477,2.57939 -24.33427,5.53181 -36.80628,15.26338 -10.06109,7.8504 -13.35168,11.60805 -18.125,20.69763 -4.475146,8.52179 -9.65121,12.92035 -12.857544,10.92622 -7.408021,-4.60735 -13.027201,-22.94924 -13.739502,-44.84792 -0.289882,-8.91198 0.05581,-16.41182 0.851736,-18.47855 l 1.339645,-3.47853 24.702835,0.14433 24.70283,0.14434 13.125,-4.36986 c 7.21875,-2.40343 14.8125,-4.99145 16.875,-5.75118 17.31835,-6.37922 43.7359,-13.99008 52.70124,-15.18315 11.74356,-1.56277 24.3585,-0.89713 38.54113,2.03367 6.81682,1.40866 9.70769,1.49365 13.125,0.38583 7.1088,-2.30448 30.35063,-18.51196 32.78534,-22.86253 0.66809,-1.19382 4.51098,-4.30104 8.53973,-6.90497 11.10942,-7.18036 22.92859,-18.6357 27.81809,-26.96177 2.41194,-4.1072 5.89661,-8.87388 7.74368,-10.59263 4.36444,-4.06121 6.87079,-8.98012 6.87079,-13.48443 0,-2.18878 1.90104,-6.27068 4.83168,-10.37458 6.42872,-9.00241 11.04387,-18.3314 13.24013,-26.76342 2.10907,-8.09725 1.5789,-49.10892 -0.68962,-53.3477 -0.7403,-1.38327 -3.96977,-3.71518 -7.17659,-5.18204 -6.57047,-3.00546 -19.49156,-3.4827 -42.23031,-1.55975 -12.52716,1.05937 -12.72244,1.0334 -20.15665,-2.68151 -10.29108,-5.14252 -15.89776,-9.81343 -21.07358,-17.5563 -2.41722,-3.61612 -6.25648,-8.60673 -8.5317,-11.09025 -3.31263,-3.61594 -4.5735,-6.59674 -6.32912,-14.96258 -1.20581,-5.74587 -2.97795,-11.09902 -3.93809,-11.89587 -1.36197,-1.13034 -3.6169,-0.58633 -10.25812,2.47481 -11.39387,5.25176 -17.49779,5.21977 -26.49333,-0.13888 -5.45901,-3.25193 -7.49756,-5.43422 -10.21707,-10.9375 -5.71327,-11.56145 -4.24132,-24.41468 3.77618,-32.974023 5.99315,-6.398195 15.5354,-9.732033 29.62119,-10.348952 14.05038,-0.615367 14.48841,-0.425546 21.56703,9.346204 2.1301,2.940531 5.25402,6.432791 6.94203,7.760581 2.49755,1.96457 3.23627,3.99035 3.96663,10.87768 1.0604,9.99975 3.42211,16.30803 6.53037,17.44309 1.23417,0.45069 6.03739,4.3671 10.67382,8.70314 4.63643,4.33603 10.82393,9.09533 13.75,10.57622 2.92607,1.48089 6.72637,3.65858 8.44512,4.83931 1.71875,1.18074 5.89266,2.827 9.27538,3.65837 l 6.15036,1.51158 15.72464,-7.65241 c 8.64853,-4.20882 17.35827,-8.54286 19.35497,-9.63119 2.70455,-1.47416 7.00791,-1.9537 16.875,-1.88043 15.91593,0.11812 17.13919,-0.17419 19.4533,-4.64919 0.99343,-1.92108 3.83371,-4.45498 6.31176,-5.63089 2.47805,-1.17591 4.82907,-2.98108 5.22448,-4.01149 1.0142,-2.643 -1.83064,-10.92903 -7.01685,-20.4376 -4.12223,-7.5578 -4.42588,-8.86672 -4.34985,-18.749996 0.0551,-7.170206 0.7758,-12.176607 2.2163,-15.396872 2.57296,-5.751919 11.1947,-15.356712 16.02896,-17.856604 5.12592,-2.650721 15.92412,-4.447049 21.33795,-3.54966 6.28969,1.042572 17.28731,11.126004 21.47573,19.690527 3.58388,7.328395 5.35277,21.660877 4.58035,37.112605 -1.09943,21.99308 -2.39292,19.51156 12.35752,23.70768 5.15625,1.46681 12.78965,3.7639 16.96312,5.10464 4.17347,1.34072 9.56799,2.43768 11.98784,2.43768 6.31526,0 18.07997,6.33997 26.00178,14.0123 3.75526,3.63699 10.33847,8.58145 14.62937,10.9877 11.5834,6.49574 35.22768,22.92252 41.78279,29.02843 3.15694,2.94061 6.35936,7.31532 7.11649,9.72157 2.5282,8.03492 4.14438,27.89107 4.11386,50.54237 l -0.0302,22.43073 -5.85515,5.94455 c -3.22034,3.26949 -8.47528,7.07168 -11.67765,8.4493 -3.54815,1.52638 -6.39008,3.75049 -7.27556,5.69392 -1.20924,2.65398 -2.30179,3.18913 -6.5108,3.18913 -6.0976,0 -7.56204,-2.59687 -6.76185,-11.99075 1.36838,-16.06447 4.40343,-24.41802 10.67692,-29.38671 4.65821,-3.68937 4.83906,-4.11379 4.83906,-11.35585 0,-5.62717 -0.78423,-8.98731 -3.11173,-13.33246 -1.71147,-3.19508 -4.7688,-9.60359 -6.79408,-14.24114 -2.88302,-6.60164 -4.71732,-9.04361 -8.4505,-11.25 -7.03707,-4.15905 -28.96997,-12.18129 -31.08494,-11.3697 -1.00542,0.38583 -3.10161,-0.13297 -4.6582,-1.15289 -4.20981,-2.75838 -12.7102,-3.84221 -17.56582,-2.23971 -8.63905,2.85114 -12.6627,11.52693 -14.58299,31.44386 -1.57517,16.33738 -3.23632,23.0957 -7.56896,30.79392 -2.9055,5.16251 -3.68278,8.07882 -3.68278,13.81777 0,6.00644 -0.68353,8.35166 -3.922,13.45644 -2.94021,4.63464 -4.16921,8.38432 -4.90951,14.97904 -1.24064,11.05183 -2.21067,15.07716 -4.959,20.57818 -1.78419,3.57119 -2.06451,6.49444 -1.52577,15.91079 0.70812,12.37676 0.97645,11.80125 -6.23938,13.38191 -4.24257,0.92935 -9.8857,11.378 -12.70079,23.5164 -1.03842,4.4776 -3.57476,13.00907 -5.63631,18.95883 -2.06156,5.94975 -4.42634,14.31409 -5.25507,18.5874 -0.82873,4.27332 -4.79729,14.65322 -8.81903,23.06645 -5.95104,12.44921 -9.04899,17.20664 -16.64179,25.5563 -5.13125,5.64274 -10.69655,13.14669 -12.36733,16.67544 -1.89725,4.00705 -5.47473,8.45623 -9.52849,11.85023 -3.56989,2.98888 -7.88271,7.63942 -9.58406,10.33452 -4.19319,6.64245 -12.84038,15.1352 -33.0987,32.50758 -18.71717,16.05078 -25.40909,24.32673 -24.2869,30.03575 0.5127,2.60828 -0.56289,5.71632 -4.19854,12.1322 -2.78448,4.91382 -6.05479,13.28374 -7.59966,19.45035 -6.55147,26.1512 -17.0823,38.17637 -27.21627,31.07825 z"
       id="path3351"
       inkscape:connector-curvature="0" />
    <path
       style="fill:#7a83a7"
       d="m 280.87274,623.4996 c -5.23363,-4.11677 -8.66672,-15.16335 -8.16962,-26.28726 0.34608,-7.74457 1.18238,-10.93892 4.65483,-17.77986 5.29734,-10.43606 5.54333,-16.51226 0.9375,-23.15846 C 275.43925,552.15252 275,550.24918 275,541.99427 c 0,-8.42288 0.37426,-9.96919 3.23611,-13.3703 2.7637,-3.28448 4.08668,-3.8449 9.0625,-3.83894 3.20451,0.004 7.95509,0.5981 10.55681,1.3206 6.19138,1.71934 8.57293,0.83197 14.67525,-5.46801 C 318.50945,514.46517 330,497.82155 330,495.33398 c 0,-0.95405 1.43044,-4.98505 3.17874,-8.95779 2.35453,-5.3503 5.90196,-9.85094 13.6816,-17.358 5.77657,-5.57416 10.76443,-11.48041 11.08413,-13.125 1.32139,-6.79746 3.26498,-29.893 3.264,-38.78612 -8.3e-4,-7.62485 -0.49988,-10.18015 -2.47976,-12.69717 -1.36329,-1.73313 -2.47871,-4.00665 -2.47871,-5.05222 0,-2.4046 -3.36445,-5.82963 -5.72652,-5.82963 -0.98887,0 -2.7612,1.125 -3.93852,2.5 -2.9369,3.43005 -4.78515,3.14244 -8.03261,-1.25 -1.52487,-2.0625 -3.3795,-3.75 -4.12139,-3.75 -0.7419,0 -4.15257,2.45259 -7.5793,5.4502 -3.42671,2.9976 -9.71201,7.20772 -13.96732,9.35579 -4.25531,2.14808 -10.41148,5.60174 -13.68036,7.6748 -5.72803,3.63261 -6.46685,3.76909 -20.3862,3.76569 -7.94353,-0.003 -19.42887,-0.61503 -25.52298,-1.36243 -15.60174,-1.91343 -79.71577,0.5715 -97.50225,3.77899 -16.08927,2.90144 -21.19294,5.12181 -34.12016,14.84416 -10.89314,8.19255 -14.22258,12.003 -19.17239,21.94222 -1.71875,3.45125 -4.639677,7.37905 -6.49095,8.72843 -3.222961,2.34922 -3.50671,2.36122 -6.679424,0.28237 -4.159165,-2.72519 -7.303411,-9.76834 -10.703776,-23.9766 -2.167807,-9.05808 -2.548839,-13.67507 -2.064201,-25.01218 0.32689,-7.64695 1.004794,-14.56767 1.506451,-15.37937 0.6579,-1.0645 7.760485,-1.42138 25.4845,-1.28047 27.85064,0.2214 19.93309,1.92892 72.6974,-15.67798 29.79681,-9.94288 41.32371,-11.76902 60.00023,-9.50545 6.90646,0.83705 14.26053,2.11568 16.34238,2.84142 5.32685,1.85695 13.0021,-0.54152 22.14077,-6.91887 13.38596,-9.3413 20.01088,-14.58129 20.69757,-16.37079 0.3718,-0.96888 3.91179,-3.8315 7.86665,-6.3614 11.32338,-7.24348 22.67418,-18.02658 27.57254,-26.19353 2.47409,-4.125 6.68335,-9.78955 9.35392,-12.58788 3.7918,-3.97322 5.08103,-6.51403 5.88459,-11.5974 0.66228,-4.18948 2.34113,-8.16772 4.71051,-11.1621 5.6545,-7.14605 11.03772,-17.61693 13.32254,-25.91362 1.68956,-6.13517 1.9612,-11.58157 1.48289,-29.73323 -0.32208,-12.22223 -1.17354,-23.32083 -1.89214,-24.66357 -1.79215,-3.34865 -7.49831,-6.09027 -16.65274,-8.00108 -6.31233,-1.31758 -9.96367,-1.30983 -20.20471,0.0429 -19.73254,2.60638 -24.52129,2.30484 -33.5857,-2.1148 -8.4743,-4.13191 -16.88302,-11.47929 -21.50192,-18.78799 -1.57068,-2.48535 -4.80114,-6.6423 -7.1788,-9.23766 -3.52807,-3.85109 -4.69558,-6.57629 -6.34897,-14.81969 -2.80017,-13.96106 -3.66201,-14.60397 -13.50505,-10.07442 -20.24595,9.31674 -38.67052,-0.62339 -40.72161,-21.96945 -1.82306,-18.97301 11.72661,-30.79744 36.89899,-32.200741 l 11.55695,-0.644272 5.62026,6.107531 c 3.09115,3.359142 7.51774,8.076282 9.83685,10.482532 3.57776,3.71217 4.35069,5.59783 5.10165,12.44627 1.10173,10.0473 3.37999,15.65478 7.15903,17.62053 1.60507,0.83491 6.30467,4.7403 10.44355,8.67865 4.13888,3.93835 10.04513,8.43646 13.125,9.99582 3.07987,1.55935 7.00602,3.80124 8.72477,4.98198 1.71875,1.18074 5.9075,2.83074 9.30833,3.66666 6.09453,1.49806 6.3458,1.43988 17.5,-4.05261 28.81892,-14.19084 27.18791,-13.66751 42.17747,-13.53294 14.39509,0.12924 13.90224,0.29781 19.89291,-6.80401 1.10204,-1.30644 3.77392,-3.33356 5.9375,-4.50471 2.17929,-1.17968 3.93379,-3.13883 3.93379,-4.39267 0,-3.46243 -4.41226,-14.767 -8.32934,-21.3404 -3.14727,-5.28158 -3.49564,-6.98123 -3.38445,-16.512596 0.14615,-12.527239 2.06043,-17.71974 9.51348,-25.805345 6.15631,-6.678811 9.99447,-8.841039 18.58591,-10.470371 10.14437,-1.923841 15.36775,-0.472548 22.82322,6.34133 11.58757,10.590385 15.64337,24.501674 14.55825,49.934382 -0.93947,22.01918 -2.25388,19.51815 12.48293,23.75214 5.15625,1.48143 12.75,3.71809 16.875,4.97035 4.125,1.25225 10.23166,2.61193 13.57036,3.02148 7.94215,0.97423 16.54264,5.76108 24.08965,13.4078 3.3495,3.39373 9.74624,8.24518 14.21499,10.78101 11.13429,6.31821 34.34852,22.14357 41.57255,28.34039 3.60234,3.0901 6.66444,7.07342 7.76557,10.10183 2.85737,7.85839 4.40453,25.53507 4.40835,50.36605 l 0.004,22.86605 -5.6703,6.06202 c -3.13371,3.35018 -8.34311,7.21181 -11.64512,8.6323 -3.74144,1.60952 -6.53019,3.78917 -7.46053,5.83103 -1.31118,2.87774 -2.10898,3.21562 -6.79237,2.87664 l -5.3069,-0.38409 -0.37621,-8.72697 c -0.22503,-5.21988 0.47631,-12.25256 1.7452,-17.5 1.80752,-7.47498 2.92665,-9.52031 7.56371,-13.82364 5.31361,-4.93117 5.4423,-5.23696 5.4423,-12.93204 0,-5.90513 -0.63347,-8.77106 -2.52631,-11.4293 -1.38946,-1.95132 -3.30295,-5.74911 -4.25218,-8.43951 -3.43376,-9.73231 -7.12187,-15.44657 -11.72587,-18.16779 -6.73735,-3.98213 -28.81989,-12.09472 -30.82625,-11.32481 -0.94458,0.36246 -3.02849,-0.19904 -4.6309,-1.24777 -7.11387,-4.65585 -19.26393,-3.6293 -24.44812,2.06561 -3.63152,3.98926 -6.62112,14.21132 -7.8456,26.82569 -1.53916,15.85622 -3.51653,23.82326 -7.78922,31.38351 -3.07373,5.43879 -3.74698,8.00652 -3.61619,13.7921 0.13768,6.09024 -0.44036,8.04207 -4.03307,13.61854 -3.48289,5.406 -4.31229,8.07632 -4.89288,15.75312 -0.41724,5.51675 -1.96597,12.38016 -3.84122,17.02281 -2.80596,6.94687 -3.06576,8.95774 -2.42837,18.79595 l 0.71375,11.01685 -5.18611,1.39648 c -4.57799,1.23272 -5.61045,2.23709 -8.80495,8.56536 -1.99036,3.94289 -4.24588,9.68595 -5.01229,12.76235 -2.26757,9.10236 -4.03247,15.00344 -7.68692,25.70184 -1.89909,5.5596 -3.86618,12.8721 -4.37129,16.25 -0.50511,3.37789 -1.90306,8.11037 -3.10655,10.51662 -1.20348,2.40625 -4.61624,9.42478 -7.58387,15.59673 -3.96624,8.24875 -7.85465,13.87851 -14.67715,21.25 -5.21853,5.63846 -10.54353,12.85194 -12.16464,16.47877 -2.02463,4.52963 -4.92222,8.06587 -9.7304,11.875 -3.76595,2.98348 -7.55904,7.06605 -8.42909,9.07238 -2.02175,4.6622 -17.10775,19.56472 -32.35431,31.96084 -19.40405,15.77633 -27.19765,25.59055 -25.81434,32.50711 0.37342,1.86702 0.18467,3.8985 -0.41943,4.51439 -3.07645,3.13647 -8.93933,16.72332 -11.40168,26.42266 -4.1363,16.29316 -8.72847,25.71001 -14.42542,29.58119 -5.73918,3.89987 -9.03978,4.07646 -13.31639,0.71248 z"
       id="path3349"
       inkscape:connector-curvature="0" />
    <path
       style="fill:#5a5f92"
       d="m 279.99249,622.46284 c -4.88853,-4.88851 -7.88408,-15.74732 -7.28226,-26.39799 0.36726,-6.49958 1.45642,-10.34457 4.79162,-16.91545 5.3525,-10.54527 5.56974,-15.98342 0.90724,-22.71141 C 275.42566,552.1329 275,550.32945 275,541.99427 c 0,-8.51549 0.35625,-9.94778 3.36311,-13.52123 3.31108,-3.93499 3.48998,-3.985 11.5625,-3.23169 4.50967,0.42084 10.03305,1.1159 12.27419,1.5446 3.58606,0.68598 4.61234,0.19999 8.55622,-4.05172 12.15757,-13.10641 16.6545,-20.34669 22.39698,-36.06009 1.72095,-4.70914 4.95463,-8.8692 13.25343,-17.0503 6.03738,-5.95175 11.23578,-12.14874 11.55198,-13.77107 1.66199,-8.52702 3.29159,-27.13477 3.29159,-37.58515 0,-10.2646 -0.33485,-12.15514 -2.5,-14.11457 -1.375,-1.24436 -2.5,-3.26011 -2.5,-4.47945 0,-2.67128 -3.23737,-6.14555 -5.72652,-6.14555 -0.98887,0 -2.7612,1.125 -3.93852,2.5 -2.9338,3.42643 -4.70642,3.14363 -7.83496,-1.25 -1.46862,-2.0625 -3.29886,-3.75 -4.06717,-3.75 -0.76832,0 -4.16782,2.33645 -7.55445,5.1921 -5.46217,4.60577 -17.3175,11.73422 -31.13049,18.71834 -5.49289,2.77731 -25.29143,3.22226 -42.18933,0.94816 -14.65902,-1.9728 -81.30207,0.56494 -99.09427,3.77347 -14.82261,2.67301 -20.76903,5.36625 -33.87599,15.34302 -10.20383,7.76696 -14.68242,12.91824 -17.79444,20.4672 -4.754172,11.53239 -12.008091,13.98919 -17.332365,5.87021 -5.553837,-8.46903 -8.838651,-23.94885 -8.819552,-41.5625 0.0094,-8.59375 0.424917,-16.63902 0.923555,-17.8784 0.835198,-2.07588 2.901563,-2.23903 26.233062,-2.07126 l 25.32644,0.18211 13.125,-4.55136 c 65.84187,-22.83206 75.08439,-24.44235 106.52605,-18.55964 l 10.90105,2.03959 7.87285,-3.99605 c 8.59335,-4.36176 18.88199,-11.91435 26.13551,-19.18534 2.54882,-2.55493 7.6279,-6.59195 11.28687,-8.97113 8.96301,-5.82807 23.43507,-20.11162 27.27767,-26.92237 1.71875,-3.04636 5.51563,-8.26826 8.4375,-11.60422 4.30008,-4.90948 5.3125,-6.99205 5.3125,-10.9279 0,-3.56328 1.09593,-6.30761 4.10154,-10.27078 6.29609,-8.30197 11.50851,-18.38411 13.79286,-26.67886 1.68699,-6.12566 1.96741,-11.63065 1.51189,-29.67902 -0.30821,-12.2121 -1.16089,-23.28257 -1.89956,-24.6628 -1.81839,-3.39768 -9.26582,-7.01783 -17.61078,-8.56048 -5.10817,-0.94429 -10.29104,-0.82184 -19.96035,0.47161 -19.836,2.65343 -23.15857,2.41528 -33.09586,-2.37211 -8.17573,-3.93875 -21.83974,-16.05856 -21.83974,-19.37159 0,-0.67081 -2.43529,-3.83461 -5.41174,-7.03066 -4.53571,-4.87032 -5.67693,-7.16374 -7.04992,-14.16766 -3.1807,-16.22536 -4.2017,-17.0538 -14.67795,-11.90954 -10.16004,4.98899 -18.9625,4.92529 -27.24443,-0.19714 -15.01913,-9.28945 -17.41182,-33.55124 -4.40546,-44.671546 6.74329,-5.765446 15.1258,-8.520886 28.44246,-9.349406 l 11.52797,-0.717233 5.08973,5.494094 c 2.79935,3.021753 7.2355,7.755301 9.85812,10.519011 4.26417,4.49357 4.86702,5.94751 5.70122,13.75 1.04633,9.78644 3.16896,14.84259 7.11849,16.95631 1.46994,0.78669 6.13559,4.65194 10.36811,8.58945 8.75891,8.14839 22.49933,16.60604 30.45226,18.74429 6.28252,1.68913 11.28214,0.49318 20.23114,-4.83948 3.09375,-1.84355 8.71875,-4.64315 12.5,-6.22134 3.78125,-1.57818 8.19878,-3.71018 9.81673,-4.73778 2.19353,-1.39315 6.58378,-1.84663 17.26143,-1.78295 l 14.31972,0.0854 5.3829,-5.28441 c 2.96058,-2.90641 6.7095,-6.19232 8.33091,-7.302 2.87411,-1.96703 2.90529,-2.18435 1.24339,-8.66875 -0.93755,-3.65814 -3.67963,-10.02095 -6.0935,-14.1396 -3.8415,-6.55453 -4.40378,-8.59127 -4.50848,-16.33125 -0.1601,-11.834623 2.26576,-19.535212 8.32119,-26.41453 6.9199,-7.861423 15.44451,-11.966063 25.1355,-12.102855 4.7643,-0.06725 9.0844,0.639572 11.41521,1.867668 5.25176,2.767134 12.34429,10.532879 15.6924,17.181916 3.23024,6.41491 5.60855,24.559575 4.91534,37.500001 -0.2394,4.46875 -0.47408,10.87171 -0.5215,14.22879 l -0.0862,6.10379 5.625,1.52581 c 3.09375,0.8392 9.28125,2.52298 13.75,3.74173 4.46875,1.21877 9.89751,2.98857 12.06391,3.9329 2.1664,0.94434 5.95724,1.71698 8.42409,1.71698 9.10321,0 25.39644,9.10561 31.74557,17.7413 0.88473,1.20334 5.35764,4.28447 9.93983,6.84697 13.01816,7.28018 36.39587,23.50135 43.0229,29.85247 3.75749,3.60102 6.46175,7.48128 7.21175,10.34787 2.11905,8.09935 3.52944,26.50368 3.7732,49.23723 l 0.23751,22.15085 -5.82505,6.22745 c -3.47099,3.71075 -8.07957,7.08845 -11.40381,8.35798 -3.65288,1.39505 -6.2254,3.381 -7.45189,5.75279 -1.6772,3.24334 -2.42177,3.58236 -7.11807,3.24116 l -5.24493,-0.38105 -0.37482,-7.91561 c -0.20616,-4.35359 0.57433,-12.22859 1.73442,-17.5 1.87469,-8.51859 2.71564,-10.14602 7.56232,-14.635 5.31334,-4.92117 5.45308,-5.25015 5.45308,-12.83734 0,-6.0231 -0.66643,-8.84278 -2.94239,-12.44938 -1.61831,-2.56447 -3.37866,-6.06892 -3.91188,-7.78767 -2.07932,-6.7023 -6.99087,-14.89751 -10.37073,-17.30418 -4.75377,-3.38498 -26.2073,-11.7165 -30.9,-12.00007 -2.0625,-0.12462 -5.84131,-1.17591 -8.39735,-2.33617 -8.91154,-4.04521 -19.27306,-1.60303 -23.9427,5.64325 -2.50245,3.88325 -5.78495,17.07871 -5.78495,23.25515 0,9.13494 -3.66511,24.50259 -7.65977,32.11702 -2.99913,5.7168 -3.98453,9.2832 -4.14452,15 -0.16837,6.01668 -0.96246,8.66415 -4.01504,13.38617 -3.05598,4.72727 -3.96328,7.75687 -4.60835,15.38788 -0.45411,5.37214 -2.13506,12.86438 -3.86767,17.23884 -2.6771,6.759 -2.9733,9.01846 -2.34307,17.87294 0.77913,10.94641 0.66847,11.18391 -6.34284,13.61417 -4.2188,1.46233 -11.23593,13.94285 -12.56575,22.34923 -0.44815,2.83292 -2.96975,11.61952 -5.60355,19.52577 -2.63382,7.90625 -5.20253,16.90625 -5.70827,20 -0.50573,3.09375 -2.32755,8.71875 -4.04848,12.5 -9.63353,21.16692 -12.54719,26.00727 -21.44462,35.625 -5.13485,5.55057 -10.51985,12.8383 -12.10265,16.379 -1.96616,4.3983 -4.91936,8.02019 -9.51101,11.66458 -3.66267,2.90706 -7.63572,7.16647 -8.82899,9.46536 -2.80745,5.40868 -15.96386,18.42821 -30.95542,30.63336 -21.19044,17.25188 -28.5292,26.39919 -27.06266,33.7319 0.40192,2.00963 0.21785,3.97088 -0.40908,4.35833 C 318.32947,567.68549 310,584.46087 310,586.83229 c 0,3.44179 -5.04009,19.21209 -8.42454,26.36015 -3.42741,7.2388 -10.00582,12.83561 -15.08679,12.83561 -1.61203,0 -4.53532,-1.60433 -6.49618,-3.56521 z"
       id="path3347"
       inkscape:connector-curvature="0" />
    <path
       style="fill:#00006c"
       d="m 282.34524,624.17514 c -25.46352,-22.3909 10.45036,-52.31863 -6.73229,-76.00401 -9.03401,-27.93964 21.1262,-19.57729 35.00913,-25.26153 18.70751,-16.64756 21.43948,-44.36133 42.1819,-59.24105 9.67924,-7.34327 4.95141,-22.03661 7.90545,-32.50257 5.7051,-21.76581 -5.45022,-40.18174 -21.34851,-35.61453 -13.20532,-8.3745 -28.61154,16.06317 -44.38941,19.84637 -16.7538,5.38777 -35.8122,-0.98082 -53.30567,-0.13435 -34.6148,1.08162 -70.39935,-1.43583 -103.85477,8.7598 -23.58132,4.54149 -29.62692,36.34882 -48.334988,40.90666 -11.691123,-15.01938 -25.38592,-64.48455 2.387847,-65.11891 27.521231,2.86695 54.137931,-3.24103 79.300241,-14.09608 26.35026,-9.27785 54.49745,-15.9135 82.15297,-7.93351 24.81629,0.0615 39.34169,-24.85838 59.20895,-36.28096 22.45135,-16.59063 31.78521,-42.31053 45.07446,-64.99484 11.93023,-21.74096 10.46543,-50.57315 3.8846,-72.94234 -24.23304,-17.93703 -57.71351,9.26553 -79.50247,-15.46897 -19.46542,-9.33401 -18.08952,-40.98443 -33.19742,-47.34574 -24.61245,20.82349 -58.79465,-14.45905 -39.51023,-38.90426 10.38756,-11.204027 33.50326,-18.261716 46.30647,-10.280974 21.6294,14.605484 13.85854,45.109724 39.66106,56.035954 22.21974,27.01753 50.36959,7.88876 74.73321,-2.62562 12.87947,-1.15525 27.45438,3.60582 35.21975,-9.85798 14.85356,-17.81573 -22.45678,-47.43792 2.41329,-68.20647 20.65255,-27.599332 60.52279,-4.125771 56.7752,26.73117 1.51481,20.09766 -8.26479,45.68217 22.13088,44.10188 27.35122,2.04561 46.6465,19.73359 68.1639,34.44421 21.75496,13.58946 49.53709,29.1197 44.0916,59.53514 -0.31041,15.56521 2.86408,32.69926 0.54276,47.64783 -9.84145,11.3787 -41.60771,38.18592 -36.46522,5.92844 6.38835,-22.53452 25.0355,-41.62829 4.18284,-64.672 -13.8002,-18.32242 -58.54121,-38.00531 -72.24532,-12.69024 -2.76057,25.98425 -12.121,50.05824 -17.54428,75.12046 -15.66478,20.1098 -2.59317,56.11492 -22.92728,69.59267 -18.51942,34.401 -17.34304,78.63784 -45.71804,108.07433 -16.67471,22.97893 -34.88196,44.75527 -56.17135,63.79558 -25.45447,14.91263 -35.98326,41.16992 -43.85266,67.98762 -3.82219,11.58624 -8.96653,37.6122 -26.2266,31.66882 z"
       id="path3345"
       inkscape:connector-curvature="0" />
  </g>
</svg>
