<?xml version="1.0" encoding="UTF-8" standalone="no"?>
<!-- Created with Inkscape (http://www.inkscape.org/) -->

<svg
   xmlns:dc="http://purl.org/dc/elements/1.1/"
   xmlns:cc="http://creativecommons.org/ns#"
   xmlns:rdf="http://www.w3.org/1999/02/22-rdf-syntax-ns#"
   xmlns:svg="http://www.w3.org/2000/svg"
   xmlns="http://www.w3.org/2000/svg"
   xmlns:sodipodi="http://sodipodi.sourceforge.net/DTD/sodipodi-0.dtd"
   xmlns:inkscape="http://www.inkscape.org/namespaces/inkscape"
   id="svg3406"
   version="1.1"
   inkscape:version="0.91 r13725"
   width="292.74701"
   height="511.99991"
   viewBox="0 0 292.74701 511.99991"
   sodipodi:docname="silhouette-football-21.svg">
  <title
     id="title3340">Silhouette Football 21</title>
  <metadata
     id="metadata3412">
    <rdf:RDF>
      <cc:Work
         rdf:about="">
        <dc:format>image/svg+xml</dc:format>
        <dc:type
           rdf:resource="http://purl.org/dc/dcmitype/StillImage" />
        <dc:title>Silhouette Football 21</dc:title>
        <cc:license
           rdf:resource="http://creativecommons.org/publicdomain/zero/1.0/" />
        <dc:date>2017-03-19</dc:date>
        <dc:creator>
          <cc:Agent>
            <dc:title>JLouis</dc:title>
          </cc:Agent>
        </dc:creator>
        <dc:rights>
          <cc:Agent>
            <dc:title>Domaine pubic</dc:title>
          </cc:Agent>
        </dc:rights>
        <dc:publisher>
          <cc:Agent>
            <dc:title>inkscape</dc:title>
          </cc:Agent>
        </dc:publisher>
        <dc:subject>
          <rdf:Bag>
            <rdf:li>silhouette</rdf:li>
            <rdf:li>soccer</rdf:li>
            <rdf:li>player</rdf:li>
            <rdf:li>sport</rdf:li>
            <rdf:li>football</rdf:li>
            <rdf:li>joueurs</rdf:li>
          </rdf:Bag>
        </dc:subject>
        <dc:description>Soccer player in silhouette - Joueur de football en silhouette</dc:description>
      </cc:Work>
      <cc:License
         rdf:about="http://creativecommons.org/publicdomain/zero/1.0/">
        <cc:permits
           rdf:resource="http://creativecommons.org/ns#Reproduction" />
        <cc:permits
           rdf:resource="http://creativecommons.org/ns#Distribution" />
        <cc:permits
           rdf:resource="http://creativecommons.org/ns#DerivativeWorks" />
      </cc:License>
    </rdf:RDF>
  </metadata>
  <defs
     id="defs3410" />
  <sodipodi:namedview
     pagecolor="#ffffff"
     bordercolor="#666666"
     borderopacity="1"
     objecttolerance="10"
     gridtolerance="10"
     guidetolerance="10"
     inkscape:pageopacity="0"
     inkscape:pageshadow="2"
     inkscape:window-width="1235"
     inkscape:window-height="756"
     id="namedview3408"
     showgrid="false"
     fit-margin-top="0"
     fit-margin-left="0"
     fit-margin-right="0"
     fit-margin-bottom="0"
     inkscape:zoom="0.8828125"
     inkscape:cx="-139.8025"
     inkscape:cy="248.16775"
     inkscape:window-x="0"
     inkscape:window-y="0"
     inkscape:window-maximized="1"
     inkscape:current-layer="svg3406" />
  <g
     id="g3416"
     transform="matrix(0.80059031,0,0,0.80059031,-0.36133525,-0.26660677)">
    <path
       style="fill:#cfe9fb"
       d="M 12.808156,638.76877 C 3.1225936,637.66704 -0.41233975,634.96327 0.62586621,629.45091 2.3953366,620.05589 4.4701864,613.84994 8.17372,606.875 c 4.335125,-8.16443 5.59934,-13.27555 6.295095,-25.45062 0.24989,-4.37286 0.954254,-8.59161 1.565252,-9.375 0.610999,-0.78342 1.223809,-5.36188 1.361802,-10.17438 0.279833,-9.7593 1.742524,-21.3523 4.388943,-34.78594 0.971254,-4.93024 2.123037,-12.33906 2.559515,-16.46406 0.888577,-8.39761 3.523412,-17.5215 7.219603,-25 2.879301,-5.82569 11.847135,-18.02939 14.957489,-20.3546 4.859572,-3.63289 10.837252,-32.66598 8.033986,-39.0204 -1.103846,-2.50219 -1.79643,-59.775 -0.815324,-67.42267 0.66203,-5.16052 0.353529,-6.50442 -2.165349,-9.43279 -2.521456,-2.93136 -2.820046,-4.23648 -2.108766,-9.21721 0.455733,-3.19128 1.920868,-7.61049 3.255855,-9.82048 4.343204,-7.18986 4.751796,-11.08429 3.36579,-32.0804 l -1.330247,-20.15145 3.262591,-8.62956 c 1.794426,-4.74625 3.114644,-8.72505 2.933819,-8.84176 -0.180825,-0.11676 -3.844399,-2.87567 -8.141274,-6.131 -7.405368,-5.61036 -7.811974,-6.19184 -7.802412,-11.15824 0.01426,-7.4079 3.442825,-32.47263 5.57617,-40.76495 0.986872,-3.83597 2.965792,-12.40794 4.3976,-19.04882 3.269233,-15.16306 15.101428,-49.2481 19.555197,-56.33272 1.847375,-2.93862 7.302234,-9.71922 12.121906,-15.06799 8.034978,-8.91704 10.045779,-10.35989 24.202179,-17.366171 20.07969,-9.937837 20.29722,-10.318595 16.75572,-29.328106 -2.79847,-15.021229 -3.24485,-24.600987 -1.87966,-40.339028 0.87569,-10.094984 1.10408,-10.695185 5.80586,-15.2581169 7.13575,-6.9250077 16.95907,-10.30239579 27.26655,-9.37460594 11.14614,1.00327794 22.78977,4.98055714 32.00148,10.93120084 9.46545,6.114552 11.41929,9.939141 9.4456,18.489606 -1.38683,6.008055 -1.22463,8.216098 1.21331,16.517217 1.10326,3.756584 0.95043,5.198639 -0.87925,8.296028 -2.17441,3.680986 -2.1545,3.85665 1.09631,9.672984 3.96809,7.099688 4.09805,8.846291 0.81094,10.899123 -1.64114,1.02491 -2.5,2.915034 -2.5,5.501857 0,2.525282 -0.7485,4.227806 -2.08402,4.740295 -1.58839,0.609521 -1.73703,1.146706 -0.625,2.258736 2.18753,2.187539 1.77132,4.84046 -1.26678,8.074373 l -2.7258,2.901482 3.27128,3.429086 c 6.71442,7.03832 7.80101,17.00335 2.87538,26.36985 -4.67132,8.88294 -4.85458,9.79399 -5.0661,25.18423 -0.1938,14.10234 -1.39446,19.93944 -6.33825,30.81391 -0.98488,2.1664 -1.79071,4.32768 -1.79071,4.80284 0,0.47516 -1.09221,2.25245 -2.42715,3.94954 -1.33492,1.6971 -3.02854,6.28581 -3.76357,10.19716 -0.73503,3.91135 -1.86068,8.79905 -2.50143,10.86155 -0.64075,2.0625 -1.51411,6.19795 -1.9408,9.18989 -0.42669,2.99195 -1.30257,6.82544 -1.94642,8.51887 -0.64384,1.69345 -1.17063,8.06563 -1.17063,14.1604 0,9.67893 0.47461,12.1068 3.75,19.1833 2.0625,4.45605 3.75,10.07472 3.75,12.48592 0,5.82905 3.62579,12.06857 7.01893,12.07872 2.84293,0.009 8.7579,4.06463 11.61467,7.96464 0.96723,1.32044 3.0766,3.54679 4.6875,4.94745 1.61089,1.40066 2.9289,3.28896 2.9289,4.19624 0,0.90726 1.15116,1.64957 2.55814,1.64957 1.48567,0 3.3941,1.45658 4.55215,3.47436 1.0967,1.9109 3.7636,4.81729 5.92644,6.45865 8.63142,6.5503 26.76893,32.93389 29.53908,42.96879 0.89133,3.22883 4.43457,8.03645 10.93392,14.8356 l 9.61527,10.0588 0.78651,12.0394 c 0.43258,6.62168 2.20433,21.32065 3.93721,32.6644 2.40895,15.76934 3.02049,23.78394 2.59757,34.04299 -0.30424,7.3799 0.0323,15.59199 0.74772,18.24909 0.89352,3.31825 0.90015,6.74941 0.0213,10.95701 -2.23366,10.69287 -3.69111,22.0063 -4.46093,34.6279 -0.6318,10.35891 -1.16307,12.64013 -3.43828,14.76406 -2.57391,2.40274 -2.69101,3.5558 -2.69101,26.498 0,18.5221 -0.35593,23.91476 -1.5625,23.67345 -1.48958,-0.29791 -2.18288,4.75385 -1.62035,11.80674 0.34425,4.31621 -2.1381,7.72017 -7.16021,9.81855 -6.12463,2.55902 -9.31368,1.56809 -16.45705,-5.1137 C 236.79735,607.50834 233.59596,605 232.96067,605 c -0.63528,0 -2.04865,-0.98438 -3.1408,-2.1875 -1.09215,-1.20313 -4.02966,-3.75835 -6.5278,-5.67829 -4.49988,-3.45837 -6.11182,-8.51651 -3.27313,-10.27091 0.69791,-0.43134 2.02306,-2.58912 2.94477,-4.79507 0.9217,-2.20595 4.51064,-7.25034 7.97543,-11.20973 8.48248,-9.69341 8.6261,-10.71321 4.86476,-34.54205 -0.9282,-5.8803 -1.7029,-12.0977 -1.72155,-13.81645 -0.11125,-10.24814 -3.5031,-27.69981 -7.03374,-36.18991 -4.60769,-11.08008 -4.9965,-19.64324 -2.16661,-47.71751 0.94427,-9.36784 1.34571,-18.36784 0.89209,-20 -0.92083,-3.31314 -11.62953,-12.56009 -20.08408,-17.34258 -5.4051,-3.0575 -5.60542,-3.07727 -9.27469,-0.91559 C 190.64255,403.73537 169.07545,410 163.13984,410 c -6.69798,0 -10.96229,-3.22489 -12.9245,-9.77418 -1.43672,-4.79532 -5.37742,-13.90774 -7.6656,-17.72582 -0.61803,-1.03125 -2.14768,-4.54476 -3.39922,-7.80781 -1.78025,-4.64152 -2.88767,-5.93384 -5.08802,-5.9375 -1.54688,-0.002 -2.8125,0.52318 -2.8125,1.16837 0,0.64519 -3.29818,5.56707 -7.32929,10.9375 -4.0311,5.37044 -8.31565,11.73319 -9.52121,14.13944 -1.20556,2.40625 -3.17813,5.5 -4.38349,6.875 -1.27181,1.45081 -2.5342,5.64758 -3.00801,10 -0.44905,4.125 -1.53355,8.0625 -2.41001,8.75 -2.44508,1.91794 -12.094424,30.86383 -12.125443,36.37364 -0.0332,5.8971 -3.45643,13.78969 -9.053871,20.87459 -6.067669,7.68007 -6.799925,9.97893 -8.428109,26.45932 -1.590397,16.09793 -4.193888,24.7723 -10.011698,33.35719 -2.025857,2.98939 -3.693612,6.12375 -3.706123,6.96522 -0.01251,0.84148 -1.762336,5.90398 -3.888502,11.25 -2.126167,5.34603 -4.395123,12.99585 -5.042125,16.99962 -1.24896,7.72877 -6.968492,23.34542 -8.550165,23.34542 -0.826818,0 -1.671184,4.82168 -3.161994,18.05624 -0.581207,5.15962 2.777436,13.05181 7.698315,18.0896 2.294449,2.34895 4.171725,4.65535 4.171725,5.12531 0,0.91411 -19.907304,2.5921 -27.379531,2.30783 -2.472508,-0.0941 -8.013049,-0.57117 -12.312313,-1.06021 z M 300.625,632.76287 c -11.22595,-8.48598 -18.16648,-24.51634 -16.27911,-37.59946 3.51943,-24.39651 27.26406,-40.6288 50.66306,-34.63426 34.13114,8.744 42.25309,51.26214 13.9203,72.87228 l -5.3736,4.09857 -18.34033,-0.006 -18.34032,-0.006 -6.25,-4.72453 z M 46.25,613.05123 c 0,-1.07183 0.5625,-1.60113 1.25,-1.17623 0.6875,0.4249 1.25,1.30185 1.25,1.94877 0,0.64693 -0.5625,1.17623 -1.25,1.17623 -0.6875,0 -1.25,-0.87695 -1.25,-1.94877 z"
       id="path3430"
       inkscape:connector-curvature="0" />
    <path
       style="fill:#abdafb"
       d="M 14.375,638.79447 C 3.713635,637.56704 1.2484195,635.96479 1.2569711,630.26852 c 0.011763,-7.83117 2.187188,-14.0181 10.4996799,-29.86103 1.266109,-2.4131 2.326469,-8.23182 2.70649,-14.85185 0.343648,-5.98639 1.167524,-11.8984 1.830836,-13.13782 0.663313,-1.23941 1.223703,-6.08732 1.245312,-10.77315 0.02161,-4.68582 1.15208,-14.70717 2.512157,-22.26967 1.360079,-7.5625 3.273147,-19.375 4.251261,-26.25 2.940579,-20.66879 6.811334,-29.60453 19.021693,-43.91202 9.500199,-11.13187 13.387965,-27.91817 11.253145,-48.58798 -1.00967,-9.77585 -1.226511,-63.96819 -0.262201,-65.52847 0.475105,-0.76874 -0.531576,-3.05605 -2.23707,-5.08292 -3.999599,-4.75325 -3.340424,-11.59322 2.039524,-21.1633 l 3.808484,-6.77469 -1.5158,-21.35031 c -1.459228,-20.55349 -1.41794,-21.63022 1.106272,-28.85031 1.44214,-4.125 2.897795,-8.34375 3.23479,-9.375 0.398475,-1.21939 -2.033839,-3.84184 -6.956205,-7.5 -4.162908,-3.09375 -7.901258,-6.87234 -8.307444,-8.39688 -1.05382,-3.95527 2.906671,-33.82768 6.344379,-47.85312 1.600842,-6.53125 3.29066,-14.125 3.75515,-16.875 1.460043,-8.64415 14.610812,-47.23599 17.884595,-52.48358 1.721261,-2.75903 6.930295,-9.51642 11.57563,-15.01642 8.61937,-10.20519 15.972411,-15.308575 33.793711,-23.454541 3.85425,-1.761749 7.9864,-4.741058 9.24971,-6.669105 2.21325,-3.377855 2.21077,-3.889953 -0.0811,-16.680597 -2.22541,-12.419905 -2.96784,-31.025958 -1.82121,-45.641311 0.42936,-5.472669 1.19289,-6.891294 6.54387,-12.1584631 8.32905,-8.1985801 16.719,-10.69311864 29.35649,-8.7284114 11.08612,1.7235201 22.87734,6.3861645 30.77245,12.1684645 7.32903,5.367694 9.02311,9.196967 7.22606,16.333653 -1.21609,4.829545 -0.16957,16.038963 1.79403,19.216141 0.36286,0.587111 -0.32515,3.132825 -1.52892,5.657141 -2.16945,4.549369 -2.15865,4.643418 1.22928,10.7115 4.19231,7.508774 4.21746,8.309844 0.31677,10.087119 -2.4441,1.1136 -2.94241,2.04559 -2.35185,4.398569 0.49123,1.957219 -0.0235,3.839508 -1.49428,5.464745 -1.72,1.900577 -1.90044,2.822346 -0.77315,3.949632 1.98588,1.985885 1.8766,2.619663 -1.02954,5.970464 -2.99473,3.452954 -3.18766,5.71865 -0.57241,6.72221 2.64951,1.01672 6.76157,10.48548 6.79496,15.64662 0.0151,2.33412 -1.92929,8.31207 -4.32086,13.28434 -3.88062,8.06815 -4.30708,9.96448 -3.96507,17.63117 0.73588,16.49538 -3.7859,34.91847 -10.95256,44.62402 -1.43499,1.94334 -3.27214,7.28709 -4.08256,11.875 -0.81043,4.5879 -2.6289,13.40414 -4.04104,19.59164 -4.31441,18.90424 -3.41339,33.74194 2.74785,45.25042 1.17793,2.20024 2.14169,5.8081 2.14169,8.01748 0,2.20938 0.91185,6.08379 2.02632,8.60981 1.6793,3.80624 2.54002,4.49455 5.02594,4.01934 2.40029,-0.45884 4.61784,1.06887 11.09868,7.64607 4.45448,4.52073 8.09906,8.68396 8.09906,9.25164 0,0.56768 1.6875,1.6691 3.75,2.44761 2.0625,0.7785 3.75,2.21394 3.75,3.18984 0,0.97591 2.23686,3.57197 4.9708,5.76903 9.59462,7.71045 30.0292,37.72726 30.0292,44.11057 0,1.28733 4.13791,6.6938 9.19535,12.01439 5.05744,5.32059 9.83869,10.90245 10.625,12.40412 0.78631,1.50168 1.43011,6.84543 1.43067,11.875 5.7e-4,5.02958 0.77804,13.08218 1.72774,17.89468 4.74704,24.05525 7.04321,74.38119 3.87301,84.88616 -1.01847,3.37489 -1.85602,10.12489 -1.86121,15 -0.0135,12.63309 -2.16329,24.78743 -4.72921,26.73719 -1.90618,1.44844 -2.10271,4.24306 -1.82418,25.9375 0.26277,20.46165 0.0273,24.31415 -1.48586,24.31415 -1.69346,0 -3.53103,7.63441 -3.00871,12.5 0.51776,4.823 -0.51503,6.38877 -5.87623,8.90884 -5.61685,2.64022 -5.73508,2.64397 -10.05608,0.3189 -2.40484,-1.294 -6.14503,-4.18087 -8.31154,-6.41524 -2.16651,-2.23438 -4.69017,-4.0625 -5.60814,-4.0625 -0.91796,0 -1.96518,-0.77177 -2.32716,-1.71506 -0.36197,-0.94329 -3.15681,-3.5095 -6.21076,-5.70268 -3.05395,-2.19317 -5.55264,-4.69345 -5.55264,-5.55616 0,-3.15523 7.58762,-16.48819 11.11206,-19.5261 C 234.59291,568.42221 239,559.81951 239,554.66261 c 0,-2.25062 -0.59559,-6.32978 -1.32354,-9.06482 -0.72795,-2.73504 -1.96325,-11.44154 -2.74511,-19.34779 -2.09284,-21.16284 -4.25244,-32.14341 -8.11281,-41.25 -2.9467,-6.95124 -3.42888,-9.75021 -3.33773,-19.375 0.0586,-6.1875 0.76079,-17.15625 1.56044,-24.375 1.55244,-14.01459 1.62039,-22.02615 0.20732,-24.44711 -1.72339,-2.95266 -14.73387,-13.32208 -20.2786,-16.16215 -5.49073,-2.81243 -5.74493,-2.8315 -8.75,-0.65668 C 192.14112,402.936 168.3241,410 162.45016,410 c -5.81046,0 -10.6211,-3.66716 -11.66632,-8.89329 -0.43667,-2.18331 -2.99258,-8.52861 -5.67983,-14.10068 -2.68724,-5.57207 -5.73301,-12.19969 -6.76837,-14.72807 -1.52614,-3.72685 -2.38244,-4.4663 -4.52364,-3.90636 -1.45265,0.37988 -3.26693,1.88604 -4.03174,3.34704 -0.76481,1.461 -4.63799,6.98864 -8.60706,12.28364 -3.96908,5.295 -7.60891,10.92 -8.08852,12.5 -0.47961,1.58 -1.98093,4.08567 -3.33627,5.56816 -1.65006,1.80486 -2.69246,5.21214 -3.15494,10.3125 -0.3944,4.34951 -1.28786,7.61706 -2.08277,7.61706 -1.8636,0 -12.072621,30.70752 -12.051665,36.25 0.01892,5.00669 -4.6085,15.66665 -9.694249,22.3321 -5.519242,7.23359 -6.390421,9.97224 -7.807225,24.5429 -1.734762,17.8406 -1.816855,18.14747 -8.192686,30.625 -7.111253,13.91675 -13.801545,31.55509 -14.9351,39.375 -1.029333,7.10092 -5.124348,19.07541 -7.48078,21.875 -0.86801,1.03125 -1.920379,4.26562 -2.338597,7.1875 -0.418219,2.92187 -1.104194,7.59883 -1.524391,10.39323 -0.964981,6.41733 1.962979,14.45509 7.036183,19.31553 2.050296,1.9643 3.72781,4.22575 3.72781,5.02543 0,0.94022 -4.042803,1.74092 -11.442031,2.26613 -12.606058,0.8948 -14.498415,0.86554 -25.432969,-0.39335 z m 287.95711,-5.00145 c -6.42351,-4.25475 -12.82125,-12.5722 -15.4911,-20.13936 -1.01256,-2.86989 -1.84056,-9.22539 -1.84002,-14.12332 0.004,-32.11398 36.6017,-51.10762 63.32724,-32.86545 11.43093,7.80245 18.9104,23.3951 17.54907,36.58505 -1.28869,12.48615 -8.36269,24.41767 -18.16091,30.63152 -5.57475,3.5354 -6.09734,3.61854 -22.74681,3.61854 -16.79902,0 -17.12043,-0.0526 -22.63747,-3.70697 z M 46.875,613.75 c -0.424899,-0.6875 -0.176845,-1.25 0.551229,-1.25 0.728073,0 1.323771,0.5625 1.323771,1.25 0,0.6875 -0.248053,1.25 -0.551229,1.25 -0.303176,0 -0.898872,-0.5625 -1.323771,-1.25 z"
       id="path3428"
       inkscape:connector-curvature="0" />
    <path
       style="fill:#8fcffb"
       d="M 18.125,638.65411 C 4.9465177,637.80966 1.2434919,636.0488 1.2648361,630.63681 1.2890744,624.491 4.3215243,614.94722 9.2121229,605.625 c 3.9847231,-7.59549 4.6853831,-10.23385 5.3102861,-19.99604 0.395937,-6.18532 1.163772,-12.09157 1.7063,-13.125 0.542529,-1.03344 1.357507,-7.22271 1.811066,-13.75396 0.727783,-10.48009 4.844931,-38.60168 8.347782,-57.01833 1.790655,-9.41457 8.54925,-22.53963 16.348482,-31.74845 4.828169,-5.70077 7.662147,-10.52066 9.544754,-16.23322 3.191916,-9.68552 4.909987,-25.47379 3.023425,-27.78385 -0.842642,-1.03179 -1.234378,-14.3342 -1.114337,-37.84011 0.16855,-33.00459 -0.01062,-36.44484 -2.002381,-38.4375 -3.607165,-3.60888 -2.861238,-12.28262 1.760561,-20.47199 l 3.948061,-6.99559 -1.35199,-21.92315 -1.35199,-21.92316 3.238652,-8.7374 3.238651,-8.73741 -3.647223,-2.61832 c -2.005972,-1.44007 -5.862288,-4.66332 -8.569592,-7.1628 l -4.92237,-4.54448 2.216349,-17.34963 c 1.997658,-15.63771 3.463926,-23.04592 10.346546,-52.27521 2.784119,-11.82368 13.252271,-41.42471 16.849456,-47.64561 3.260151,-5.63804 13.218027,-17.75157 19.556906,-23.79054 2.268484,-2.16115 10.504813,-6.95762 18.302953,-10.658811 19.58295,-9.29456 19.54747,-9.221028 15.74209,-32.622017 -2.35329,-14.471477 -2.70852,-19.895381 -1.94247,-29.658845 0.51562,-6.571717 0.90485,-12.965462 0.86495,-14.208321 -0.10038,-3.125477 8.91918,-11.8438852 15.20612,-14.6984616 12.40713,-5.6334416 36.18483,-1.2219845 50.59621,9.3870756 8.12697,5.982727 10.10064,10.087531 7.78225,16.185349 -1.75811,4.62418 -1.55412,10.368566 0.5811,16.36463 1.5411,4.32764 1.53393,5.343724 -0.0549,7.768521 -2.55369,3.897429 -2.2864,6.487354 1.26452,12.25263 3.90848,6.345776 3.90575,7.837725 -0.0176,9.625326 -2.61923,1.1934 -3.04363,2.045878 -2.4237,4.86839 0.55494,2.526644 0.15937,3.757905 -1.51228,4.707126 -1.96698,1.116924 -2.0467,1.639717 -0.60792,3.987359 1.44507,2.35794 1.32572,3.053313 -0.9375,5.462411 -3.43099,3.652112 -3.27763,5.240034 0.97372,10.082048 2.43434,2.77256 3.82787,6.02847 4.38827,10.25295 0.80007,6.03104 -0.88233,14.13939 -2.93374,14.13939 -2.29819,0 -4.74799,12.4937 -4.8261,24.6126 -0.105,16.28519 -3.79298,29.66005 -10.96854,39.77837 -1.45641,2.05372 -3.26442,7.39028 -4.01781,11.85903 -0.75338,4.46875 -2.50544,13.1875 -3.89346,19.375 -1.52702,6.80707 -2.53198,15.83692 -2.54469,22.86462 -0.0186,10.30684 0.40005,12.5152 3.71844,19.61279 2.05668,4.39899 3.42376,8.8208 3.03793,9.82625 -0.38582,1.00546 0.53797,4.70934 2.05288,8.23085 2.0706,4.81323 3.27152,6.23861 4.83744,5.74161 1.14567,-0.36362 3.79805,0.60674 5.89416,2.15638 4.29786,3.17735 14.18815,13.50404 14.18815,14.81419 0,0.47151 1.42615,1.21523 3.16921,1.65271 1.7466,0.43837 3.68543,2.15316 4.3192,3.82014 0.6325,1.66358 2.60691,3.97932 4.38759,5.14606 7.51187,4.92197 30.624,38.04509 30.624,43.88875 0,2.64225 4.34136,8.51171 13.07116,17.672 l 7.55384,7.92636 0.73944,12.07364 c 0.4067,6.64051 1.97949,20.2299 3.49507,30.19865 1.9152,12.59706 2.68342,22.89046 2.51883,33.75 -0.13025,8.59375 0.19356,18.54596 0.71959,22.11601 0.67797,4.60129 0.35778,8.96823 -1.09979,15 -1.13091,4.67995 -2.30358,13.57149 -2.60591,19.75899 -0.76972,15.75226 -1.79173,20.88516 -4.70868,23.64842 -2.43271,2.30454 -2.49721,3.31977 -1.6479,25.9375 0.75644,20.14449 0.62231,23.53908 -0.93007,23.53908 -2.19727,0 -3.30922,3.72566 -3.35765,11.25 -0.0444,6.88425 -0.61152,7.78766 -6.67973,10.63925 -4.63962,2.18027 -4.94394,2.17968 -8.75,-0.0171 -2.16876,-1.2518 -6.1932,-4.31363 -8.9432,-6.80409 -2.75,-2.49045 -8.23437,-6.96716 -12.1875,-9.94823 -6.76237,-5.09954 -8.89041,-8.91976 -5.97309,-10.72276 0.66793,-0.4128 2.2823,-3.11788 3.5875,-6.01128 1.3052,-2.8934 4.17893,-6.94822 6.38608,-9.01072 C 234.72505,568.65169 239,559.84398 239,554.45451 c 0,-2.13615 -0.60489,-6.13028 -1.3442,-8.87586 -0.7393,-2.74559 -1.91772,-11.45209 -2.61871,-19.34779 -1.67413,-18.85678 -4.07731,-31.14095 -8.18839,-41.85582 -3.83625,-9.99859 -4.26146,-19.6028 -1.85395,-41.875 2.7651,-25.58042 2.9726,-24.62351 -7.18225,-33.12153 -4.64062,-3.88347 -10.56886,-8.16747 -13.17385,-9.52 -4.67765,-2.42865 -4.77836,-2.42933 -8.125,-0.0555 -4.00938,2.844 -28.91531,10.19697 -34.53913,10.19697 -5.76188,0 -9.01107,-2.9395 -11.39966,-10.31318 -1.16909,-3.609 -3.74935,-9.65557 -5.73392,-13.43682 -1.98456,-3.78125 -4.70544,-9.53762 -6.04638,-12.79192 -2.04352,-4.9594 -2.83107,-5.76853 -4.86664,-5 -2.59301,0.979 -17.92462,21.56873 -20.41402,27.4152 -0.82005,1.92594 -2.58947,4.74899 -3.93203,6.27343 -1.51732,1.72287 -2.66024,5.27044 -3.02036,9.375 -0.31863,3.63181 -1.25649,7.16579 -2.08411,7.85329 -2.32766,1.93356 -11.974,31.32412 -12.004853,36.5765 -0.03224,5.48713 -3.361556,13.3186 -9.095212,21.39435 -6.234455,8.78112 -6.864291,10.77192 -8.892596,28.10781 -1.850458,15.81582 -3.779943,21.79989 -11.139039,34.54634 -3.568724,6.18127 -10.820574,27.03898 -12.168869,35 -0.756837,4.46875 -2.955194,11.5 -4.885237,15.625 -1.930044,4.125 -3.851899,9.46875 -4.270789,11.875 -0.418889,2.40625 -1.118688,6.48205 -1.555106,9.05735 -1.211865,7.15116 1.698622,15.94118 6.66989,20.1439 2.326636,1.96692 4.01915,4.21692 3.761142,5 -0.608319,1.84627 -18.13561,2.89072 -32.771731,1.95286 z m 284.87505,-4.74315 c -7.50794,-5.52737 -11.3065,-10.12522 -14.95444,-18.10107 -2.97136,-6.4966 -3.28581,-8.45645 -2.81034,-17.51548 0.62174,-11.84561 4.52454,-20.52791 12.44351,-27.68221 8.94022,-8.07696 14.08173,-9.95342 27.32122,-9.97122 13.84093,-0.0186 20.24006,2.39319 28.64196,10.7951 8.08984,8.08983 11.8215,17.07566 11.80329,28.42225 -0.0234,14.53405 -6.11025,26.20672 -17.65281,33.85221 -5.67017,3.75576 -5.87313,3.78946 -22.8192,3.78946 -16.86227,0 -17.1654,-0.0495 -21.97319,-3.58904 z"
       id="path3426"
       inkscape:connector-curvature="0" />
    <path
       style="fill:#72c3fb"
       d="M 10.447145,637.84132 C 7.3635315,637.56029 4.3706042,636.37637 3.0473573,634.9142 1.0346064,632.69014 0.97127975,631.66659 2.3747001,624.042 3.3052545,618.98643 5.8354739,612.13059 8.7103609,606.875 13.394765,598.31144 15.25,590.1488 15.25,578.10199 c 0,-2.39743 0.452102,-4.63837 1.004671,-4.97988 0.55257,-0.34151 1.395134,-6.66806 1.872366,-14.05901 0.477232,-7.39096 1.909278,-19.0631 3.182324,-25.9381 1.273047,-6.875 2.886925,-16.71875 3.586398,-21.875 2.392218,-17.63454 7.795988,-29.59314 19.479241,-43.10776 3.023009,-3.49687 6.095805,-9.01648 7.771396,-13.95963 3.251427,-9.59201 5.069605,-25.87521 3.151494,-28.22409 -0.834524,-1.02193 -1.227476,-14.4391 -1.108009,-37.83248 0.16855,-33.00459 -0.01062,-36.44484 -2.002381,-38.4375 -3.60674,-3.60845 -2.861234,-12.28263 1.759282,-20.46973 l 3.946784,-6.99331 -1.303877,-21.42525 c -1.278264,-21.00436 -1.245295,-21.59899 1.678217,-30.26923 1.640151,-4.86418 2.982094,-9.15597 2.982094,-9.53731 0,-0.38135 -3.076905,-3.01643 -6.837566,-5.85576 -3.760662,-2.83932 -7.459348,-6.32423 -8.219301,-7.74421 -1.810473,-3.3829 1.282455,-27.98773 6.428978,-51.14374 4.689173,-21.09823 16.592778,-58.68485 21.077433,-66.55374 1.858405,-3.2608 7.663374,-10.63532 12.899929,-16.38782 8.772774,-9.63713 10.72404,-11.06306 24.829077,-18.144356 13.25239,-6.65323 15.58623,-8.28677 17.37945,-12.164508 1.94969,-4.216072 1.92821,-5.151832 -0.36535,-15.92691 -2.28504,-10.734931 -3.09115,-26.671001 -2.24775,-44.435472 0.29158,-6.141226 0.80744,-7.211645 5.82625,-12.089366 7.89225,-7.6703982 14.32882,-9.80640807 27.0557,-8.9785842 12.41934,0.8078202 22.5389,4.3535955 32.79815,11.4920852 l 7.5,5.218579 -0.34415,11.449458 c -0.24368,8.107172 0.21334,12.783689 1.56557,16.020042 1.77517,4.248581 1.73833,4.847883 -0.52292,8.506675 l -2.43265,3.936093 3.61149,6.604113 c 3.86686,7.071114 3.81821,9.566802 -0.20704,10.619427 -2.08936,0.546383 -2.38787,1.317196 -1.7083,4.41126 0.66798,3.041303 0.3167,4.020398 -1.86047,5.185588 -2.56683,1.373725 -2.58863,1.54171 -0.49964,3.850015 2.08682,2.305918 2.06356,2.542123 -0.5213,5.293582 -3.49768,3.723103 -3.41475,5.991829 0.34821,9.526959 1.80104,1.69198 3.59581,5.39615 4.375,9.02942 1.76256,8.2185 1.73329,8.49316 -1.44291,13.53746 -4.69783,7.46089 -5.80153,12.36534 -5.88753,26.16195 -0.0811,13.0242 -1.78528,22.10212 -5.80091,30.90196 -0.9886,2.1664 -1.79745,4.3133 -1.79745,4.7709 0,0.4576 -1.36464,2.62259 -3.03254,4.81109 -1.92162,2.52144 -3.50093,6.95552 -4.31118,12.1041 -0.70327,4.46875 -2.41899,12.90625 -3.81273,18.75 -3.76431,15.78329 -3.54937,32.76744 0.53145,41.9949 1.71875,3.8864 3.125,8.71455 3.125,10.72921 0,2.01468 1.15238,6.19265 2.56083,9.2844 1.94858,4.27743 3.08428,5.45521 4.75036,4.92641 1.24235,-0.3943 3.81567,0.52393 5.9485,2.12258 C 196.90318,296.47539 205,305.53284 205,307.339 c 0,0.77605 0.87801,1.411 1.95114,1.411 2.601,0 15.93206,13.38572 24.76697,24.86852 8.00912,10.40951 15.40549,23.03844 17.11145,29.21692 0.6609,2.39357 5.35702,8.72608 11.1559,15.04327 L 270,388.78835 l 0,9.77235 c 0,5.37479 0.54231,12.81929 1.20514,16.54333 3.5846,20.13983 5.21031,36.4138 5.01566,50.20829 -0.11887,8.42198 0.17194,18.22567 0.64619,21.78599 0.59062,4.43406 0.25349,8.56875 -1.07021,13.125 -1.06287,3.65843 -2.48118,14.44805 -3.15179,23.97694 -1.08469,15.41251 -1.52539,17.61041 -3.99175,19.90819 -2.73218,2.5454 -2.7601,2.91437 -1.92278,25.4027 0.77314,20.76395 0.65709,22.92756 -1.28813,24.01616 -1.55997,0.873 -2.28655,3.34545 -2.68808,9.14705 -0.62467,9.0256 -1.4727,10.50664 -7.4448,13.00194 -5.42497,2.2667 -7.6455,1.20234 -20.7815,-9.96118 -5.29266,-4.49792 -10.68854,-8.74828 -11.99084,-9.44525 -3.32793,-1.78106 -4.4017,-6.00515 -2.17262,-8.54693 1.0119,-1.15387 2.25654,-3.46137 2.76589,-5.12779 0.50933,-1.66641 3.3781,-5.65128 6.37502,-8.85524 8.87799,-9.49129 11.21301,-17.9923 8.11923,-29.55931 -0.70694,-2.64308 -1.89123,-11.27434 -2.63175,-19.18059 -1.85318,-19.78555 -4.21243,-31.71727 -8.11632,-41.04761 -2.35415,-5.62645 -3.32128,-10.15493 -3.33698,-15.625 -0.024,-8.34854 2.55571,-38.31578 3.4185,-39.7118 0.29126,-0.47128 0.1668,-3.50348 -0.27658,-6.73824 -0.73447,-5.35865 -1.5394,-6.49011 -9.05631,-12.73044 -4.5376,-3.76698 -10.32228,-7.92098 -12.85484,-9.23112 l -4.60464,-2.38206 -6.02036,3.06931 C 187.40114,404.04139 167.6031,410 162.92309,410 c -5.89477,0 -9.67302,-3.15409 -12.12212,-10.11956 -1.27821,-3.63537 -4.43179,-10.92301 -7.00798,-16.19479 -2.57619,-5.27177 -5.05672,-11.07019 -5.5123,-12.88535 -1.01449,-4.04206 -3.93024,-4.24309 -7.07543,-0.4878 -6.56246,7.83543 -15.04196,19.9417 -17.85283,25.48869 -1.73658,3.42696 -4.04504,6.96751 -5.12992,7.86788 -1.34502,1.11628 -1.97251,3.75564 -1.97251,8.29687 0,4.36773 -0.59716,7.00387 -1.73508,7.65945 -2.44895,1.41089 -10.771308,25.76641 -11.874054,34.74961 -1.132425,9.22496 -3.139712,13.92772 -10.589172,24.80877 -3.190931,4.66084 -5.806581,9.14182 -5.812556,9.95774 -0.006,0.81591 -0.832319,8.45023 -1.836323,16.96511 -1.789094,15.17319 -4.00823,21.94312 -11.110039,33.89338 -3.640023,6.1251 -10.502242,25.76491 -11.942562,34.17986 -0.805346,4.70518 -3.068355,12.01768 -5.028909,16.25 -8.378371,18.08674 -8.015749,33.64064 0.968511,41.5421 6.806879,5.9865 4.982537,6.80892 -14.551087,6.55965 -9.412551,-0.12012 -19.443764,-0.43074 -22.291584,-0.69029 z m 294.461175,-2.81313 c -5.54215,-2.92989 -12.66654,-10.6977 -16.31127,-17.78436 -4.20455,-8.17518 -4.65315,-21.96769 -1.02714,-31.58009 5.78511,-15.33604 20.97824,-25.65654 37.78948,-25.66993 11.69511,-0.009 18.98688,3.0954 27.87653,11.86934 9.11836,8.99966 12.37337,16.85021 12.20979,29.44793 -0.1682,12.9535 -6.3352,23.87058 -18.44576,32.65342 -4.77271,3.46129 -5.21878,3.53434 -21.25,3.48025 -13.57253,-0.0457 -17.13939,-0.45936 -20.84163,-2.41656 z"
       id="path3424"
       inkscape:connector-curvature="0" />
    <path
       style="fill:#55b7fb"
       d="M 11.07935,637.60376 C 2.6570624,636.42346 0.98964759,634.60639 1.9177581,627.61985 2.8539411,620.57255 4.2103516,616.6966 9.3962566,606.25 13.357875,598.26963 14.931862,591.16415 15.211091,580 c 0.07737,-3.09375 0.63357,-6.25662 1.235981,-7.0286 0.60241,-0.77199 1.370627,-5.55324 1.707146,-10.625 1.084942,-16.35146 1.987892,-24.03911 3.872648,-32.9714 1.015462,-4.8125 2.402969,-13.14409 3.083352,-18.51464 2.095912,-16.54392 9.729928,-33.0082 20.124746,-43.40301 2.127955,-2.12796 4.944197,-7.42216 6.775417,-12.73699 3.535868,-10.26229 3.489703,-9.08314 2.597444,-66.34367 -0.497866,-31.95054 -0.866824,-37.56478 -2.594121,-39.47343 -3.169974,-3.50277 -2.48785,-11.14621 1.686984,-18.90326 4.167116,-7.74271 4.57859,-13.64483 2.609552,-37.43105 -1.006192,-12.15496 -0.873024,-13.63203 1.929486,-21.40124 1.655652,-4.58985 3.010274,-8.89727 3.010274,-9.57205 0,-0.67477 -3.340284,-3.85115 -7.422853,-7.0586 -4.082567,-3.20743 -7.742962,-6.8403 -8.13421,-8.07301 -0.939629,-2.96051 3.568334,-35.66153 6.663732,-48.33905 1.342902,-5.5 3.421971,-14.21875 4.620153,-19.375 3.42182,-14.72544 13.578287,-43.94315 17.403277,-50.06504 1.910639,-3.05797 7.5439,-10.05996 12.518357,-15.55996 8.255007,-9.12713 10.40614,-10.69162 24.644424,-17.923506 20.43729,-10.38048 20.37666,-10.266401 16.54736,-31.131486 -3.26121,-17.769675 -3.08185,-43.598372 0.34591,-49.813494 1.89324,-3.432772 8.6476,-8.5267596 14.60844,-11.0173551 13.1458,-5.4926668 40.74073,1.3670902 53.51955,13.3042931 3.40947,3.184927 3.62673,3.916951 2.9706,10.008895 -1.10543,10.263386 -0.83013,15.554087 1.03985,19.983303 1.55682,3.687485 1.48108,4.487734 -0.7707,8.14327 l -2.49719,4.053921 3.90139,6.818902 3.90137,6.8189 -3.26511,2.139388 c -2.46881,1.61763 -3.08957,2.838803 -2.54534,5.00723 0.4924,1.961894 -0.10262,3.634063 -1.88371,5.293365 -1.66471,1.550915 -2.11884,2.725059 -1.2594,3.256219 2.06644,1.27713 1.60451,4.332775 -1.19255,7.888666 l -2.53666,3.224834 3.76724,3.886795 c 6.37077,6.57298 7.46171,19.14693 2.2102,25.47461 -3.13617,3.77885 -4.61728,11.37266 -4.6353,23.76586 -0.0188,12.91068 -2.04102,23.68025 -5.70552,30.38525 -0.99732,1.82483 -1.81331,3.97174 -1.81331,4.7709 0,0.79918 -1.3263,3.24364 -2.94734,5.43214 -1.62103,2.1885 -3.57163,7.07285 -4.33468,10.8541 -0.76304,3.78125 -2.54568,12.48928 -3.96143,19.35116 -4.42195,21.43263 -3.68869,37.28136 2.13934,46.23948 0.88226,1.35609 1.60411,4.34007 1.60411,6.63107 0,5.06529 4.521,15.43798 6.61339,15.1733 0.83139,-0.10512 2.44796,-0.12462 3.5924,-0.0431 C 191.43137,291.2781 205,304.85064 205,307.15075 c 0,0.87959 0.89207,1.59925 1.98239,1.59925 2.39116,0 13.65786,11.25477 23.2032,23.17865 8.54811,10.67815 16.94491,24.557 18.61937,30.77545 0.82749,3.07306 4.50985,8.11213 10.86396,14.86659 l 9.61218,10.2178 0.92645,13.91825 c 0.50955,7.65505 1.20841,15.32451 1.55303,17.04326 2.80251,13.97734 4.60033,33.23279 4.33757,46.45719 -0.16849,8.4798 0.13265,17.94906 0.66919,21.04281 0.67727,3.90524 0.36926,7.9573 -1.00745,13.2535 -1.09064,4.19566 -2.53004,15.28355 -3.19868,24.63975 -1.06126,14.8501 -1.55997,17.35551 -3.92554,19.72107 -2.62783,2.62784 -2.69248,3.4017 -2.13681,25.57823 0.5267,21.01984 0.38824,23.02664 -1.71292,24.8257 -1.73143,1.48249 -2.28594,3.73258 -2.28594,9.27578 0,7.53118 -2.19636,11.45597 -6.41093,11.45597 -1.01148,0 -2.44943,0.61036 -3.19545,1.35638 -1.95056,1.95056 -6.93881,-0.93025 -18.23821,-10.53294 -5.22256,-4.43834 -10.55034,-8.82993 -11.8395,-9.75908 -1.28916,-0.92915 -2.74321,-2.35792 -3.23122,-3.17506 -1.17341,-1.96477 5.80745,-14.86852 11.03051,-20.3893 8.65785,-9.15135 10.24595,-15.83289 6.84359,-28.79252 -0.63786,-2.42966 -1.75221,-11.24063 -2.47633,-19.57997 -1.60236,-18.45382 -3.78632,-29.54911 -8.02051,-40.74687 -4.14486,-10.96156 -4.14129,-19.97523 0.0226,-56.91276 l 0.89137,-7.90714 -7.87142,-7.30655 c -4.32927,-4.01862 -10.61062,-8.79743 -13.95855,-10.6196 l -6.08715,-3.31304 -4.0419,2.44581 c -3.72352,2.25314 -21.172,7.74582 -30.47492,9.59333 -2.32619,0.46196 -5.67199,0.0545 -8.18949,-0.9974 -3.3948,-1.41844 -4.58527,-2.8878 -5.8807,-7.25838 -0.89332,-3.01395 -3.4427,-9.13616 -5.66529,-13.60491 -2.22257,-4.46875 -5.0547,-10.79687 -6.29361,-14.0625 -2.59227,-6.833 -5.52297,-7.73169 -9.04205,-2.77267 -1.23521,1.74065 -4.85089,6.68995 -8.03482,10.99843 -3.18393,4.30849 -7.21817,10.65403 -8.96498,14.10119 -1.74682,3.44718 -4.06366,7.00425 -5.14854,7.90463 -1.296,1.07557 -1.97252,3.69749 -1.97252,7.64469 0,3.71018 -0.72704,6.7347 -1.90114,7.90879 C 101.70635,421.86509 92.5,449.04535 92.5,454.20444 c 0,5.90072 -3.027314,13.85538 -7.859595,20.65211 -8.130091,11.43519 -9.638184,14.92391 -9.684015,22.4024 -0.09243,15.08216 -3.667775,28.44511 -11.101205,41.49105 -4.278691,7.50926 -11.151746,26.53475 -12.418145,34.375 -1.142055,7.07044 -5.44577,19.7389 -7.642615,22.49687 -0.54899,0.68923 -1.376044,3.50313 -1.837895,6.25313 -2.966425,17.66294 -1.871986,23.9221 5.262571,30.09696 2.647306,2.29121 4.078563,4.43965 3.539108,5.3125 -0.982025,1.58895 -29.009607,1.81449 -39.678859,0.3193 z M 302.99534,633.4375 C 290.6417,625.12459 284.12353,611.65496 285.30881,596.88877 286.99452,575.88836 304.08991,560 325,560 c 25.86275,0 45.65961,24.60186 39.41409,48.9805 -1.08355,4.22952 -3.08622,9.49596 -4.45037,11.70319 -3.19633,5.1718 -12.81685,14.0372 -16.92968,15.6009 -1.75824,0.66847 -10.12785,1.21541 -18.59915,1.21541 -15.30528,0 -15.4404,-0.0256 -21.43955,-4.0625 z"
       id="path3422"
       inkscape:connector-curvature="0" />
    <path
       style="fill:#2fa8fb"
       d="M 12.379481,637.62873 C 2.7340366,636.58949 0.9372705,634.85847 1.9904024,627.61985 c 1.0257047,-7.0501 5.0766596,-18.37089 8.1396536,-22.74706 2.86356,-4.09124 4.62201,-11.92064 5.024826,-22.37279 0.172223,-4.46875 0.845449,-8.83565 1.496059,-9.70422 0.650611,-0.86858 1.638714,-8.46233 2.195785,-16.875 0.55707,-8.41268 1.91591,-19.51453 3.019644,-24.67078 1.103734,-5.15625 2.560395,-13.875 3.237024,-19.375 0.67663,-5.5 2.385263,-13.52459 3.796962,-17.83241 2.375661,-7.24939 12.149599,-22.59254 18.327269,-28.77022 1.437361,-1.43736 4.111749,-7.28978 5.943082,-13.00537 3.072671,-9.58981 3.252523,-11.30866 2.329932,-22.267 -0.549872,-6.53125 -1.070563,-26.90975 -1.157093,-45.28556 -0.143122,-30.39387 -0.362245,-33.637 -2.426821,-35.91834 -2.990319,-3.30426 -1.928385,-13.44085 1.958922,-18.69871 3.549397,-4.80082 4.627453,-12.23902 3.462346,-23.88895 -1.747283,-17.47113 -1.285668,-29.41154 1.411377,-36.50753 1.374653,-3.61675 2.499653,-7.26081 2.5,-8.09792 3.46e-4,-0.8371 -3.120602,-3.87855 -6.935442,-6.75879 -3.81484,-2.88023 -7.466899,-6.22864 -8.115687,-7.44091 -1.318977,-2.46454 2.524915,-33.9555 5.606752,-45.93314 1.004067,-3.90233 2.977656,-12.4389 4.385753,-18.97015 2.691134,-12.48243 13.245185,-44.04373 17.549583,-52.48104 1.390145,-2.72491 6.730317,-9.66542 11.86705,-15.42336 9.547087,-10.70166 15.858561,-15.032413 32.453771,-22.268873 5.93864,-2.589585 8.1692,-4.367915 10.38117,-8.276462 l 2.81733,-4.978191 -2.50264,-12.163017 c -1.62091,-7.877742 -2.48446,-16.852577 -2.45103,-25.473536 0.0284,-7.320786 0.041,-14.973204 0.028,-17.005371 -0.013,-2.032166 0.6659,-4.132929 1.5087,-4.668359 1.18083,-0.750181 1.15771,-0.9779 -0.10076,-0.99265 -2.26157,-0.02651 2.04175,-7.288271 5.38318,-9.0839788 1.375,-0.7389356 3.0625,-2.080573 3.75,-2.9814165 C 138.8833,4.0722366 148.53159,1.25 155.51954,1.25 c 12.88477,0 31.89687,7.0345627 40.57038,15.011226 4.05017,3.724764 4.18128,4.13014 3.35387,10.370034 -1.20785,9.10887 -1.0464,13.26965 0.72862,18.778159 1.33456,4.141568 1.23809,5.348221 -0.71804,8.980519 -2.24048,4.160336 -2.23181,4.246083 1.01794,10.060522 3.95263,7.072009 4.06606,8.789657 0.69948,10.591396 -1.5414,0.824935 -2.49112,2.476318 -2.36164,4.10648 C 199.18416,83.857184 198.80624,85 196.875,85 c -2.12271,0 -2.5142,1.957414 -0.625,3.125 1.97619,1.221349 1.46661,4.330303 -1.28263,7.825388 l -2.53262,3.219709 3.32189,3.467303 c 6.2574,6.53132 7.68892,19.82979 2.7723,25.75396 -3.18829,3.84165 -4.74222,11.27494 -4.77859,22.85864 -0.0539,17.14716 -3.57929,30.18301 -11.49376,42.5 -1.1044,1.71875 -3.76333,11.5625 -5.9087,21.875 -5.82577,28.00355 -5.58964,43.89736 0.798,53.71564 0.88226,1.35609 1.60411,5.11977 1.60411,8.36372 0,3.24395 0.5972,6.26719 1.3271,6.71829 0.72991,0.45111 1.84099,2.17181 2.46906,3.82377 0.84286,2.21688 2.08988,3.00358 4.76105,3.00358 2.62194,0 4.9552,1.41907 8.46844,5.15046 2.66714,2.83275 5.83372,6.05151 7.03685,7.1528 1.20312,1.10129 2.1875,2.59776 2.1875,3.32549 0,0.72774 1.73175,1.97682 3.84834,2.77574 2.11658,0.79892 4.15093,2.60975 4.52078,4.02405 0.36985,1.4143 1.06573,2.57146 1.5464,2.57146 1.81847,0 12.59783,11.82984 19.17377,21.0423 7.91976,11.09508 13.92388,21.76499 15.18381,26.98309 0.4961,2.05465 4.80924,7.69894 9.86665,12.91177 l 8.98525,9.26139 0.814,12.08823 c 0.4477,6.64852 2.31197,21.08822 4.14284,32.08822 2.75355,16.54359 3.19747,22.25522 2.56872,33.0495 -0.50157,8.61101 -0.24027,15.07777 0.76823,19.01277 1.28038,4.99577 1.18923,7.54305 -0.56179,15.70049 -1.14958,5.35548 -2.68223,17.04094 -3.40589,25.96769 -1.0706,13.20645 -1.77085,16.71489 -3.75842,18.83056 -2.24835,2.39325 -2.44269,4.50806 -2.44269,26.58205 0,20.16328 -0.28984,23.98194 -1.82024,23.98194 -1.39219,0 -1.9066,2.12785 -2.1875,9.04855 l -0.36726,9.04855 -5.36879,2.8066 -5.36879,2.8066 -5.25621,-3.31391 c -2.89091,-1.82265 -6.73617,-4.76685 -8.54502,-6.54265 -1.80885,-1.77582 -6.44948,-5.68269 -10.3125,-8.68195 C 223.16066,595.92251 220,592.49066 220,591.29546 c 0,-3.64455 6.02795,-13.77067 12.56067,-21.10024 3.40413,-3.81935 6.23237,-7.81636 6.28497,-8.88225 0.0526,-1.06588 0.27061,-2.83061 0.48447,-3.92161 0.21387,-1.09101 -0.43038,-6.71601 -1.43165,-12.5 -1.00127,-5.784 -2.12488,-14.73511 -2.49692,-19.89136 -0.96631,-13.39246 -4.6823,-31.73904 -8.42975,-41.61936 -3.80513,-10.03236 -4.03635,-17.26553 -1.34679,-42.13064 1.00391,-9.28125 1.83649,-18.26626 1.85015,-19.9667 0.0326,-4.05905 -12.18684,-15.76695 -21.59919,-20.69494 -6.51735,-3.41227 -7.08945,-3.50887 -9.24241,-1.56047 -2.23525,2.02287 -16.09044,6.73571 -28.33173,9.63702 -7.5847,1.79766 -13.56583,0.11838 -15.61766,-4.38489 -0.78879,-1.73121 -1.43416,-3.70476 -1.43416,-4.38566 0,-0.68089 -2.73037,-6.98385 -6.0675,-14.00657 -3.33713,-7.02273 -6.46879,-14.0329 -6.95924,-15.57819 -1.70886,-5.38415 -5.35065,-3.27339 -13.51998,7.83611 -4.30555,5.85514 -9.10391,12.99378 -10.66301,15.86363 -1.55909,2.86986 -3.77411,6.25595 -4.92226,7.52463 -1.15978,1.28154 -2.48691,5.69383 -2.98617,9.92803 -0.49424,4.19172 -1.54969,8.0237 -2.34545,8.51551 -2.07226,1.28073 -11.3161,29.50079 -12.031099,36.72915 C 91.102924,463.30184 87.863993,470.6066 82.535522,477.5 77.332081,484.23165 75,489.87239 75,495.7266 c 0,13.56541 -2.51101,24.8277 -8.059551,36.1484 -8.663494,17.67614 -14.24876,32.27373 -15.629981,40.85031 -1.394663,8.66006 -5.793894,20.91073 -8.237358,22.93879 -0.864914,0.71787 -1.95087,6.06381 -2.450711,12.06434 -1.082728,12.998 0.40738,18.60901 6.540517,24.62835 3.306274,3.24492 3.921214,4.47935 2.636939,5.29336 -1.852914,1.17442 -26.452047,1.16034 -37.420374,-0.0214 z m 289.167029,-5.05764 c -16.14446,-11.69498 -20.98791,-33.827 -11.2849,-51.56594 18.23815,-33.34275 67.60287,-24.88061 74.75149,12.81395 2.13688,11.26765 -2.94209,26.52114 -11.46399,34.4295 -8.54058,7.92569 -8.81156,8.0014 -28.6397,8.0014 -18.25367,0 -18.29282,-0.006 -23.3629,-3.67891 z"
       id="path3420"
       inkscape:connector-curvature="0" />
    <path
       style="fill:#0095fd"
       d="m 15.625,637.89419 c -11.2071746,-0.97625 -14.84114098,-3.34623 -13.6805921,-8.9221 2.0889735,-10.0365 3.8959315,-15.34237 7.5490971,-22.1668 4.466166,-8.34319 5.405281,-12.16186 6.0191,-24.47511 0.227424,-4.56215 0.828032,-8.96557 1.334686,-9.78534 0.506654,-0.81979 1.417488,-7.77461 2.024077,-15.45518 0.606588,-7.68056 2.199453,-19.87091 3.5397,-27.08966 1.340246,-7.21875 2.832908,-16.5 3.317027,-20.625 1.71545,-14.61671 7.441795,-27.002 18.357198,-39.70405 4.660573,-5.42342 6.956278,-9.59441 9.287954,-16.875 2.910159,-9.08687 3.043547,-10.69011 2.208578,-26.54595 -1.298224,-24.65294 -1.577487,-60.92302 -0.524425,-68.11095 0.829016,-5.65864 0.622575,-6.50565 -2.229916,-9.14925 -2.722771,-2.52339 -3.044586,-3.63505 -2.404404,-8.30569 0.40651,-2.96581 1.907719,-7.37302 3.33602,-9.79382 4.596376,-7.79028 4.992528,-11.43304 3.504927,-32.22916 -1.51227,-21.14103 -1.747068,-19.34133 4.80154,-36.80322 0.261354,-0.69691 -3.190231,-4.03582 -7.67019,-7.41982 C 46.677484,248.60827 46.25,248.01459 46.25,243.12571 c 0,-7.37532 3.367576,-31.90511 5.538166,-40.34062 1.013323,-3.93805 2.995615,-12.50922 4.405096,-19.04705 2.959,-13.72521 14.742678,-48.65754 18.471568,-54.75835 1.393517,-2.27993 6.547851,-8.82137 11.454076,-14.53655 8.555028,-9.96559 9.581418,-10.7174 25.058344,-18.354679 14.19714,-7.00575 16.38851,-8.50755 18.22152,-12.487611 1.97088,-4.279404 1.94402,-5.226116 -0.49648,-17.5 -2.61544,-13.153683 -3.54668,-29.379149 -2.1437,-37.35085 0.42348,-2.40625 1.0185,-6.625 1.32226,-9.375 0.44126,-3.994954 1.63187,-5.934637 5.92321,-9.6497246 2.95401,-2.5573485 8.11753,-5.5804969 11.47448,-6.7181075 13.40497,-4.5427117 37.84518,2.185268 50.17283,13.8117401 4.53858,4.280426 4.65855,4.614145 3.72633,10.364463 -1.25915,7.766858 -0.941,15.072788 0.84996,19.51831 1.18799,2.948794 1.05086,4.301015 -0.7811,7.702764 -2.19722,4.079989 -2.1838,4.196347 1.20128,10.415856 C 204.12407,71.20728 204.13017,75 200.66423,75 c -1.34911,0 -1.91423,1.273259 -1.91423,4.312888 0,2.775875 -0.7647,4.740837 -2.14578,5.513724 -1.87038,1.046721 -1.93293,1.598528 -0.48741,4.299523 1.4715,2.749514 1.36115,3.395901 -0.97922,5.736276 -3.3419,3.341898 -3.35253,5.917009 -0.0317,7.694219 6.11067,3.27034 8.17231,16.52972 3.81154,24.51387 -4.81133,8.80909 -5.58403,12.16837 -5.28682,22.98454 0.42935,15.62477 -3.696,31.15723 -11.27989,42.47022 -1.16151,1.73264 -2.77682,6.79514 -3.5896,11.25 -0.81277,4.45485 -1.96575,9.50599 -2.56217,11.22474 -0.59643,1.71875 -1.4104,5.37311 -1.80884,8.1208 -0.39844,2.74769 -1.32757,7.00892 -2.06475,9.4694 -0.73719,2.46047 -1.1091,9.49361 -0.82649,15.6292 0.40563,8.80613 1.22332,12.65249 3.88252,18.263 2.12801,4.48979 3.36867,9.20856 3.36867,12.8125 0,3.13781 0.55179,5.7051 1.22619,5.7051 0.6744,0 1.57912,1.40625 2.01051,3.125 0.62299,2.4822 1.57164,3.125 4.61188,3.125 3.02522,0 5.31086,1.53006 10.9037,7.2992 3.89187,4.01455 7.41785,8.18967 7.8355,9.27804 0.41763,1.08837 2.04528,2.16311 3.617,2.38831 1.5717,0.2252 3.43422,1.56938 4.13893,2.98706 0.70472,1.41769 3.44819,4.47959 6.09664,6.80424 9.86545,8.65933 26.70735,33.76554 28.86701,43.03206 0.5009,2.14919 4.82558,7.74305 10.46078,13.53078 l 9.60686,9.86685 0.74726,12.09424 c 0.41099,6.65182 1.36294,15.46922 2.11544,19.59422 3.42623,18.78165 4.47221,28.83813 4.87555,46.875 0.65559,29.31726 0.59359,31.79323 -0.8941,35.70616 -0.75751,1.9924 -1.9164,11.78922 -2.57531,21.7707 -0.92434,14.00232 -1.64539,18.48363 -3.15638,19.61672 -3.39793,2.54808 -4.24807,10.4131 -3.40908,31.53907 0.58167,14.64694 0.42575,20.26745 -0.5456,19.66711 -2.10582,-1.30146 -2.86887,0.97979 -2.95817,8.84383 -0.10362,9.12107 -1.01671,10.77461 -7.0497,12.76569 -5.86008,1.934 -9.6636,0.39073 -16.45762,-6.67763 -2.36925,-2.46491 -5.04113,-4.48165 -5.93751,-4.48165 -0.89639,0 -1.62979,-0.46715 -1.62979,-1.0381 0,-0.57095 -2.53125,-2.85591 -5.625,-5.07767 -3.09375,-2.22177 -5.625,-4.69848 -5.625,-5.50383 0,-3.08799 8.02427,-17.41629 10.75606,-19.20623 4.20057,-2.75231 8.25096,-10.31576 8.6237,-16.10333 0.17904,-2.77979 -0.43991,-8.96729 -1.37542,-13.75 -0.93552,-4.78271 -2.01343,-12.91459 -2.39537,-18.07084 -0.38193,-5.15625 -1.2553,-12.75 -1.94081,-16.875 -0.68551,-4.125 -1.26091,-8.52209 -1.27865,-9.7713 -0.0178,-1.24921 -1.82826,-6.59296 -4.02339,-11.875 -3.57173,-8.59454 -3.98182,-10.85154 -3.90262,-21.4787 0.0486,-6.53125 0.83931,-18.94119 1.75696,-27.57763 0.91765,-8.63644 1.32297,-17.07921 0.90068,-18.7617 -0.9096,-3.62412 -14.2581,-15.2585 -21.82761,-19.02464 -5.11952,-2.54717 -5.47653,-2.56694 -8.97998,-0.49742 -5.6267,3.32378 -27.25673,9.61139 -33.06415,9.61139 -5.13841,0 -10.7494,-2.69874 -10.7494,-5.17019 0,-1.93514 -6.3896,-17.70824 -7.98075,-19.70092 -0.76684,-0.96036 -2.57508,-4.89787 -4.0183,-8.75 -2.24114,-5.98185 -3.08804,-7.00389 -5.80369,-7.00389 -2.57279,0 -4.71999,2.14708 -11.25064,11.25 -4.43906,6.1875 -9.06508,13.21875 -10.28004,15.625 -1.21496,2.40625 -3.19567,5.5 -4.40158,6.875 -1.29393,1.47535 -2.48276,5.49402 -2.9006,9.80502 -0.38941,4.01777 -1.5002,7.95527 -2.4684,8.75 -2.52509,2.07268 -12.146,30.82315 -12.146,36.29627 0,5.91127 -2.65321,12.18502 -8.497236,20.09245 -6.895284,9.32986 -7.520298,11.22574 -8.878424,26.93126 -1.327801,15.35482 -3.203099,22.17876 -8.576611,31.20904 -4.371821,7.34692 -14.040034,32.97812 -14.074094,37.31153 -0.03299,4.19765 -5.466045,19.79092 -7.85634,22.54829 -1.571545,1.81289 -2.663579,7.10814 -3.998914,19.39065 -0.601555,5.53315 3.298095,14.6911 8.039873,18.88086 l 4.283255,3.78463 -8.033255,0.7914 C 35.07691,638.51179 23.769589,638.60366 15.625,637.89419 Z M 302.25266,632.4904 C 291.57871,625.42028 285.80619,614.0405 285.77151,600 c -0.0284,-11.4907 2.811,-18.50535 11.06038,-27.32459 21.71437,-23.21442 59.44828,-12.35646 67.55234,19.43825 1.80573,7.08444 1.80074,8.4014 -0.059,15.57836 -2.7384,10.56785 -7.22122,17.82478 -14.62704,23.67874 l -6.17269,4.87924 -17.79844,0 c -17.69471,0 -17.83153,-0.0219 -23.4744,-3.7596 z"
       id="path3418"
       inkscape:connector-curvature="0" />
  </g>
</svg>
