<?xml version="1.0"?>
<svg xmlns:rdf="http://www.w3.org/1999/02/22-rdf-syntax-ns#" xmlns="http://www.w3.org/2000/svg" xmlns:cc="http://creativecommons.org/ns#" xmlns:xlink="http://www.w3.org/1999/xlink" xmlns:dc="http://purl.org/dc/elements/1.1/" xmlns:svg="http://www.w3.org/2000/svg" id="svg7826" viewBox="0 0 744.09 1052.4">
  <defs id="defs7828">
    <radialGradient id="radialGradient3714" gradientUnits="userSpaceOnUse" cy="815.99" cx="456.59" r="222.73">
      <stop id="stop3632" stop-color="#f3f4f8" offset="0"/>
      <stop id="stop3638" stop-color="#f8f9fd" offset=".69877"/>
      <stop id="stop3634" stop-color="#cfd1d0" offset="1"/>
    </radialGradient>
    <filter id="filter7732">
      <feGaussianBlur id="feGaussianBlur7734" stdDeviation="1.951654"/>
    </filter>
    <radialGradient id="radialGradient7824" gradientUnits="userSpaceOnUse" cy="720.29" cx="1081.5" gradientTransform="matrix(1.219 0 0 1.2088 -1042.3 -418.69)" r="195.73">
      <stop id="stop7820" stop-color="#a9173c" offset="0"/>
      <stop id="stop7822" stop-color="#7c102c" offset="1"/>
    </radialGradient>
    <filter id="filter3686">
      <feGaussianBlur id="feGaussianBlur3688" stdDeviation="1.9789138"/>
    </filter>
    <filter id="filter7736">
      <feGaussianBlur id="feGaussianBlur7738" stdDeviation="1.7923219"/>
    </filter>
    <filter id="filter7750">
      <feGaussianBlur id="feGaussianBlur7752" stdDeviation="0.54440642"/>
    </filter>
    <filter id="filter7756">
      <feGaussianBlur id="feGaussianBlur7758" stdDeviation="0.49411719"/>
    </filter>
  </defs>
  <g id="layer1">
    <g id="g7862">
      <path id="path3626" transform="matrix(1.0952 0 0 1.1202 -168.63 -390.29)" fill="url(#radialGradient3714)" d="m678.82 815.99a222.23 222.23 0 1 1 -444.46 0 222.23 222.23 0 1 1 444.46 0z"/>
      <path id="path7725" filter="url(#filter7732)" d="m481.25 328.56c-0.4 0.04-0.73 0.33-0.82 0.72s0.08 0.79 0.41 1c0.46 0.31 0.99 0.67 1.75 1.09 1.94 1.08 2.89 1.61 3.5 1.85 0.43 0.17 0.91 0.01 1.15-0.37 0.24-0.39 0.16-0.89-0.18-1.19 0.04 0.04 0.01 0-0.06-0.07-0.15-0.13-0.38-0.35-0.69-0.56-0.57-0.38-1.33-0.78-2.09-1.19-0.75-0.39-1.54-0.83-2.25-1.12-0.13-0.06-0.19-0.07-0.25-0.1-0.15-0.06-0.31-0.08-0.47-0.06zm-0.69 3.85c-0.41 0.01-0.76 0.29-0.87 0.68-0.1 0.4 0.06 0.82 0.4 1.03 0.18 0.13 0.43 0.29 0.94 0.57 0.75 0.41 1.78 0.94 3.13 1.62 1.24 0.63 2.69 1.49 4.12 2.41 0.28 0.18 0.63 0.2 0.93 0.05 0.29-0.15 0.49-0.44 0.51-0.77 0.05-1.03 0.12-2.07 0.19-3.16v-0.15c-0.03-0.37-0.13-0.39-0.16-0.44-0.11-0.34-0.41-0.58-0.76-0.62-0.35-0.05-0.7 0.11-0.9 0.4l-0.06-0.03c-0.03-0.02-0.07-0.04-0.28-0.16-0.07-0.03-0.04 0.03-0.09 0-0.06-0.03-0.12-0.07-0.19-0.09h-0.03l-0.06-0.03c-1.23-0.52-3.49-1.01-5.41-1.22-0.63-0.07-0.99-0.08-1.31-0.09-0.03-0.01-0.07-0.01-0.1 0zm6.66 1.31c0.05 0 0.2 0.03 0.37 0.09-0.23-0.06-0.45-0.06-0.46-0.06s0.02-0.03 0.09-0.03zm-312.13 3.47c-1.59-0.01-3.54 0.81-5.65 1.93-0.31 0.17-0.51 0.5-0.5 0.85 0.02 0.67 0.09 1.45 0.15 2.25 0.03 0.32 0.22 0.6 0.51 0.75 0.28 0.14 0.63 0.13 0.9-0.03 0.51-0.3 1.01-0.59 1.56-0.91 1.46-0.83 2.57-1.5 3.38-2 0.78-0.49 1.22-0.8 1.53-1.12 0.24-0.25 0.32-0.6 0.23-0.92-0.1-0.33-0.37-0.57-0.7-0.65-0.26-0.05-0.73-0.15-1.41-0.15zm306.69 1.18c-0.33 0.13-1.27 0.67-1 0.38-0.78 1.07-0.35 1.23-0.34 1.5 0.23 0.56 0.59 0.8 1.06 1.12 0.98 0.68 2.52 1.32 4.66 2 0.63 0.21 1.35 0.54 2.09 0.88 0.28 0.13 0.61 0.1 0.87-0.06 0.27-0.16 0.43-0.44 0.44-0.75 0.01-0.1 0-0.14 0-0.13 0-0.57 0.02-1.21 0.03-1.87 0.02-0.37-0.19-0.72-0.53-0.88-1.38-0.64-2.79-1.2-4.03-1.59-1.29-0.41-2.35-0.67-3.25-0.6zm-303.47 5.88l-3.12 0.37c-1.66 0.2-3.29 0.7-4.85 1.38-0.39 0.18-0.61 0.61-0.53 1.03 0.15 0.75 0.3 1.53 0.5 2.34 0.07 0.29 0.27 0.53 0.54 0.65 0.27 0.11 0.58 0.1 0.84-0.05 0.82-0.48 1.64-0.96 2.53-1.44l4.66-2.53c0.4-0.21 0.59-0.68 0.45-1.11-0.14-0.44-0.57-0.7-1.02-0.64zm305.35 0.94c-1.18 0-2 0.06-2.63 0.22-0.14 0.03-0.24 0.06-0.34 0.09-0.05 0.02-0.12 0.03-0.19 0.06-0.04 0.02-0.13 0.09-0.22 0.16l-0.03 0.03-0.03 0.03-0.03 0.03 0.69 0.63s-0.76-0.54-0.79-0.5c-0.04 0.07-0.09 0.14-0.12 0.25-0.06 0.2-0.03 0.48 0.06 0.68 0.18 0.4 0.36 0.52 0.63 0.75 0.26 0.24 0.6 0.51 1.03 0.79 0.84 0.54 1.99 1.17 3.5 1.96 0.54 0.29 1.14 0.67 1.75 1.04 0.25 0.14 0.56 0.16 0.84 0.05 0.27-0.12 0.47-0.36 0.53-0.65 0.32-1.22 0.58-2.36 0.78-3.47 0.08-0.43-0.15-0.86-0.56-1.03-1.71-0.69-3.37-1.12-4.87-1.12zm-301.25 4.37c-2.58-0.07-6.13 1.11-9.66 3.22-0.2 0.12-0.42 0.29-0.62 0.44-0.34 0.24-0.48 0.67-0.35 1.06 0.43 1.2 0.95 2.42 1.5 3.66 0.12 0.25 0.34 0.43 0.6 0.5 0.27 0.08 0.55 0.03 0.78-0.13 2-1.42 4.13-2.74 5.97-3.65 1.84-0.92 3.04-1.62 3.78-2.25 0.2-0.18 0.38-0.37 0.5-0.54 0.03-0.04 0.03-0.11 0.06-0.15l-0.09 0.09-0.29 0.19-0.25 0.06-0.65-0.19-0.16-0.15-0.15-0.31-0.04-0.13v-0.03l-0.03-0.16 0.03-0.12 0.13-0.35c0 0.01 0.12-0.18 0.12-0.18l0.29-0.16s0.34-0.09 0.34-0.09l0.34 0.06s0.09 0.06 0.16 0.09c-0.06-0.05-0.06-0.11-0.13-0.15-0.57-0.37-1.31-0.6-2.18-0.63zm295.81 2.75c-1.15 0.05-2.14 0.19-2.84 0.35-0.33 0.07-0.58 0.15-0.66 0.18-0.33 0.12-0.56 0.4-0.61 0.74s0.08 0.68 0.36 0.89c0.18 0.14 0.29 0.2 0.41 0.28 0.36 0.24 0.88 0.59 1.53 0.97 1.26 0.75 2.95 1.64 4.75 2.59 1.02 0.54 2.04 1.15 3.03 1.78 0.24 0.15 0.53 0.19 0.8 0.1s0.48-0.3 0.57-0.57c0.49-1.31 0.95-2.6 1.38-3.93 0.14-0.42-0.03-0.87-0.41-1.1-2.71-1.53-5.55-2.39-8.31-2.28zm31.16 2.97c-0.29 0.04-0.53 0.2-0.68 0.45-0.15 0.24-0.17 0.54-0.07 0.8 0.21 0.63 0.4 1.24 0.62 1.88 0.09 0.28 0.31 0.5 0.59 0.59 0.89 0.27 1.76 0.56 2.47 0.84 0.13 0.05 0.21 0.12 0.47 0.22 0.41 0.17 0.89 0.02 1.13-0.35 0.24-0.38 0.19-0.87-0.13-1.18-0.3-0.3-0.45-0.51-0.9-0.94-0.83-0.78-1.85-1.5-2.88-2.15-0.18-0.13-0.4-0.18-0.62-0.16zm-321.69 1c-4.19 0.03-8.28 1.88-11.88 5.09-0.32 0.3-0.4 0.78-0.18 1.16 0.64 1.11 1.36 2.23 2.12 3.34 0.15 0.22 0.38 0.37 0.65 0.41 0.26 0.03 0.52-0.05 0.73-0.22 2.27-1.83 5.9-4.18 8.53-5.5l4.4-2.22c0.4-0.17 0.62-0.6 0.54-1.02-0.09-0.43-0.45-0.74-0.88-0.76l-2.69-0.22c-0.44-0.03-0.87-0.06-1.34-0.06zm281.75 3.31c-0.18 0.03-0.63 0.35-0.5 0.22-0.01 0.01-0.03 0-0.03 0l-0.03 0.06c-0.05 0.03-0.06 0.03-0.1 0.07l-0.03 0.06h-0.03c-0.01 0.01 0.01 0.02 0 0.03l-0.06 0.03v0.03h-0.03c-0.03 0.03-0.01 0.07-0.04 0.1l-0.03 0.06c-0.38 0.45-0.69 0.95-0.68 1.53 0 0.64 0.34 1.24 0.87 1.81 1.08 1.18 3.08 2.47 6.28 4.22 1.51 0.83 2.94 1.76 4.28 2.78 0.22 0.17 0.49 0.23 0.75 0.18 0.27-0.06 0.5-0.22 0.63-0.46 0.86-1.45 1.68-3.15 2.53-5.03 0.18-0.39 0.06-0.86-0.28-1.12-3.49-2.66-6.17-3.32-10.38-2.82-0.68 0.08-1.2 0.12-1.62 0.13-0.4 0-0.58-0.03-0.69-0.06 0.01-0.07-0.01-0.11 0.09-0.38 0.05-0.11 0.05-0.14 0.07-0.19 0.11-0.3 0.06-0.64-0.14-0.89s-0.51-0.39-0.83-0.36zm42.97 3.88c-0.3 0.04-0.55 0.22-0.69 0.47-0.14 0.26-0.15 0.57-0.03 0.84 0.33 0.77 0.67 1.52 1 2.19l0.03 0.09 0.03 0.06c0.01 0.02 0.02 0.03 0.03 0.04l0.03 0.06c0.01 0.01 0.03 0.02 0.03 0.03v0.03c0.02 0.02 0.05 0.04 0.07 0.06v0.03c0.02 0.02 0.04 0.03 0.06 0.04l0.03 0.03 0.03 0.03h0.03c0.02 0.02 0.04 0.04 0.07 0.06 0.04 0.04 0.1 0.07 0.15 0.09 0.03 0.02 0.06 0.03 0.1 0.04 1.73 0.97 3.28 2.27 5.18 4.34 0.89 0.96 1.59 1.71 2.13 2.25 0.25 0.26 0.34 0.33 0.5 0.47 0.33 0.28 0.8 0.3 1.15 0.05 0.35-0.26 0.48-0.72 0.32-1.11-0.07-0.15-0.1-0.36-0.28-0.72-1.73-3.4-5.62-6.95-9.35-9.32-0.18-0.12-0.4-0.18-0.62-0.15zm-315.44 0.97c-2.29 0.05-4.69 0.58-7.25 1.62-1.84 0.75-4.24 2.91-6.53 5.25-0.35 0.35-0.36 0.92-0.03 1.28 1.37 1.45 2.89 2.91 4.53 4.32 0.37 0.3 0.91 0.27 1.25-0.07 2.97-3.03 6.74-5.51 11.19-7.37 1-0.42 1.75-0.84 2.31-1.22 0.28-0.19 0.51-0.4 0.69-0.59 0.17-0.2 0.35-0.4 0.4-0.79 0.05-0.33-0.17-0.76-0.25-0.87-0.14-0.19-0.37-0.37-0.65-0.53-0.54-0.3-1.21-0.5-2.13-0.69-0.83-0.17-1.69-0.31-2.56-0.34-0.33-0.01-0.65-0.01-0.97 0zm262.94 2.34c-0.71 0-1.37 0.37-1.72 1-0.34 0.61-0.33 1.44 0.12 2.19 0.15 0.25 0.17 0.23 0.22 0.28s0.12 0.09 0.19 0.16c0.14 0.13 0.34 0.31 0.56 0.5 0.45 0.37 1.03 0.83 1.72 1.34 1.38 1.03 3.2 2.28 5.09 3.53 1.65 1.09 2.97 2.03 4.19 2.94 0.33 0.25 0.79 0.25 1.13 0 1.46-1.09 2.69-2.02 3.62-2.72 0.88-0.66 1.46-1.06 1.85-1.28 0.26-0.15 0.44-0.43 0.46-0.73 0.03-0.31-0.1-0.61-0.34-0.8-0.89-0.76-1.84-1.48-2.91-2.22-1.61-1.13-2.83-1.89-4.09-2.28-1.26-0.4-2.52-0.42-4-0.22-2.36 0.31-3.66-0.03-4.25-0.75-0.51-0.63-1.21-0.94-1.84-0.94zm-321.32 4.13c-0.34 0.02-0.64 0.24-0.78 0.56-1 2.28-1.76 4.79-2.31 7.65-0.1 0.44 0.13 0.89 0.54 1.07 0.42 0.17 0.9 0.03 1.15-0.35 0.44-0.66 1.02-1.72 1.9-3.56 0.48-0.99 1-1.95 1.54-2.87 0.2-0.37 0.14-0.83-0.16-1.13-0.42-0.4-0.82-0.79-1.19-1.12-0.18-0.18-0.43-0.27-0.69-0.25zm312.47 1.84c-0.38 0-1.39 0.78-1 0.53-0.09 0.08-0.29 0.35-0.22 0.25h-0.03c0 0.01 0.01 0.03 0 0.03 0 0.01-0.02 0.02-0.03 0.03v0.03c-0.01 0.02-0.02 0.03-0.03 0.04-0.92 0.99-0.98 2.44-0.34 3.56 0.68 1.2 2.04 2.15 3.75 2.59 0.16 0.05 0.51 0.23 1.03 0.56 0.49 0.32 1.1 0.75 1.78 1.29 1.28 1 2.78 2.4 4.28 3.84 0.32 0.3 0.8 0.34 1.16 0.09 2.25-1.43 4.23-2.79 6-4.03 0.22-0.16 0.37-0.42 0.38-0.69 0.02-0.28-0.09-0.55-0.29-0.75-0.26-0.22-0.55-0.48-0.81-0.68-2.03-1.58-3.26-2.48-4.69-2.91s-2.92-0.34-5.31-0.09c-1.24 0.13-2.19 0.22-2.88 0.25-0.69 0.02-1.08-0.01-1.31-0.1-0.11-0.04-0.2-0.15-0.22-0.22-0.06-0.19-0.06-0.59-0.06-1.21 0-0.66-0.01-1.09-0.09-1.5-0.04-0.2-0.2-0.48-0.19-0.47-0.19-0.3-0.53-0.47-0.88-0.44zm-221.31 0.44c-0.43 0-0.74 0.13-1.16 0.31-0.41 0.18-0.86 0.41-1.37 0.75-0.25 0.16-0.44 0.26-0.63 0.41-0.32 0.23-0.46 0.64-0.34 1.02 0.11 0.38 0.45 0.64 0.84 0.66 0.11 0.01 0.32 0.03 0.63 0.03 0.59 0.01 1.12-0.16 1.59-0.37s0.9-0.4 1.22-0.94c0.1-0.16 0.08-0.28 0.13-0.44 0.06-0.12 0.12-0.25 0.12-0.25s0.03-0.31 0.03-0.31v-0.03c-0.01-0.04-0.06-0.15-0.06-0.16l-0.06-0.18-0.06-0.1s-0.1-0.1-0.13-0.12c-0.11-0.11-0.16-0.15-0.25-0.19-0.17-0.07-0.35-0.09-0.5-0.09zm-87.91 0.9c-0.3 0.04-0.57 0.23-0.71 0.5-2.46 4.47-4.27 9.81-4.16 13.47 0.02 0.56 0.01 0.88 0.03 1.25 0.01 0.34 0.2 0.64 0.5 0.8 0.3 0.15 0.66 0.13 0.94-0.05 0.15-0.1 0.27-0.24 0.34-0.4 0.01-0.02 0.02-0.05 0.03-0.07s0.03 0 0.03-0.03c0.2-0.58 0.44-1.34 0.75-2.37 1.17-3.78 2.75-7.32 4.5-10.35 0.21-0.36 0.15-0.82-0.15-1.12l-1.35-1.35c-0.19-0.2-0.47-0.3-0.75-0.28zm375.63 0c-0.27 0.03-0.52 0.17-0.67 0.4-0.16 0.22-0.21 0.5-0.14 0.76 0.29 1.2 0.5 2.51 0.62 3.91 0.04 0.25 0.17 0.47 0.38 0.62 2.82 2.22 4.94 4.9 5.43 7 0.36 1.52 1.23 3.93 2 5.5 0.39 0.77 0.77 1.45 1.1 1.97 0 0 0.03 0.06 0.12 0.19 0.26 0.32 0.71 0.44 1.09 0.28 0.39-0.16 0.62-0.56 0.57-0.97-0.09-0.52-0.26-1.19-0.5-1.94-0.46-1.44-1.12-4.48-1.44-6.62-0.62-4.15-3.51-7.87-7.94-10.94-0.18-0.12-0.4-0.18-0.62-0.16zm-308.78 0.16c-4.76 0.08-9.93 2.86-13.47 6.91-0.18 0.2-0.27 0.47-0.23 0.74 0.03 0.27 0.19 0.51 0.42 0.66 1.65 1.07 3.41 2.15 5.37 3.19 0.36 0.19 0.8 0.13 1.1-0.16 1.75-1.7 3.97-3.44 7.21-5.68 1.27-0.87 2.21-1.51 2.91-2.04 0.71-0.53 1.1-0.85 1.41-1.34 0.02-0.04 0.06-0.09 0.09-0.16 0.02-0.03 0.01-0.06 0.03-0.12 0.01-0.03 0.02-0.05 0.03-0.09 0.01-0.05 0.03-0.22 0.03-0.22s0.01-0.05 0-0.1 0.01-0.02 0-0.03h-0.03v-0.03s0.01-0.04 0-0.06-0.03-0.07-0.06-0.13c-0.03-0.05-0.05-0.12-0.09-0.18v-0.04s-0.08-0.05-0.13-0.09c-0.07-0.08-0.14-0.16-0.25-0.22-0.52-0.3-0.92-0.31-1.53-0.47-0.91-0.23-1.82-0.36-2.81-0.34zm23.28 2.37c-0.15 0.05-3.56 1.26-0.97 0.44-0.3 0.2-0.63 0.45-1 0.78-0.98 0.91-3.35 1.73-5.41 1.78-5.26 0.14-10.63 4.14-13.9 9.57-0.14 0.23-0.17 0.52-0.08 0.78s0.29 0.46 0.55 0.56c2.38 0.96 4.91 1.9 7.53 2.81 0.38 0.14 0.81 0.02 1.06-0.31 1.39-1.8 3.15-3.75 5.53-6.22 2.1-2.17 4-4.28 5.38-5.9 0.68-0.81 1.24-1.48 1.65-2.04 0.2-0.27 0.37-0.49 0.5-0.71 0.07-0.11 0.13-0.3 0.13-0.29 0.11-0.3 0.06-0.63-0.14-0.89-0.2-0.25-0.51-0.39-0.83-0.36zm-85.59 1.94c-0.29 0.04-0.55 0.22-0.69 0.47-0.98 1.67-1.77 3.5-2.35 5.5-0.89 3.12-1.42 6.05-1.53 8.38-0.05 1.16 0.02 2.16 0.19 2.96 0.17 0.83 0.47 1.44 1.06 1.82l-0.25-0.38-0.06-0.25s0.19-0.62 0.19-0.62l0.12-0.13 0.19-0.12 0.03-0.03s0.41 0.84 0.41 0.84-0.22-0.91-0.22-0.91 0.05 0.01 0.06 0l0.16 0.91 0.15 0.91c0.18-0.04 0.58-0.26 0.72-0.44 0.36-0.47 0.41-0.91 0.41-1.53 0-1.29 0.62-3.28 1.69-5.57 1.04-2.21 2.48-4.68 4.06-7.03 0.27-0.38 0.21-0.9-0.13-1.22-1.21-1.15-2.36-2.23-3.43-3.28-0.21-0.21-0.49-0.31-0.78-0.28zm291.56 2.56c-0.28 0.1-0.5 0.14-0.72 0.13-0.36 0.02-0.67 0.24-0.81 0.56 0.04-0.1-0.06 0.09-0.16 0.31-0.02 0.06-0.05 0.11-0.06 0.16-0.02 0.06 0 0.02 0 0.06-0.17 0.79 0.11 1.38 0.53 2.16 0.85 1.59 2.59 3.53 4.97 5.34 1.59 1.22 2.97 2.5 4.22 3.78 0.28 0.29 0.7 0.36 1.06 0.19 2.49-1.24 4.8-2.5 6.97-3.72 0.25-0.14 0.42-0.4 0.45-0.68 0.04-0.29-0.06-0.58-0.26-0.79-3.71-3.74-8.01-5.5-13.91-5.87-0.51-0.03-0.86-0.13-1.03-0.22 0.03-0.11 0.09-0.2 0.09-0.31 0-0.1-0.01-0.19-0.03-0.28-0.01-0.05-0.01-0.08-0.03-0.13-0.01-0.02-0.05-0.06-0.06-0.09-0.02-0.03-0.1-0.16-0.1-0.16s-0.06-0.07-0.09-0.09l-0.06-0.06c-0.04-0.03-0.08-0.05-0.1-0.07-0.04-0.02-0.06-0.01-0.09-0.03-0.05-0.02-0.1-0.07-0.16-0.09-0.12-0.04-0.25-0.08-0.43-0.1h-0.19zm-189.85 2c-0.09-0.15-2.69 1.56-0.96 0.54-0.44 0.36-0.92 0.86-1.54 1.53-0.5 0.55-1.09 1-1.56 1.25-0.19 0.1-0.39 0.16-0.56 0.18-0.26 0.05-0.11 0.05-0.13 0.04-0.41-0.26-0.79-0.29-1.21-0.29-0.43 0.01-0.89 0.06-1.41 0.19-1.03 0.26-2.21 0.72-3.41 1.31-2.4 1.19-4.87 2.84-6.18 4.54-0.58 0.74-1.21 1.9-1.88 3.12-0.14 0.25-0.15 0.55-0.04 0.81s0.33 0.46 0.6 0.53c2.66 0.78 5.43 1.53 8.25 2.25 0.37 0.09 0.75-0.06 0.97-0.37 1.53-2.2 3.49-4.84 6.38-8.5 1.45-1.84 2.48-3.43 3.09-4.59 0.29-0.56 0.49-0.97 0.59-1.38 0.08-0.29 0-0.61-0.19-0.84-0.2-0.23-0.5-0.35-0.81-0.32zm-95.15 1.63c-0.35 0.03-0.65 0.24-0.78 0.56-2.85 6.35-3.65 13.64-1.5 19.16l0.84 2.12c0.13 0.39 0.51 0.64 0.91 0.63 0.41-0.01 0.77-0.29 0.87-0.69l1.88-6.12c1.34-4.35 2.39-7.26 3.68-9.72 0.21-0.38 0.13-0.84-0.18-1.13-1.77-1.57-3.46-3.1-5.03-4.56-0.19-0.17-0.44-0.26-0.69-0.25zm272.78 0.69c-0.29-0.02-1.26 0.66-0.84 0.4-0.14-0.16-0.33-0.27-0.54-0.31h-0.03c-0.03-0.01-0.06-0.02-0.09-0.03h-0.09c-0.11 0.01-0.22 0.04-0.32 0.09h-0.03c-0.04 0.01-0.09 0.03-0.09 0.03-0.3 0.16-0.5 0.48-0.5 0.82l0.12 0.47s0.13 0.15 0.22 0.25c-0.18 0.22-0.44 0.43-0.56 0.68-0.27 0.57-0.3 1.27-0.13 1.88 0.38 1.31 1.48 2.59 3.41 4.5 1.84 1.82 3.41 3.75 4.66 5.75 0.23 0.38 0.71 0.53 1.12 0.37 2.76-1.05 5.36-2.18 7.85-3.28 0.24-0.1 0.42-0.31 0.51-0.56 0.08-0.25 0.05-0.52-0.08-0.75-0.61-1.02-1.3-2.02-2-2.81-1.15-1.32-2.05-2.14-3.15-2.63-1.11-0.49-2.35-0.61-4.03-0.56-1.07 0.03-1.96-0.04-2.5-0.16-0.26-0.05-0.29-0.06-0.35-0.09 0.05-0.3 0.14-0.62 0-0.84-0.11-0.19-0.33-0.37-0.53-0.44-0.2-0.08-0.39-0.1-0.56-0.1-0.05 0-0.14-0.02-0.22-0.15-0.11-0.17-0.19-0.48-0.19-0.85 0-0.44 0.01-0.65-0.12-1.06-0.14-0.39-0.52-0.65-0.94-0.62zm-0.69 1.47c0.15 0 0.85 0.03 0.85 0.03l-0.1 0.37-0.12 0.22s-0.09 0.09-0.1 0.09l-0.53-0.71zm92.94 0.25c-0.45 0.04-0.8 0.39-0.84 0.84-0.19 1.82-0.4 3.61-0.72 5.28-0.06 0.26 0 0.54 0.15 0.75 1.02 1.35 1.89 2.86 2.66 4.56 1.27 2.84 2.52 4.96 3.44 6 0.21 0.25 0.46 0.4 0.47 0.41 0.25 0.18 0.57 0.22 0.85 0.11 0.29-0.11 0.51-0.35 0.58-0.64-0.03 0.08-0.01-0.04 0-0.1l0.03-0.03c0.03-0.12 0.04-0.26 0.04-0.37-0.03-0.38-0.13-0.74-0.25-1.22-0.14-0.53-0.16-1.05-0.13-1.34 0.01-0.1 0.02-0.1 0.03-0.13 0.18-0.06 0.33-0.17 0.44-0.31 0.03-0.04 0.14-0.16 0.19-0.35 0.05-0.18 0.03-0.22 0.03-0.21 0.04-0.4-0.03-0.71-0.13-1.16-0.19-0.9-0.59-2.06-1.12-3.34-1.07-2.57-2.65-5.57-4.16-7.57-0.24-0.32-0.53-0.6-0.78-0.87-0.2-0.22-0.49-0.34-0.78-0.31zm-250.09 0.96c0.18-0.1-3.71 1.27-0.85 0.29-0.54 0.23-1.16 0.57-1.84 0.93-1.38 0.75-3.05 1.73-4.75 2.91-3.91 2.71-6.8 5.42-9.13 8.62-0.19 0.26-0.23 0.6-0.12 0.89 0.12 0.3 0.37 0.52 0.69 0.58 2.69 0.58 5.41 1.15 8.21 1.69 0.4 0.09 0.8-0.09 1-0.44 1.27-2.18 2.48-4.14 3.44-5.31 1.9-2.3 3.03-3.77 3.47-4.94 0.22-0.57 0.39-1.06-0.06-1.65-0.23-0.3-0.45-0.39-0.69-0.47-0.07-0.03-0.17-0.02-0.25-0.03 0.13-0.14 0.17-0.24 0.47-0.47 0.61-0.47 0.9-0.77 1.12-1 0.28-0.28 0.36-0.69 0.2-1.05-0.16-0.35-0.53-0.57-0.91-0.55zm158.78 0.88l1.59 0.91c0.01-0.01 0.06-0.05-0.03 0.09-0.03 0.04-0.05 0.12-0.25 0.25-0.05 0.03-0.13 0.07-0.22 0.09-0.08 0.03-0.31 0.03-0.31 0.03s-0.38-0.09-0.38-0.09l-0.28-0.19s-0.09-0.15-0.12-0.22c-0.04-0.06-0.08-0.1-0.1-0.15-0.02-0.1-0.03-0.18-0.03-0.25s0.02-0.12 0.03-0.19l0.03-0.12c0.02-0.05 0.07-0.16 0.07-0.16zm-20.41 2.69c-0.42-0.66-3.2 4.47-1.22 1.47 0 0.01-0.03 0.02-0.03 0.03-0.14 0.12-0.24 0.29-0.28 0.47-0.13 0.48-0.08 0.88 0 1.43 0.08 0.56 0.22 1.22 0.44 1.94 0.42 1.42 1.09 3.09 1.9 4.75 0.73 1.49 1.37 3.08 1.88 4.72 0.15 0.46 0.62 0.73 1.09 0.62 3.42-0.82 6.67-1.71 9.81-2.65 0.26-0.08 0.47-0.27 0.58-0.51 0.1-0.25 0.1-0.53-0.01-0.77-1.84-4.04-4.07-7.23-6.63-8.25-1.37-0.55-3.71-1.61-5.09-2.35-0.58-0.3-1.03-0.57-1.47-0.75-0.42-0.16-0.87-0.16-0.97-0.15zm-118.37 2.22c-0.83 0.13-1.5 0.59-2.32 1.37-0.51 0.49-1.24 0.99-1.93 1.31-0.71 0.34-1.36 0.5-1.82 0.5-0.74 0-1.48 0.25-2.18 0.6-0.71 0.34-1.36 0.78-1.85 1.37-0.95 1.16-2.29 3.49-3.65 6.16-0.14 0.26-0.14 0.58 0 0.85 0.13 0.26 0.39 0.45 0.68 0.49 3.22 0.51 6.51 1.02 9.82 1.47 0.38 0.05 0.76-0.15 0.93-0.5 0.16-0.28 0.33-0.54 0.5-0.84 1.71-2.9 2.62-4.7 3.07-6.07 0.43-1.34 0.25-2.46-0.29-3.34-0.33-0.54-0.37-0.78-0.4-0.97 0.15-0.02 0.3-0.05 0.44-0.12 0.09-0.05 0.2-0.11 0.28-0.19s0.13-0.11 0.22-0.31c0.24-0.55 0.11-0.86-0.13-1.25-0.21-0.36-0.5-0.47-0.72-0.53s-0.43-0.04-0.65 0zm-123.41 1.09c-0.35 0.03-0.66 0.26-0.78 0.59-2.36 5.66-2.95 12.18-0.75 16.91l1.37 2.94c0.18 0.36 0.56 0.56 0.96 0.51 0.39-0.05 0.71-0.34 0.79-0.73l1.5-7.16c0.61-2.88 1.3-5.49 1.88-7.44 0.09-0.01 0.2-0.02 0.22-0.03 0.01 0 0.04-0.02 0.06-0.03s0.04 0.01 0.06 0c0.02 0 0.03-0.03 0.03-0.03s0.4-0.24 0.41-0.25 0.02-0.01 0.03-0.03l0.06-0.06s0.21-0.28 0.22-0.32c0.01-0.01 0-0.01 0-0.03l0.03-0.03 0.1-0.4v-0.19h-0.66c-0.01-0.29-0.15-0.55-0.37-0.72l-0.04-0.22c-0.2 0.03-0.3 0.06-0.34 0.06h-0.03l-0.03-0.03-0.22-0.03h-0.06c-0.01 0-0.03 0.01-0.03 0-1.27-1.02-2.52-2.05-3.72-3.06-0.19-0.16-0.44-0.24-0.69-0.22zm222.5 1.09c-0.52 0.05-1.96 0.62-1.47 0.47 1.03 0.39 0.71-0.04 1 0.75-0.02 0.78 0.03 0.34-0.16 0.66l-0.71-0.6-0.79-0.5c-0.25 0.42-0.28 0.8-0.28 1.22 0.01 0.43 0.08 0.9 0.19 1.5 0.29 1.64 1.37 5.27 2.47 8.32 0.22 0.62 0.44 1.46 0.66 2.34 0.1 0.47 0.55 0.78 1.03 0.72 3.27-0.41 6.47-0.93 9.56-1.47 0.25-0.04 0.47-0.19 0.62-0.4 0.14-0.21 0.19-0.48 0.13-0.73-0.88-3.58-1.91-6.19-3.28-7.87-1.4-1.71-3.28-2.38-5.31-1.97-0.49 0.1-0.9 0.14-1.19 0.16-0.21 0.01-0.22 0.01-0.28 0 0-0.07-0.01-0.13 0.06-0.32 0.11-0.3 0.17-0.61 0.16-0.87-0.04-0.42-0.13-0.61-0.44-0.91-0.58-0.53-1.08-0.5-1.91-0.5h-0.06zm-18.78 2.25l0.03 0.1c-0.12 0.02-0.3-0.04-0.38 0-0.17 0.08-0.26 0.17-0.34 0.25-0.17 0.16-0.28 0.29-0.41 0.47-0.25 0.35-0.49 0.78-0.68 1.12-0.1 0.17-0.19 0.31-0.25 0.44-0.03 0.06-0.07 0.11-0.1 0.19-0.01 0.03-0.01 0.1-0.03 0.18-0.01 0.05-0.03 0.1-0.03 0.22v0.1c0.01 0.04 0.03 0.18 0.03 0.18l0.1 0.22 0.25 0.25c0.01 0.42 0.02 0.86 0.15 1.28 0.05 0.15 0.1 0.51 0.16 1.07 0.05 0.52 0.09 1.18 0.12 1.96 0.07 1.47 0.11 3.33 0.1 5.22 0 0.26 0.1 0.5 0.28 0.68s0.43 0.27 0.69 0.26c0.37-0.01 0.73-0.02 1.09-0.03 2.97-0.09 5.8-0.27 8.62-0.47 0.5-0.03 0.88-0.44 0.88-0.94 0.04-3.15-0.28-5.36-1.13-6.97-0.86-1.65-2.34-2.6-4.28-3.12-0.71-0.19-1.46-0.52-2.09-0.88-0.65-0.36-1.09-0.69-1.22-0.9-0.17-0.28-0.36-0.52-0.62-0.69-0.1-0.06-0.23-0.02-0.35-0.06v-0.03c-0.05-0.03-0.07 0.01-0.12 0-0.17-0.04-0.31-0.12-0.47-0.1zm-59.85 0.72c-0.74-0.01-1.44 0.26-2.34 0.72s-1.93 1.13-3.19 2c-1.95 1.35-3.89 3.71-5.56 6.44-0.18 0.27-0.2 0.62-0.06 0.91s0.42 0.49 0.75 0.53c3.22 0.35 6.42 0.67 9.69 0.96 0.43 0.04 0.84-0.23 0.96-0.65 0.59-1.8 1.15-3.76 1.38-5.44 0.22-1.62 0.27-2.84 0.09-3.78-0.08-0.45-0.22-0.87-0.53-1.19-0.25-0.26-0.75-0.49-1.19-0.5zm38.5 0.69c-0.54 0.14-0.86 0.58-0.71 0.47-0.18 0.17-0.28 0.41-0.29 0.65v0.1c-1.56 5.07-2.3 7.8-2.71 10.59-0.04 0.27 0.04 0.53 0.21 0.74 0.17 0.2 0.42 0.32 0.69 0.32 3.33 0.07 6.68 0.1 10 0.1 0.49 0 0.89-0.36 0.94-0.85 0.28-2.54 0.39-4.14-0.38-5.65-0.79-1.56-2.33-2.83-5.21-5.22-0.51-0.41-0.94-0.74-1.35-0.97-0.32-0.18-0.6-0.18-0.9-0.19-0.01-0.01-0.04-0.09-0.04-0.09h-0.06v0.06h-0.03v-0.06h-0.06c-0.02 0-0.04-0.01-0.1 0zm167.91 0.5c-0.26 0.03-0.5 0.16-0.66 0.37-0.69 0.92-1.83 2.02-3.4 3.29-0.36 0.3-0.44 0.82-0.19 1.21 0.73 1.17 1.4 2.34 1.94 3.54 0.48 1.05 0.99 2.11 1.5 2.96 0.26 0.45 0.55 0.85 0.75 1.13 0.23 0.32 0.45 0.53 0.65 0.69 0.75 0.55 1.38 0.86 2.1 0.68 0.3-0.07 0.69-0.36 0.84-0.59 0.15-0.22 0.3-0.59 0.38-1 0.28-1.58-0.08-4-1-7.47-0.4-1.49-1.13-2.94-2.03-4.37-0.19-0.3-0.53-0.47-0.88-0.44zm-188.37 4.34c-2.09-0.07-4.25 0.22-5.66 1.16-1.29 0.86-2.26 2.45-3.13 4.41-0.12 0.27-0.1 0.59 0.05 0.86 0.16 0.26 0.43 0.43 0.74 0.45 3.73 0.26 7.49 0.44 11.25 0.62 0.45 0.01 0.84-0.3 0.93-0.75 0.26-1.2 0.47-2.29 0.6-3.09 0.07-0.42 0.16-0.76 0.18-1.09 0.02-0.17 0.01-0.28 0-0.38v-0.03c0.01-0.19-0.05-0.37-0.15-0.53-0.44-0.66-1.1-0.91-1.91-1.16-0.83-0.26-1.86-0.43-2.9-0.47zm-147.88 1.22c-0.45 0.03-0.82 0.37-0.87 0.81-0.04 0.22-0.05 0.37-0.04 0.57 0.01 0.04 0.09 0.13 0.1 0.18-0.06 0.13-0.04 0.13-0.13 0.32-0.04 0.09-0.07 0.18-0.09 0.28-0.01 0.15-0.01 0.16 0 0.03-0.71 7.72-0.44 9.88 2.22 16.25 0.51 1.22 0.89 2.03 1.4 2.59 0.12 0.13 0.24 0.23 0.38 0.32 0.07 0.04 0.15 0.09 0.25 0.12s0.14 0.09 0.47 0.03 0.12-0.02 0.15-0.03 0.05-0.02 0.07-0.03c0.03-0.01 0.04-0.02 0.06-0.03 0.04-0.02 0.09-0.04 0.12-0.06 0.07-0.05 0.1-0.07 0.16-0.13 0.12-0.11 0.26-0.27 0.38-0.47 0.42-0.72 0.69-1.79 1.06-3.47 0.37-1.67 0.76-3.89 1.25-6.81 0.26-1.57 0.61-3.1 0.97-4.59 0.09-0.39-0.08-0.79-0.41-1-2.37-1.55-4.67-3.1-6.91-4.69-0.17-0.13-0.38-0.19-0.59-0.19zm327.41 1.72c-0.15 0.02-0.29 0.07-0.41 0.16-1.35 0.9-2.85 1.84-4.44 2.81-0.22 0.14-0.37 0.36-0.41 0.62-0.05 0.25 0.01 0.52 0.16 0.72 1.28 1.64 2.03 3.12 2.03 3.91 0 0.82 0.37 1.54 0.85 2.47 0.48 0.92 1.11 1.92 1.84 2.81 0.94 1.14 1.68 1.93 2.35 2.47 0.33 0.27 0.57 0.47 1 0.62 0.17 0.07 0.44 0.12 0.68 0.07 0.25-0.06 0.34-0.16 0.35-0.16 0.24-0.13 0.54-0.39 0.68-0.81 0.13-0.38 0.17-0.75 0.19-1.19 0.05-0.91-0.05-2.07-0.25-3.59-0.54-4.18-1.72-7.55-3.72-10.5-0.2-0.3-0.55-0.46-0.9-0.41zm-13.47 8.03c-0.11 0.02-0.22 0.07-0.31 0.13-1.97 1.08-4.01 2.21-6.1 3.31-0.22 0.12-0.39 0.32-0.46 0.56s-0.04 0.5 0.09 0.72c0.57 1.02 1.14 2.07 1.72 3.34 0.77 1.73 1.73 3.47 2.65 4.91 0.93 1.45 1.76 2.52 2.56 3.09 0.52 0.38 0.89 0.69 1.29 0.91 0.2 0.12 0.38 0.21 0.56 0.25 0.07 0.02 0.19-0.01 0.25 0 0.05 0.02 0.04 0.03 0.19 0.03 0.02 0 0.03-0.03 0.06-0.03 0.27-0.04 0.59-0.21 0.69-0.34 0 0 0.07-0.12 0.09-0.16s0.02-0.07 0.03-0.09c0.02-0.05 0.03-0.08 0.03-0.1 0.01-0.04 0-0.05 0-0.06 0.01-0.02 0.03-0.02 0.03-0.03 0.01-0.02-0.01-0.05 0-0.09 0.11-0.33 0.23-0.78 0.32-1.35 0.08-0.57 0.23-1.24 0.43-1.81 0.21-0.58 0.44-1.02 0.6-1.22 0.13-0.17 0.13-0.22 0.15-0.28 0.03-0.07 0.05-0.12 0.07-0.19 0.03-0.14 0.06-0.31 0.06-0.5-0.01-0.39-0.11-0.66-0.19-1.03-0.17-0.77-0.44-1.75-0.84-2.84-0.78-2.09-1.92-4.54-3.03-6.63-0.18-0.34-0.56-0.54-0.94-0.5zm-296.85 1.13c-0.47 0.04-0.83 0.43-0.84 0.9-0.18 6.4 1.31 13.01 4.63 16.75 0.54 0.62 0.99 0.99 1.43 1.22 0.09 0.05 0.17 0.09 0.25 0.13 0.04 0.02 0.1 0.04 0.16 0.06s0.11 0.08 0.37 0.06c0.17-0.01 0.64-0.21 0.79-0.37 0.42-0.49 0.46-0.93 0.53-1.66 0.06-0.7 0.04-1.61-0.03-2.72-0.15-2.27 0.2-5.87 0.87-9.5 0.07-0.4-0.13-0.81-0.5-1-2.41-1.19-4.77-2.45-7.09-3.75-0.17-0.1-0.37-0.14-0.57-0.12zm282.25 6.5c-0.12 0.01-0.23 0.04-0.34 0.09-2.44 1.2-4.91 2.4-7.41 3.56-0.25 0.13-0.44 0.37-0.5 0.65s0.01 0.57 0.19 0.79c1.27 1.5 2.11 2.85 2.81 4.38 0.63 1.34 1.38 2.76 2.07 3.96 0.69 1.21 1.27 2.16 1.75 2.72 1.02 1.22 2.1 1.92 3.25 1.88 1.14-0.04 2.1-0.89 2.78-2.19 0.46-0.89 0.61-2.02 0.56-3.37s-0.33-2.84-0.72-4.35c-0.77-2.99-2.03-6.03-3.69-7.81-0.18-0.21-0.46-0.33-0.75-0.31zm-263.15 2.53c-0.25 0.03-0.48 0.16-0.63 0.36-0.16 0.2-0.22 0.45-0.18 0.7 0.12 0.94 0.29 1.91 0.46 2.94 1.01 5.93 2.37 9.78 6.07 17 0.28 0.55 0.52 0.96 0.72 1.28 0.05 0.1 0.11 0.19 0.18 0.28 0.18 0.22 0.46 0.35 0.75 0.34 0.28 0 0.55-0.14 0.72-0.37-0.03 0.04 0-0.03 0.03-0.06l0.03-0.03c0.04-0.06 0.07-0.11 0.1-0.16 0.13-0.27 0.3-0.69 0.5-1.22 0.16-0.45 0.25-0.98 0.34-1.81 0.1-0.83 0.17-1.86 0.25-3.06 0.16-2.41 0.26-5.45 0.28-8.54 0.01-1.27 0.05-2.45 0.1-3.62 0-0.41-0.26-0.78-0.66-0.91-1.58-0.51-3.14-1.06-4.66-1.59-0.34-0.13-0.73-0.04-0.98 0.22-0.26 0.27-0.34 0.66-0.2 1-0.2-0.2-0.43-0.4-0.69-0.72-0.3-0.37-0.44-0.6-0.53-0.75 0-0.39-0.24-0.73-0.6-0.88-0.33-0.12-0.65-0.23-0.93-0.34-0.15-0.06-0.31-0.08-0.47-0.06zm244.97 5.78c-0.11 0.01-0.22 0.04-0.32 0.09-2.88 1.23-5.74 2.38-8.56 3.47-0.26 0.11-0.46 0.32-0.54 0.59-0.09 0.26-0.05 0.55 0.1 0.79 0.61 0.97 1.19 1.96 1.82 3.09 0.84 1.53 1.88 3.13 2.9 4.5s1.96 2.49 2.75 3.13c0.75 0.6 1.36 1.04 1.91 1.31 0.25 0.12 0.46 0.21 0.78 0.25 0.32 0.03 0.71-0.07 0.94-0.22 0.56-0.36 0.84-0.87 1.15-1.66 0.32-0.77 0.6-1.77 0.97-3.06 0.49-1.69 0.75-2.87 0.63-4.12-0.12-1.26-0.61-2.45-1.44-4.16-0.54-1.12-1.4-2.37-2.28-3.59-0.18-0.27-0.49-0.42-0.81-0.41zm-221.47 1.75c-0.25 0.03-0.48 0.16-0.63 0.36-0.16 0.2-0.22 0.45-0.18 0.7 0.09 0.76 0.22 1.54 0.34 2.31 0.53 3.32 1.44 6.83 2.44 9.6 0.49 1.38 1.01 2.6 1.5 3.47 0.26 0.47 0.53 0.79 0.75 1.03 0.11 0.12 0.22 0.22 0.34 0.31s0.15 0.25 0.66 0.25c-0.05 0-0.07-0.05 0 0.06 0.06 0.13 0.12 0.4 0.12 0.72 0 0.3 0.05 0.63 0.22 0.91s0.45 0.46 0.69 0.56c0.58 0.26 1.14 0.19 1.84 0 0.49-0.13 0.84-0.12 1.03-0.06 0.08 0.02 0.11 0.05 0.13 0.06 0 0.43 0.17 0.75 0.19 0.78 0.14 0.42 0.56 0.68 1 0.62 0.45-0.06 0.78-0.42 0.81-0.87 0.01-0.12 0.02-0.22 0.03-0.44 0.04-0.71 0.06-1.75 0.06-3 0-2.49-0.08-5.9-0.25-9.68-0.07-1.5-0.11-2.86-0.15-4.16-0.02-0.42-0.31-0.78-0.72-0.87-1.07-0.28-2.13-0.52-3.16-0.79-0.5-0.12-1 0.19-1.12 0.69-0.03-0.13-0.08-0.31-0.1-0.44-0.05-0.37-0.32-0.68-0.69-0.78-1.61-0.43-3.21-0.87-4.78-1.31-0.12-0.03-0.25-0.05-0.37-0.03zm6.06 3.28c0.16 0.34 0.19 0.6 0.28 0.91-0.07-0.2-0.16-0.29-0.22-0.53-0.04-0.16-0.03-0.24-0.06-0.38zm193.94 3.06c-0.07 0.02-0.13 0.04-0.19 0.07-1.96 0.61-3.85 1.14-5.66 1.62-1.25 0.34-2.51 0.66-3.78 0.97-0.3 0.07-0.55 0.29-0.66 0.59s-0.06 0.63 0.13 0.88c1.2 1.65 2.18 3.23 2.78 4.53 0.97 2.08 3.36 5.04 5.44 6.91l3.31 2.96c0.23 0.21 0.54 0.3 0.84 0.23s0.55-0.28 0.66-0.57l1.1-2.78c1.75-4.39 0.34-9.85-3.1-15-0.19-0.29-0.53-0.44-0.87-0.41zm-174.38 0.13c-0.29 0.01-0.55 0.16-0.72 0.4s-0.21 0.54-0.12 0.82c1.58 5.32 3.64 10.13 5.91 13.53 1.45 2.18 2.95 4.87 3.31 5.75 0.3 0.74 0.69 1.26 1.19 1.56 0.44 0.28 1.24 0.31 1.71 0.03 0.56-0.33 0.93-0.86 1.29-1.53 0.35-0.67 0.67-1.51 0.93-2.53 0.67-2.63 0.31-6.46-1.12-13.66-0.08-0.37-0.15-0.75-0.22-1.12-0.08-0.36-0.36-0.64-0.72-0.72-3.74-0.8-7.45-1.64-11.16-2.5-0.09-0.02-0.18-0.04-0.28-0.03zm29.22 5.78l-0.4 0.22c-0.44-0.08-0.87 0.15-1.04 0.56l-0.21 0.13 0.03 0.03s0.13-0.05 0.15-0.07c-0.04 0.18-0.03 0.37 0.03 0.54 1.18 3.66 2.42 7.12 3.66 9.56 1.47 2.87 2.42 4.54 3.47 5.75 1.04 1.2 2.19 1.86 3.91 2.62 0.93 0.42 1.61 0.67 2.31 0.66 0.32 0 0.67-0.1 0.97-0.28 0.29-0.18 0.5-0.43 0.65-0.66 0.39-0.59 0.48-1.23 0.5-2.22 0.03-0.96-0.04-2.19-0.22-3.59-0.35-2.75-1.09-6.29-2.09-10.28-0.09-0.36-0.39-0.63-0.75-0.69-3.67-0.62-7.41-1.31-11.22-2.03 0.08-0.04 0.28-0.16 0.28-0.16s-0.03-0.02-0.03-0.03v-0.03c0.01 0.01 0-0.03 0-0.03zm119.75 0.09c-0.03 0.01-0.06 0.02-0.09 0.03-3.86 0.69-7.69 1.29-11.41 1.82-0.31 0.04-0.59 0.23-0.72 0.51-0.14 0.29-0.13 0.62 0.03 0.89 2.75 4.7 6.12 9.7 8.29 11.75 1.07 1.02 1.93 1.76 2.62 2.32 0.69 0.55 1.17 0.93 1.78 1.09 0.22 0.06 0.55 0.12 0.88 0.03s0.55-0.28 0.72-0.44c0.43-0.41 0.68-0.93 1.03-1.59 2.32-4.43 1.34-10.08-2.28-15.97-0.18-0.29-0.51-0.46-0.85-0.44zm-24.03 3.44c-4.01 0.46-7.87 0.84-11.56 1.22-0.31 0.03-0.58 0.21-0.73 0.47-0.15 0.27-0.16 0.6-0.02 0.87 2.56 5.51 4.86 8.97 7.31 10.85 1.13 0.86 2.04 1.49 2.81 1.93 0.77 0.45 1.39 0.74 2.13 0.69 0.66-0.04 1.26-0.51 1.65-1.06 0.41-0.57 0.76-1.33 1.1-2.31 0.69-2.03 1.04-4.04 1.06-5.6 0.01-0.77-0.04-1.39-0.25-1.97-0.12-0.32-0.3-0.58-0.47-0.75-0.15-0.14-0.61-0.34-0.84-0.34 0.02 0-0.06-0.02-0.16-0.19-0.12-0.19-0.19-0.44-0.19-0.78 0-0.43-0.12-0.74-0.28-1.15s-0.38-0.88-0.65-1.38c-0.18-0.33-0.53-0.53-0.91-0.5zm-69.84 1.13c-0.27 0.02-0.52 0.15-0.68 0.37-0.16 0.21-0.22 0.49-0.17 0.75 0.09 0.45 0.26 0.98 0.6 1.63 0.41 0.79 0.97 1.66 1.62 2.4 1.19 1.35 2.6 3.27 3.13 4.19 0.42 0.75 1.14 1.26 2.09 1.84 0.95 0.59 2.08 1.09 3.19 1.44 1.06 0.34 2.11 0.67 2.94 0.91 0.41 0.12 0.77 0.2 1.06 0.28 0.28 0.08 0.38 0.15 0.65 0.19 0.26 0.03 0.4-0.04 0.5-0.07 0.06-0.01 0.1-0.01 0.13-0.03 0.02 0 0.02-0.02 0.03-0.03 0.01 0 0.02 0.01 0.03 0 0.01 0 0.02-0.03 0.03-0.03s0.1-0.06 0.1-0.06c0.03-0.02 0.36-0.31 0.47-0.57 0.21-0.54 0.17-0.96 0.12-1.53-0.09-1.13-0.52-2.48-1.22-3.78-0.61-1.13-1.24-2.92-1.37-3.72-0.06-0.33-0.14-0.57-0.28-0.93-0.15-0.36-0.34-0.77-0.54-1.22-0.13-0.31-0.41-0.53-0.75-0.57-3.63-0.41-7.45-0.89-11.5-1.46-0.06-0.01-0.12-0.01-0.18 0zm40.25 2.15c-0.85 0.12-1.71 0.28-2.5 0.41-1.86 0.3-4.48 0.37-7.66 0.31-0.32-0.01-0.62 0.15-0.8 0.42-0.18 0.26-0.21 0.6-0.07 0.89 0.28 0.66 0.55 1.31 0.62 1.6 0.4 1.62 1.71 3.79 3.03 5.25 1.19 1.31 2.71 3.44 3.31 4.59 0.46 0.88 1.03 1.56 1.79 1.94 0.73 0.37 1.56 0.46 2.59 0.34 0.58-0.07 1.07-0.14 1.53-0.31 0.45-0.16 0.84-0.45 1.09-0.81 0.56-0.79 0.6-1.72 0.6-3.28 0-0.92 0.09-1.96 0.25-2.82 0.16-0.88 0.36-1.54 0.53-1.81 0.36-0.57 0.51-1.39 0.25-2-0.29-0.69-0.82-1.14-1.63-1.69-0.52-0.35-1.05-0.84-1.4-1.25-0.17-0.19-0.25-0.33-0.35-0.5-0.11-0.2-0.09-0.16-0.09-0.18 0 0-0.03-0.14-0.03-0.16v-0.09c-0.01-0.04-0.02-0.08-0.03-0.13-0.11-0.47-0.56-0.78-1.03-0.72zm-26.69 12.1c-0.19 0.03-0.36 0.11-0.5 0.25-0.36 0.32-0.57 0.31-0.88 0.84-0.15 0.26-0.18 0.68-0.12 0.91 0.06 0.22 0.14 0.36 0.22 0.53 0.02 0.06 0.05 0.13 0.09 0.18 0.23 0.31 0.26 0.37 0.41 0.57 0.07 0.09 0.23 0.24 0.34 0.31s0.17 0.09 0.25 0.12c0.25 0.13 0.54 0.13 0.8 0.02 0.25-0.12 0.44-0.34 0.51-0.61 0.08-0.26 0.14-0.38 0.07-0.25-0.04 0.06-0.11 0.36-0.69 0.41-0.29 0.02-0.59-0.12-0.72-0.25s-0.16-0.25-0.19-0.32c-0.02-0.06-0.05-0.1-0.06-0.12l1.84-0.38v-0.5c0.01-0.09 0-0.18-0.03-0.28-0.01-0.06-0.02-0.04-0.03 0 0 0.05 0 0.11 0.03-0.09 0.02-0.1 0.04-0.29-0.03-0.5s-0.21-0.35-0.31-0.44c-0.19-0.17-0.28-0.23-0.44-0.31-0.17-0.09-0.37-0.12-0.56-0.09zm-2.78 151.5c-1.58 0.81-0.17-0.7-1.53 1.03-0.41 0.55-0.81 1.31-1.22 2.25-0.56 1.28-0.89 2.37-0.88 3.65 0.02 1.31 0.35 2.76 0.94 4.97 0.15 0.56 0.29 1.15 0.44 1.75 0.09 0.36 0.38 0.63 0.75 0.69 3.07 0.49 5.8 0.91 8.75 1.37 0.34 0.06 0.68-0.07 0.89-0.35 0.21-0.27 0.25-0.64 0.11-0.96-0.22-0.47-0.42-0.88-0.63-1.37-1.88-4.53-3.31-7.68-4.43-9.75-0.57-1.04-1.04-1.82-1.54-2.38-0.48-0.53-0.97-0.93-1.65-0.9zm-28.97 1c-0.66 0.05-1.31 0.31-1.94 0.71-1.03 0.67-1.51 1.91-1.65 3.5-0.14 1.54 0.06 3.44 0.46 5.5 0.09 0.43 0.45 0.74 0.88 0.75 2.77 0.11 5.57 0.27 8.37 0.47 0.36 0.03 0.69-0.15 0.87-0.45 0.18-0.31 0.17-0.69-0.02-0.98-1.37-2.17-2.6-4.56-2.85-5.57-0.3-1.25-0.82-2.24-1.53-2.93-0.7-0.69-1.63-1.08-2.59-1zm-29.94 0.18c-0.88 0.08-1.68 0.56-2.5 1.32-0.75 0.7-1.26 1.5-1.44 2.43-0.17 0.95-0.05 1.99 0.25 3.5 0.22 1.06 0.46 2.05 0.69 3 0.11 0.45 0.52 0.75 0.97 0.72 2.6-0.21 5.25-0.39 7.91-0.53 0.32-0.02 0.61-0.2 0.77-0.49 0.15-0.29 0.14-0.63-0.02-0.92-1.39-2.29-2.7-4.4-3.66-5.9-0.52-0.81-0.98-1.47-1.31-1.94-0.16-0.22-0.27-0.41-0.41-0.59-0.16-0.2-0.22-0.26-0.4-0.38-0.11-0.06-0.59-0.24-0.85-0.22zm87.44 1.72c-0.82 0-1.58 0.52-2.03 1.19-0.47 0.69-0.76 1.63-0.94 2.78-0.35 2.3-0.2 5.43 0.5 9.16 0.14 0.72 0.27 1.43 0.38 2.09 0.07 0.38 0.36 0.68 0.75 0.75 3.04 0.48 5.97 0.94 8.9 1.41 0.33 0.05 0.67-0.07 0.88-0.33s0.27-0.61 0.15-0.92c-1.76-4.63-3.42-8.55-4.81-11.32-0.72-1.44-1.39-2.56-1.97-3.37-0.28-0.39-0.46-0.69-0.78-0.97-0.28-0.25-0.5-0.47-1.03-0.47zm-114.59 1.28c-0.52 0-0.98 0.15-1.41 0.35-0.45 0.2-0.95 0.37-1.34 0.47-0.17 0.03-0.35 0.04-0.54 0.06-0.21 0.02-0.21 0.03-0.21 0.03-0.39-0.08-0.55-0.08-0.91 0.09-0.01 0.01-0.02 0-0.03 0-0.04 0.02-0.16 0.1-0.16 0.1l-0.22 0.18c0 0.01-0.12 0.29-0.12 0.29l-0.06 0.21v0.1c0 0.04-0.01 0.08 0 0.09 0 0.03 0.03 0.03 0.03 0.03 0.01 0.16 0.03 0.26 0.06 0.41 0.04 0.19 0.08 0.44 0.16 0.72 0.14 0.55 0.34 1.27 0.59 2.09 0.48 1.59 1.16 3.58 1.84 5.6 0.16 0.42 0.59 0.67 1.03 0.59 2.69-0.48 5.43-0.9 8.19-1.31 0.32-0.04 0.59-0.23 0.73-0.52 0.14-0.28 0.12-0.62-0.04-0.89-0.82-1.38-1.61-2.66-1.88-3.19-0.87-1.74-1.78-3.07-2.71-4-0.93-0.92-1.94-1.48-3-1.5zm-26.79 2.72c-1.03 0.46-0.87 0.3-1.43 0.91-0.18 0.2-0.38 0.56-0.35 0.97 0.02 0.18 0.12 0.26 0.19 0.4-0.11 1.31 0.01 3.24 0.28 6.57 0.15 1.83 0.4 3.39 0.66 4.81 0.04 0.26 0.19 0.49 0.41 0.63s0.49 0.19 0.74 0.12c2.67-0.73 5.39-1.45 8.16-2.13 0.29-0.06 0.53-0.26 0.64-0.53 0.12-0.28 0.1-0.59-0.05-0.84-0.54-0.96-1.08-1.91-1.56-2.88-1.07-2.17-2.43-4.12-3.75-5.56-0.66-0.73-1.31-1.33-1.94-1.75-0.62-0.42-1.2-0.72-1.9-0.72h-0.1zm170.22 0.06c-0.81 0.1-1.6 0.61-2.25 1.44-0.23 0.3-0.27 0.52-0.37 0.85-0.11 0.32-0.2 0.71-0.28 1.15-0.16 0.88-0.29 1.95-0.38 3.22-0.17 2.46-0.22 5.58-0.15 8.75 0.02 0.44 0.34 0.81 0.78 0.88 3.47 0.56 7.03 1.14 10.34 1.68 0.33 0.06 0.67-0.06 0.88-0.32s0.27-0.61 0.15-0.93c-0.16-0.41-0.34-0.8-0.5-1.15-4.03-9.14-4.51-10.33-5.22-12.91-0.23-0.87-0.64-1.53-1.15-2-0.47-0.42-1.18-0.73-1.85-0.66zm-192.25 3.94c-0.58 0-1.03 0.02-1.4 0.06-0.21 0.03-0.39 0.06-0.53 0.1-0.04 0.01-0.09 0.05-0.13 0.06h-0.03c-0.09 0.02-0.17 0.05-0.25 0.09-0.03 0.02-0.03 0.01-0.06 0.04v0.03h-0.07v0.03h-0.03v0.03l-0.03 0.03h-0.03l-0.03 0.06-0.03 0.03c-0.01 0.02-0.03 0.03-0.03 0.04v0.03l-0.03 0.06c-0.02 0.01-0.03 0.02-0.04 0.03l-0.03 0.06c-0.09 0.21-0.1 0.44-0.03 0.66 0.11 0.29 0.16 0.32 0.25 0.44 0.09 0.11 0.21 0.24 0.35 0.37 0.22 0.23 0.52 0.75 0.71 1.38 0.2 0.62 0.29 1.33 0.29 2 0 3.35 1.06 6.95 2.93 10.43 0.22 0.41 0.7 0.59 1.13 0.44 2.36-0.82 4.78-1.68 7.25-2.47 0.27-0.09 0.48-0.29 0.58-0.56s0.07-0.57-0.08-0.81c-0.45-0.73-0.87-1.46-1.31-2.22-2.67-4.61-4.21-7.13-5.47-8.59-0.63-0.73-1.2-1.22-1.85-1.5-0.65-0.29-1.32-0.35-2-0.35zm217.75 0.5c-0.54 0.18-0.69 0.42-1 0.81-0.31 0.4-0.59 0.9-1 1.54-0.67 1.04-1.16 2.29-1.43 4.25-0.27 1.91-0.38 4.56-0.44 8.5 0 0.45 0.33 0.83 0.78 0.9 3.75 0.64 7.39 1.26 10.91 1.88 0.29 0.05 0.59-0.04 0.8-0.24 0.22-0.2 0.33-0.5 0.29-0.79-0.42-2.95-1.3-5.1-2.97-7.13-0.7-0.85-1.36-1.79-1.81-2.62-0.46-0.86-0.66-1.55-0.66-1.88 0-1.27-0.63-2.75-1.44-3.87-0.3-0.43-0.47-0.73-0.81-1.04-0.12-0.11-0.27-0.22-0.53-0.31-0.26-0.08-0.59-0.03-0.69 0zm24.85 4.5v0.1c-0.11 0-0.25-0.08-0.32-0.07-0.19 0.05-0.31 0.1-0.4 0.16-0.2 0.12-0.32 0.26-0.47 0.41-0.31 0.28-0.63 0.61-0.88 0.9-0.12 0.15-0.22 0.27-0.31 0.38-0.04 0.05-0.08 0.09-0.12 0.15-0.02 0.04-0.06 0.07-0.1 0.16-0.02 0.04-0.03 0.09-0.06 0.22-0.01 0.03-0.03 0.12-0.03 0.12l0.03 0.19 0.06 0.25s0.04 0.05 0.07 0.09c-0.22 0.52-0.46 0.9-0.66 1.54-0.81 2.57-1.56 6.08-2.06 10-0.06 0.49 0.28 0.95 0.78 1.03 3.31 0.61 6.48 1.2 9.56 1.81 0.29 0.06 0.59-0.02 0.82-0.21 0.22-0.2 0.33-0.49 0.31-0.79-0.17-1.6-0.4-3.1-0.66-4.28-0.15-0.66-0.29-1.25-0.47-1.72-0.18-0.48-0.35-0.84-0.66-1.19-0.73-0.83-1.73-3.26-2.03-5.15-0.17-1.06-0.44-1.97-0.81-2.69-0.18-0.35-0.35-0.66-0.62-0.94-0.11-0.1-0.3-0.11-0.41-0.19l0.03-0.06c-0.09-0.07-0.15-0.03-0.25-0.06-0.12-0.05-0.14-0.16-0.34-0.16zm-261.25 1.47c-0.3 0-0.99 0.46-0.75 0.34-0.29 0.04-0.54 0.2-0.69 0.44-0.1 0.18-0.12 0.26-0.16 0.31-0.11 0.17-0.16 0.37-0.15 0.57-0.01-0.12-0.02-0.12 0 0.06 0.01 0.18 0.2 0.62 0.47 0.78 0.32 0.2 0.55 0.27 0.96 0.28 0.26 0.01 0.42-0.02 0.57-0.03 0.13 0.25 0.07 0.4 0.06 0.44-0.04 0.1-0.11 0.21-0.16 0.28-0.02 0.04-0.01 0.06-0.03 0.09l0.1-0.09s0.59 0.72 0.59 0.72 0.09-0.94 0.09-0.94 0.22 0.06 0.22 0.06l0.44 0.32 0.09 0.15 0.07 0.28s0.03 0.07 0.03 0.07l-0.03 0.25s-0.03 0.13-0.04 0.15c0 0.03-0.02 0.02-0.03 0.03l-0.84-0.37h-0.06l-0.75-0.41c-0.07 0.13-0.07 0.28-0.13 0.41l0.47 0.03h-0.47c-1.75 3.78-0.96 8.33 1.69 12.66 0.25 0.38 0.74 0.52 1.16 0.34 2.28-0.97 4.69-1.89 7.18-2.88 0.28-0.1 0.49-0.33 0.57-0.61 0.08-0.29 0.02-0.59-0.16-0.82-1.18-1.55-2.19-3.1-2.91-4.57-1.16-2.38-2.43-4.37-3.62-5.81-1.21-1.45-2.24-2.38-3.47-2.53-0.15-0.02-0.3 0-0.31 0zm282.81 2.81c-0.96 0.49-0.8 0.11-1.44 0.75-0.25 0.54-0.35 1.01-0.34 1.07-0.21 0.61-0.35 1.3-0.35 2 0 0.61-0.06 1.26-0.21 1.71-0.18 0.53-0.34 0.75-0.5 0.85-0.85 0.53-1.25 1.53-0.88 2.53 0.05 0.12 0.03 0.08 0.03 0.16 0.01 0.04 0.01 0.19 0 0.4-0.01 0.34-0.06 0.84-0.12 1.41-0.11 1.04-0.29 2.39-0.53 3.9-0.09 0.49 0.23 0.96 0.71 1.07 2.85 0.62 5.56 1.24 8.19 1.87 0.29 0.07 0.6 0 0.83-0.19s0.35-0.48 0.33-0.78c-0.17-2.21-0.5-4.19-1.22-5.62-0.4-0.78-0.72-1.76-0.91-2.69-0.18-0.93-0.23-1.75-0.12-2.22 0.3-1.35-0.08-2.79-0.69-3.97-0.31-0.59-0.67-1.1-1.09-1.5-0.42-0.39-0.86-0.71-1.5-0.75h-0.19zm-296.63 1.88c-0.78 0.44-0.64 0.04-0.9 0.81 0.44 1.39-1.26-1.09 0.19 0.94 0 0.03 0.01 0.06 0.03 0.09 0 0.06 0.01 0.11 0.03 0.16 0.1 0.26 0.12 0.62 0.03 1-0.1 0.4-0.31 0.82-0.53 1.06-0.22 0.25-0.29 0.6-0.19 0.91 0.1 0.32 0.36 0.55 0.69 0.62 0.01 0.05 0.01 0.08 0.03 0.19 0.08 0.49 0.04 1.54-0.13 3.06-0.37 3.43 0.02 5.51 1.66 8.22 0.25 0.42 0.6 0.9 0.97 1.38 0.27 0.36 0.75 0.47 1.16 0.28 1.59-0.78 3.25-1.6 5-2.41 0.23-0.11 0.41-0.32 0.49-0.57 0.07-0.25 0.04-0.52-0.09-0.74-0.62-1.11-1.18-2.17-1.56-3.25-0.75-2.14-2.12-5.02-3.44-7.41-0.66-1.2-1.37-2.29-1.9-3.06-0.27-0.38-0.45-0.65-0.69-0.91-0.06-0.05-0.06-0.09-0.06-0.09-0.21-0.21-0.5-0.32-0.79-0.28zm317.57 2.31c-0.88 0.03-2.27 0.85-1.75 0.94-0.52 0.55-0.94 1.26-1.38 2.09-0.89 1.69-1.7 3.87-1.94 5.91-0.17 1.48-0.63 3.72-1.25 6.19-0.12 0.49 0.17 0.99 0.66 1.12 2.57 0.71 5 1.42 7.34 2.16 0.3 0.09 0.62 0.04 0.86-0.15s0.38-0.48 0.36-0.79c-0.23-2.99-0.53-5.8-1.15-7.34-0.46-1.13-0.7-1.94-0.72-2.63s0.12-1.29 0.5-2c0.4-0.77 0.67-1.17 0.69-1.84 0-0.27-0.15-0.69-0.38-0.88-0.03-0.03-0.18-0.13-0.34-0.19-0.15-0.05-0.28-0.08-0.41-0.09 0.49-0.81 0.14-1.82-0.59-2.28-0.03-0.02-0.03-0.03-0.03-0.03-0.01-0.01-0.04-0.01-0.07-0.03-0.01-0.01-0.06-0.06-0.06-0.07l-0.12-0.03s-0.22-0.06-0.22-0.06zm-331.66 2.59c-0.25 0.03-0.67 0.16-0.91 0.6-0.23 0.44-0.09 0.81 0 1 0.19 0.38 0.39 0.52 0.57 0.69l0.09 0.09c0.33 0.23 0.45 0.37 0.63 0.56 0.17 0.2 0.53 0.55 1.03 0.66 0.46 0.09 0.91-0.18 1.06-0.63-0.01 0.04 0.05-0.1 0.06-0.28 0.02-0.18 0.01-0.33-0.03-0.47-0.1-0.34-0.26-0.68-0.53-1.03-0.46-0.59-1.02-0.98-1.63-1.15-0.11-0.04-0.22-0.05-0.34-0.04zm345.59 3.32c-0.67 0.29-0.44 0.5-0.96 0.75-0.26-0.06-1.17 3.45-0.6 1.28-0.47 1.23-1.05 3.17-1.97 6.22-0.57 1.89-1.22 3.73-1.9 5.53-0.09 0.23-0.09 0.5 0.02 0.73s0.3 0.4 0.54 0.49c1.88 0.68 3.64 1.4 5.37 2.12 0.28 0.11 0.59 0.09 0.84-0.06 0.26-0.16 0.42-0.42 0.45-0.72 0.28-2.55 0.27-4.8-0.38-6.41-0.46-1.12-0.66-1.88-0.62-2.62 0.03-0.75 0.29-1.51 0.87-2.69 0.62-1.26 0.97-1.97 1-2.78 0.01-0.36-0.15-0.8-0.34-1.03-0.25-0.29-0.52-0.45-0.88-0.59-0.46-0.18-0.83-0.31-1.34-0.22h-0.1zm-343.03 1.15c-0.45 0.06-0.94 0.38-1.28 0.78-0.36 0.43-0.65 1-0.9 1.69-0.69 1.83-1.03 3.02-0.75 4.44 0.27 1.44 1.09 3 2.68 5.84 0.48 0.86 1.08 1.72 1.66 2.57 0.28 0.41 0.82 0.53 1.25 0.28 1.46-0.83 3.05-1.76 4.81-2.69 0.24-0.13 0.41-0.35 0.47-0.62 0.06-0.26 0-0.54-0.16-0.76-1.91-2.52-3.61-5.38-4.03-6.81-0.43-1.49-0.92-2.67-1.53-3.5-0.6-0.82-1.37-1.33-2.22-1.22zm356.38 5.53c-0.3 0.03-0.56 0.19-0.72 0.44-0.04 0.07-0.11 0.14-0.16 0.22s-0.06 0.12-0.12 0.25c-0.06 0.12-0.09 0.25-0.1 0.38 0 0.01 0.01 0.02 0 0.03-0.25 0.64-0.6 1.47-0.96 2.5-0.77 2.14-1.69 4.98-2.66 8-0.14 0.44-0.27 0.79-0.41 1.18-0.16 0.45 0.04 0.95 0.47 1.16 1.39 0.7 2.77 1.42 4.13 2.16 0.27 0.15 0.6 0.15 0.88 0.01 0.27-0.15 0.46-0.42 0.49-0.73 0.22-1.91 0.37-4.07 0.41-6.78 0.04-2.4 0.02-4.51-0.06-6.07-0.04-0.69-0.13-1.21-0.19-1.65 0 0-0.02-0.14-0.03-0.22v-0.09c-0.08-0.47-0.5-0.81-0.97-0.79zm-363.1 1.94c-0.35 0.04-0.65 0.27-0.78 0.6-0.06 0.16-0.14 0.43-0.22 0.62l-0.03 0.03c0 0.01 0.01 0.03 0 0.03-0.08 0.12-0.13 0.24-0.15 0.38-0.13 0.74-0.2 1.71-0.13 2.78 0.14 2.16 0.61 4.65 1.44 6.28 0.25 0.49 0.56 0.96 0.87 1.41 0.14 0.21 0.36 0.35 0.61 0.4s0.5-0.01 0.71-0.15c0.77-0.52 1.81-1.13 3.09-1.91 0.22-0.13 0.38-0.35 0.44-0.61 0.05-0.25-0.01-0.52-0.16-0.73-1.37-1.91-2.52-3.9-2.94-5.07-0.36-1.03-0.77-2-1.18-2.71-0.22-0.38-0.45-0.7-0.63-0.91-0.06-0.08-0.1-0.11-0.19-0.19-0.04-0.04-0.11-0.08-0.28-0.15-0.16-0.07-0.29-0.12-0.12-0.07-0.11-0.03-0.23-0.04-0.35-0.03zm-4.31 5.25c-0.46 0.06-0.8 0.45-0.81 0.91-0.01 0.28-0.02 0.47-0.03 0.87-0.06 2.7 0.82 5.56 2.34 8.28 0.15 0.26 0.4 0.42 0.69 0.46s0.58-0.06 0.78-0.27c0.37-0.39 0.78-0.75 1.19-1.12 0.33-0.3 0.4-0.78 0.19-1.16-1.36-2.28-2.57-4.81-3.16-6.81-0.07-0.24-0.13-0.33-0.19-0.5-0.13-0.43-0.55-0.71-1-0.66zm375.6 0.41c-0.32-0.15-1.76 1.28-1 0.59l0.37 0.41c-0.09 0.01-0.17 0.03-0.25 0.06 0 0 0.17-0.03 0.31-0.03l0.22 0.22 0.6 0.34 0.21 0.13s-0.01 0.03-0.09 0.12c0 0.01-0.03 0-0.03 0v0.03c-0.02 0.02-0.03 0.04-0.06 0.07-0.03 0.02-0.1 0.06-0.1 0.06l-0.15 0.09-0.35 0.06-0.43-0.12-0.35-0.28-0.09-0.25s-0.06-0.12-0.06-0.16c-0.01-0.03 0-0.04 0-0.06 0 0 0.01-0.02 0.03-0.03h-0.03c-0.01-0.06-0.01-0.1 0-0.13-0.02 0.04-0.05 0.05-0.07 0.1s-0.01 0.1-0.03 0.15c-0.01 0.03-0.02 0.05-0.03 0.07l-0.03 0.03v0.03c-0.01 0.03-0.02 0.07 0 0.03l-0.06 0.06c-0.42 1-0.83 2.43-1.28 4.41-0.35 1.49-0.83 3-1.35 4.47-0.11 0.29-0.06 0.62 0.13 0.87l0.03 0.03c0.01 0.02 0.02 0.05 0.03 0.07 0.03 0.02 0.02 0 0.06 0.03 0.03 0.02 0.06 0.04 0.1 0.06h0.03l0.03 0.06c0.84 0.49 1.68 0.98 2.5 1.47 0.24 0.14 0.54 0.16 0.8 0.05 0.26-0.1 0.46-0.31 0.54-0.58 0.77-2.49 1.28-5.08 1.28-7.66 0-1.39-0.09-2.47-0.22-3.25-0.06-0.39-0.13-0.69-0.25-0.97-0.03-0.08-0.07-0.18-0.15-0.28-0.19-0.25-0.5-0.39-0.81-0.37zm-0.91 1.06c-0.08 0.03-0.15 0.07-0.22 0.13 0 0 0.18-0.11 0.22-0.13zm7.09 3.41c-0.36 0.02-0.68 0.25-0.81 0.59l-0.59 1.47v0.06l-0.03 0.03c-0.01 0.02-0.01 0.05 0 0.07v0.03c-0.02 0.02-0.03 0.04-0.04 0.06-0.91 2.36-1.98 4.67-3.15 6.87-0.23 0.43-0.09 0.96 0.31 1.22 0.72 0.45 1.43 0.9 2.13 1.35 0.23 0.15 0.53 0.18 0.8 0.09 0.26-0.09 0.47-0.3 0.57-0.56 0.84-2.36 1.42-4.82 1.59-7.31l0.22-2.97c0.02-0.27-0.08-0.54-0.27-0.73s-0.46-0.29-0.73-0.27zm-384.75 2.37c-0.5 0.06-0.87 0.53-0.81 1.03 0.11 1.21 0.66 2.96 1.44 4.35 0.27 0.48 0.45 0.81 0.62 1.18 0.13 0.3 0.41 0.5 0.72 0.55 0.32 0.04 0.64-0.08 0.85-0.33 0.25-0.31 0.46-0.6 0.65-0.84 0.25-0.3 0.29-0.72 0.1-1.06-0.21-0.37-0.41-0.73-0.6-1.1-0.61-1.19-1.2-2.14-1.65-2.81-0.19-0.27-0.32-0.44-0.47-0.62-0.21-0.26-0.52-0.39-0.85-0.35zm387.57 2.85c-0.22 0.02-0.42 0.12-0.57 0.28-0.42 0.43-0.72 1-1.03 1.78s-0.54 1.68-0.72 2.53c-0.11 0.52-0.11 0.74-0.12 0.91-0.05 0.44 0.23 0.85 0.66 0.98 0.42 0.13 0.88-0.06 1.09-0.45 0.42-0.77 0.92-1.97 1.4-3.66 0.17-0.57 0.27-0.97 0.32-1.34 0.03-0.28-0.07-0.57-0.27-0.77s-0.48-0.3-0.76-0.26zm-220.54 0.53c-0.48 0.04-0.84 0.45-0.84 0.93-0.02 1.63 0.15 3.18 0.53 4.63 0.48 1.84 0.8 2.9 1.47 3.66 0.29 0.32 0.74 0.58 1.16 0.65 0.46 0.08 0.89 0.04 1.4-0.06 0.55-0.1 1.12-0.1 1.53-0.03 0.45 0.08 0.52 0.14 0.57 0.22 0.35 0.58 0.77 0.66 1.22 0.75 0.42 0.08 0.93 0.1 1.43-0.1 0.36-0.14 0.76-0.42 1.03-0.78 0.33-0.42 0.5-0.89 0.72-1.56 0.45-1.33 0.91-3.48 1.53-7.03 0.05-0.27-0.02-0.54-0.19-0.75-0.16-0.21-0.41-0.33-0.68-0.35-3.46-0.09-7.07-0.16-10.78-0.18h-0.1zm-12.21 0.03c-3.57 0.05-7.16 0.19-10.72 0.31-0.29 0.01-0.56 0.16-0.73 0.4-0.16 0.24-0.21 0.54-0.12 0.82 0.71 2.18 1.51 4.33 2.47 5.47 0.5 0.59 1.09 1.05 1.66 1.34 0.56 0.29 1.11 0.52 1.78 0.25 0.13-0.05 0.24-0.06 0.44 0.06 0.21 0.14 0.42 0.34 0.53 0.63 0.23 0.63 0.7 1.07 1.22 1.41 0.51 0.33 1.11 0.59 1.78 0.59s1.31-0.21 2-0.5 1.37-0.67 1.97-1.06c0.6-0.4 1.04-0.72 1.37-1.22 0.18-0.27 0.2-0.62 0.06-0.91-0.14-0.3-0.42-0.5-0.75-0.53h-0.09c-0.01-0.01-0.06-0.09-0.16-0.25-0.18-0.31-0.41-0.79-0.62-1.41-0.41-1.17-0.83-2.85-1.19-4.65-0.08-0.43-0.46-0.75-0.9-0.75zm35.71 0.69c-0.38 0.05-0.69 0.34-0.78 0.71-0.49 2.15-0.81 4.14-0.81 5.85 0 1.37 0.18 2.37 0.81 3.19 0.65 0.83 1.62 1.39 3.22 2.06 1.01 0.42 1.94 0.77 2.6 1.06 0.27 0.12 0.46 0.24 0.68 0.34 0.27 0.13 0.57 0.12 0.83-0.01 0.26-0.14 0.44-0.39 0.49-0.67-0.03 0.16 0.03 0.05 0.06-0.19 0.04-0.38 0.08-0.91 0.12-1.5 0.07-0.92 1.01-2.65 2.07-3.66 1-0.95 2.03-2.78 3.09-4.81 0.15-0.27 0.15-0.59 0.02-0.87-0.14-0.27-0.4-0.46-0.71-0.5-2.11-0.26-4.08-0.46-5.65-0.6-1.81-0.15-3.8-0.28-5.85-0.4-0.06-0.01-0.12-0.01-0.19 0zm-59.43 0.18c-3.68 0.22-7.25 0.52-10.69 0.82-0.31 0.02-0.58 0.2-0.73 0.47s-0.16 0.59-0.02 0.87c0.98 1.96 2.32 3.79 4.12 5.56 1.19 1.16 2.43 2.31 3.47 3.19 0.52 0.44 0.97 0.79 1.38 1.09 0.2 0.15 0.4 0.27 0.56 0.38 0.16 0.1 0.26 0.19 0.47 0.28 1.2 0.49 2.35 0.57 3.37 0.28s1.91-0.98 2.54-2c0.45-0.73 0.62-1.68 0.37-2.62-0.26-0.98-0.86-2.01-1.81-3.5-0.8-1.25-1.47-2.71-2.1-4.22-0.14-0.39-0.52-0.63-0.93-0.6zm-21.41 1.94c-3.12 0.4-6.05 0.85-8.72 1.34-0.29 0.06-0.56 0.12-0.78 0.16-0.28 0.06-0.52 0.24-0.65 0.5-0.13 0.25-0.13 0.55-0.01 0.81 1.74 3.56 3.85 6.28 6.19 7.07 0.78 0.26 1.52 0.58 2.13 0.87 0.29 0.14 0.56 0.29 0.75 0.41 0.25 0.16 0.22 0.13 0.28 0.22 0.16 0.22 0.27 0.31 0.47 0.46 0.2 0.16 0.45 0.34 0.75 0.5 0.56 0.33 1.24 0.65 1.93 0.91 1.51 0.57 2.74 0.72 3.72 0.5 0.97-0.22 1.7-1.02 1.88-1.91 0.19-0.95-0.05-2.01-0.63-3.18-0.57-1.17-1.52-2.47-2.84-3.82-1.4-1.42-2.57-2.87-3.56-4.4-0.19-0.31-0.55-0.48-0.91-0.44zm-109.44 0.19c-0.29 0.04-0.54 0.22-0.69 0.47-0.14 0.26-0.15 0.57-0.03 0.84 0.09 0.2 0.19 0.45 0.32 0.72 0.14 0.3 0.42 0.5 0.75 0.53s0.65-0.11 0.84-0.37c0.1-0.13 0.13-0.2 0.13-0.19 0.26-0.36 0.24-0.86-0.07-1.19-0.13-0.14-0.26-0.29-0.4-0.47-0.21-0.25-0.52-0.38-0.85-0.34zm214.32 0.37c-0.38 0.03-0.7 0.28-0.82 0.63-1.18 3.4-1.94 6.36-2.12 8.47-0.09 1.09-0.07 1.89 0.25 2.59 0.14 0.31 0.36 0.65 0.78 0.81 0.25 0.11 0.8 0.1 1.12-0.03 0.36-0.14 0.51-0.14 0.6-0.12 0.01 0.35 0.05 0.67 0.22 0.93 0.13 0.21 0.64 0.54 1.03 0.54 0.42-0.01 0.71-0.14 1.12-0.32 0.42-0.17 0.9-0.42 1.5-0.75 0.57-0.31 1.09-0.68 1.5-1.15 0.21-0.24 0.38-0.48 0.5-0.72 0.13-0.24 0.25-0.46 0.25-0.85 0-0.01-0.03 0.09 0.03-0.09 0.08-0.21 0.13-0.32 0.16-0.37 0.14-0.28 0.37-0.64 0.66-1.07 0.56-0.81 1.36-1.82 2.25-2.78 0.75-0.82 1.41-1.73 2.03-2.72 0.16-0.26 0.18-0.58 0.06-0.86-0.13-0.29-0.38-0.49-0.69-0.54-3.59-0.56-7.03-1.13-10.25-1.6h-0.18zm-123.35 2.82c-0.03 0-0.06 0.02-0.09 0.03-3.33 0.8-6.57 1.68-9.78 2.62-0.33 0.08-0.59 0.33-0.68 0.66-0.09 0.32 0 0.67 0.24 0.9 1.26 1.33 2.82 2.67 4.34 3.75 0.83 0.59 1.61 1.11 2.35 1.47 0.73 0.37 1.3 0.63 2 0.63 0.19 0 0.55 0.11 1.03 0.37 0.45 0.26 0.93 0.62 1.31 1 0.5 0.51 1.08 0.88 1.72 1.1s1.27 0.3 1.87 0.06c0.7-0.27 1.95-0.53 2.6-0.53 0.38 0 0.7-0.03 1.03-0.16 0.33-0.12 0.64-0.51 0.72-0.65 0.37-0.69 0.19-1.27-0.16-2-0.68-1.43-2.24-3.29-4.75-5.79-1.13-1.13-2.08-2.17-2.94-3.15-0.2-0.23-0.5-0.35-0.81-0.31zm146.81 0.9c-0.29 0.04-0.54 0.22-0.68 0.47-0.45 0.76-0.88 1.53-1.41 2.31-1.55 2.3-2.44 4.27-2.53 5.97-0.04 0.83 0.12 1.63 0.53 2.28 0.41 0.66 1.05 1.14 1.81 1.44 1.4 0.55 2.82 0.53 3.94 0.06 1.11-0.46 1.97-1.48 2.16-2.75 0.08-0.54 0.21-1.05 0.37-1.34 0.07-0.13 0.12-0.19 0.22-0.28 1.09-0.03 1.95-0.7 3-1.66 0.96-0.87 2.01-2.05 3.03-3.4 0.19-0.26 0.23-0.6 0.11-0.9s-0.38-0.52-0.7-0.57c-3.23-0.55-6.42-1.08-9.56-1.6-0.1-0.02-0.19-0.03-0.29-0.03zm-161.62 3.31c-0.07 0.02-0.13 0.04-0.19 0.07-2.65 0.85-5.23 1.7-7.75 2.62-0.32 0.11-0.56 0.38-0.62 0.71s0.05 0.67 0.31 0.89c1.37 1.18 3.12 2.24 5.87 3.71 2.24 1.2 4.69 1.94 6.66 2.1 0.98 0.08 1.8 0 2.5-0.25 0.35-0.13 0.63-0.25 0.91-0.56 0.22-0.26 0.4-0.67 0.4-1.07 0-0.17-0.05-0.35-0.15-0.5-0.01 0-0.03-0.02-0.03-0.03-0.01 0 0-0.02 0-0.03-0.01-0.01-0.02-0.02-0.04-0.03 0-0.01-0.02-0.02-0.03-0.03l-0.03-0.03c-0.01-0.01-0.01-0.02-0.03-0.03-0.08-0.13-0.14-0.24-0.25-0.38-0.29-0.37-0.69-0.84-1.19-1.37-0.99-1.07-2.38-2.46-3.87-3.85-0.61-0.57-1.17-1.11-1.72-1.65-0.2-0.21-0.47-0.31-0.75-0.29zm182.56 0.22c-0.27 0.05-0.51 0.21-0.65 0.44-1.08 1.72-2.15 3.55-2.91 5.16l-2.47 5.28c-0.12 0.26-0.12 0.56 0.01 0.81 0.13 0.26 0.37 0.44 0.65 0.5l2.22 0.47c0.76 0.17 1.57 0.26 2.31 0.22s1.29-0.14 1.81-0.53c0.22-0.17 0.48-0.26 0.66-0.28 0.06-0.01 0.15 0 0.22 0.03 0.3 0.12 0.64 0.08 0.9-0.11s0.4-0.51 0.38-0.83-0.09-0.68-0.22-1.19c-0.18-0.69-0.17-1.03-0.1-1.19 0 0.01 0.08-0.08 0.1-0.09 0.05-0.03 0.17-0.06 0.37-0.06 0.62 0 1.16-0.22 1.78-0.53 0.63-0.32 1.3-0.75 2-1.28 1.27-0.97 2.56-2.25 3.66-3.54 0.21-0.25 0.26-0.6 0.15-0.9-0.12-0.31-0.39-0.54-0.71-0.6-3.29-0.58-6.5-1.16-9.88-1.75-0.09-0.02-0.18-0.03-0.28-0.03zm21.38 3.78c-0.21 0.04-0.39 0.14-0.53 0.29-1.01 1-2.03 1.99-3.04 2.87-2.93 2.56-4.53 4.04-5.21 5.28-0.18 0.32-0.28 0.67-0.29 0.91-0.02 0.43 0.08 0.63 0.32 0.9 0.48 0.57 0.98 0.63 1.72 0.79 0.69 0.14 1.35-0.01 2-0.32 0.64-0.31 1.18-0.79 1.59-1.37 0.55-0.77 2.11-1.5 3.25-1.5 1.58 0 3.89-0.71 5.56-1.6 1.17-0.61 2.47-1.77 3.75-3.09 0.24-0.24 0.33-0.59 0.23-0.92-0.1-0.32-0.37-0.57-0.7-0.64-2.74-0.52-5.38-1.02-8.37-1.56-0.09-0.03-0.19-0.04-0.28-0.04zm-219.78 1.79c-0.1 0-0.2 0.02-0.29 0.06-2.28 0.95-4.42 1.94-6.46 2.9-0.29 0.14-0.49 0.42-0.53 0.73-0.04 0.32 0.09 0.64 0.34 0.84 2.65 2.14 5.76 3.8 8.81 4.47 1.36 0.29 2.72 0.66 3.81 1.03 0.55 0.18 1.04 0.37 1.41 0.53 0.38 0.16 0.58 0.29 0.69 0.37 0.47 0.41 1.1 0.63 1.68 0.5 0.59-0.12 1.08-0.5 1.54-1.06 0.28-0.35 0.51-0.7 0.62-1.09 0.1-0.33 0.1-0.81-0.06-1.22-0.34-0.86-1.03-1.46-2.19-2.5-0.78-0.71-1.63-1.36-2.37-1.85-0.37-0.23-0.69-0.44-1-0.59-0.15-0.07-0.29-0.11-0.41-0.16-0.13-0.04-0.19-0.11-0.47-0.12-0.42-0.01-1.09-0.26-1.91-0.75-0.76-0.46-1.61-1.11-2.5-1.88-0.19-0.17-0.45-0.24-0.71-0.21zm22.96 1.5l0.1 0.03c-0.06-0.01-0.13-0.01-0.19 0 0.05-0.01 0.09-0.03 0.09-0.03zm214.79 0.09c-0.22 0.03-0.42 0.13-0.57 0.28-0.68 0.69-1.37 1.39-2.12 2.13-2.13 2.06-4.07 4.03-5.47 5.56-0.71 0.76-1.26 1.41-1.66 1.9-0.21 0.27-0.36 0.51-0.47 0.66-0.01 0.02-0.01 0.01-0.03 0.03-0.18 0.28-0.2 0.63-0.05 0.93 0.15 0.29 0.44 0.49 0.77 0.51 0.09 0.01 0.33 0.01 0.47-0.03 0.54-0.15 1.08-0.45 1.72-0.88 0.51-0.33 1.52-0.78 2.72-1.15 1.19-0.37 2.52-0.7 3.72-0.88 1.88-0.28 3.34-0.71 4.81-1.62 1.43-0.9 2.9-2.23 4.87-4.28 0.24-0.25 0.32-0.61 0.22-0.93-0.1-0.33-0.38-0.57-0.72-0.64-2.44-0.49-4.83-0.96-7.93-1.56-0.09-0.02-0.19-0.03-0.28-0.03zm-247.69 3c-0.11 0.01-0.22 0.04-0.31 0.09-2.05 1.04-3.89 2.04-5.6 3.03-0.28 0.17-0.46 0.47-0.46 0.79-0.01 0.33 0.16 0.63 0.43 0.81 3.18 2.1 6.55 3.73 9.06 3.75 1.12 0.01 2.73 0.45 3.38 0.87 0.97 0.64 1.8 1.01 2.62 1.07 0.78 0.05 1.54-0.27 1.91-0.82 0.38-0.56 0.4-1.33 0.12-2.09-0.28-0.78-0.85-1.56-1.71-2.34-0.56-0.51-1.59-1.21-2.91-1.97-1.31-0.76-2.85-1.56-4.34-2.25-0.58-0.27-1.13-0.53-1.66-0.82-0.16-0.09-0.35-0.13-0.53-0.12zm264.37 0.34c-0.22 0.02-0.43 0.12-0.59 0.28-2 2.05-4.04 3.76-5.66 4.69-1.06 0.61-2.13 1.41-3.03 2.16s-1.59 1.42-2 2.09c-0.36 0.59-0.62 1.08-0.69 1.63-0.04 0.33 0.14 0.81 0.13 0.78 0.17 0.32 0.51 0.52 0.87 0.5 0.54-0.03 0.82-0.23 1.13-0.44 0.32-0.22 0.67-0.49 0.94-0.94 0.08-0.14 0.12-0.15 0.12-0.15-0.02 0.01 0.07-0.01 0.13 0 0.19 0.02 0.47 0.15 0.97 0.56 0.3 0.25 0.54 0.41 0.71 0.53 0.33 0.24 0.77 0.24 1.09 0 0.33-0.23 0.47-0.65 0.35-1.03-0.04-0.15-0.11-0.3-0.22-0.59-0.2-0.57-0.19-0.81-0.12-0.91 0.11-0.16 0.44-0.35 1.19-0.5 1.19-0.25 3.47-0.71 5.09-1.06 1.9-0.41 4.05-2.11 6.25-4.25 0.22-0.23 0.32-0.55 0.25-0.86s-0.3-0.57-0.59-0.67c-1.26-0.44-2.47-0.84-3.44-1.13-0.55-0.16-1.45-0.39-2.6-0.66-0.09-0.02-0.18-0.03-0.28-0.03zm12.28 4.1c-0.18 0.03-0.36 0.11-0.5 0.25-1.42 1.26-2.89 2.52-4.56 3.81l-2.37 1.84c-0.34 0.27-0.45 0.72-0.29 1.11 0.17 0.39 0.59 0.62 1.01 0.55l3.37-0.63c3.69-0.69 6.45-1.63 8.81-3.25 0.3-0.19 0.46-0.53 0.42-0.88s-0.27-0.65-0.6-0.77c-1.63-0.67-3.24-1.35-4.82-1.97-0.15-0.06-0.31-0.08-0.47-0.06zm-284.59 0.03c-0.15 0.02-0.28 0.07-0.41 0.15-0.56 0.36-1.15 0.71-1.68 1.07-0.64 0.43-1.36 0.95-2.1 1.5-0.25 0.18-0.39 0.49-0.37 0.8 0.01 0.32 0.19 0.6 0.47 0.76 1.32 0.77 2.67 1.42 3.87 1.91 1.2 0.48 2.23 0.81 3.16 0.81 0.47 0 1.3 0.14 2.22 0.44 0.92 0.29 1.93 0.69 2.75 1.12 0.74 0.39 1.28 0.7 1.72 0.91 0.39 0.2 0.86 0.1 1.14-0.24s0.28-0.82 0.01-1.17c-0.09-0.12-0.22-0.32-0.47-0.62-0.53-0.66-1.57-1.5-3-2.6s-3.21-2.33-4.97-3.5c-0.63-0.42-1.15-0.8-1.71-1.19-0.19-0.12-0.41-0.18-0.63-0.15zm-5.66 4.06c-0.18 0.02-0.35 0.1-0.5 0.22-0.99 0.8-2.02 1.67-3.09 2.59-0.22 0.2-0.34 0.49-0.32 0.79 0.03 0.29 0.19 0.56 0.45 0.71 1.46 0.94 2.86 1.69 4.15 2.07 1.39 0.4 2.62 0.42 3.6-0.19 0.11-0.07 0.31-0.1 0.75-0.1 0.37 0.01 0.83 0.11 1.21 0.25 0.3 0.12 0.44 0.16 0.57 0.22-0.04 0.02-0.07 0.04-0.1 0.07-0.2 0.18-0.23 0.26-0.25 0.28-0.32 0.32-0.36 0.82-0.1 1.2 0.26 0.37 0.76 0.49 1.17 0.3 0.11-0.08 0.21-0.15 0.34-0.28 0.21-0.21 0.21-0.25 0.16-0.19 0.06-0.08 0.11-0.16 0.15-0.25 0.08-0.05 0.16-0.12 0.22-0.19 0.03-0.03 0.06-0.07 0.13-0.16 0.19-0.25 0.33-0.43 0.46-0.56 0.2-0.18 0.31-0.45 0.29-0.71-0.01-0.27-0.14-0.53-0.35-0.69-2.17-1.7-5.37-3.79-7.62-4.88-0.28-0.13-0.54-0.25-0.78-0.37-0.17-0.1-0.35-0.14-0.54-0.13zm300.57 0.19c-0.16 0.02-0.31 0.09-0.44 0.19-1.03 0.73-2.07 1.38-3.06 1.9-1.51 0.8-3.14 1.93-3.94 2.91-0.19 0.23-0.3 0.46-0.28 0.44-0.15 0.26-0.16 0.57-0.04 0.84 0.12 0.28 0.37 0.47 0.66 0.53-0.08-0.02-0.15-0.05-0.09-0.03 0.02 0.01 0.09 0.02 0.12 0.03 0.11 0.03 0.22 0.07 0.35 0.06 0.92-0.04 2.28-0.43 4.75-1.12 2.57-0.72 4.38-1.51 5.97-2.53 0.28-0.19 0.44-0.51 0.41-0.85-0.02-0.34-0.23-0.64-0.54-0.78-1.11-0.51-2.25-0.99-3.4-1.5-0.15-0.07-0.31-0.1-0.47-0.09zm7.93 3.69c-0.12 0.01-0.23 0.06-0.34 0.12-1.7 1.03-3.45 1.98-5.12 2.69-0.88 0.37-1.65 0.79-2.22 1.19-0.29 0.19-0.51 0.37-0.72 0.59 0.01-0.01-0.11 0.1-0.13 0.12-0.2 0.25-0.26 0.59-0.16 0.89 0.1 0.31 0.35 0.54 0.66 0.61 0.22 0.06 0.55 0.13 0.97 0.13 0.78 0 1.75-0.14 2.85-0.34 2.23-0.42 4.71-1.6 7.12-3.1 0.27-0.18 0.43-0.49 0.42-0.81-0.01-0.33-0.2-0.62-0.48-0.78-0.73-0.4-1.48-0.8-2.31-1.22-0.17-0.08-0.35-0.12-0.54-0.09zm-313.21 0.12c-0.19 0.03-0.37 0.12-0.5 0.25-0.44 0.39-0.61 0.52-0.94 0.81-0.36 0.33-0.41 0.87-0.13 1.25-0.03-0.02-0.06-0.03-0.09-0.06-0.37-0.28-0.89-0.24-1.22 0.09-0.26 0.28-0.54 0.56-0.78 0.79-0.2 0.19-0.31 0.46-0.29 0.74 0.01 0.28 0.16 0.53 0.38 0.69 1.97 1.43 4.1 2.69 6.35 3.53 1.48 0.56 2.59 0.93 3.34 1.13 0.07 0.02 0.11 0.02 0.16 0.03 0.42 0.09 0.85-0.13 1.03-0.53 0.18-0.39 0.06-0.86-0.28-1.13-0.13-0.08-0.27-0.2-0.53-0.37-0.81-0.5-1.98-1.1-3.47-1.88-1.07-0.55-2.44-1.53-3.78-2.5 2.8 1.9 5.29 3.08 7.46 3 0.19 0 0.36-0.05 0.41-0.06 0.32-0.06 0.59-0.28 0.71-0.59 0.11-0.31 0.06-0.65-0.15-0.91 0.05 0.06-0.05-0.12-0.28-0.31-0.72-0.59-2.04-1.32-4.19-2.38-0.85-0.41-1.73-0.9-2.59-1.43-0.18-0.13-0.4-0.18-0.62-0.16zm318.31 2.78c-0.15 0.02-0.29 0.08-0.41 0.16-0.86 0.59-1.78 1.18-2.75 1.78-1.02 0.63-1.95 1.23-2.62 1.72-0.33 0.24-0.61 0.45-0.85 0.65-0.06 0.06-0.07 0.07-0.03 0.04-0.24 0.22-0.34 0.55-0.27 0.87 0.07 0.33 0.3 0.58 0.62 0.69-0.05-0.01 0.02 0.03 0.12 0.06 0.31 0.08 0.73 0.16 1.22 0.16 2.12 0 4.65-1.26 7.28-2.97 0.22-0.14 0.37-0.36 0.42-0.62 0.05-0.25-0.01-0.52-0.17-0.73-0.14-0.18-0.34-0.47-0.69-0.78-0.36-0.31-0.81-0.59-1.25-0.87-0.18-0.13-0.4-0.18-0.62-0.16zm2.15 4.78c-0.13 0.02-0.26 0.06-0.37 0.13-0.58 0.34-1.19 0.73-1.63 0.97-0.69 0.37-1.22 0.58-1.5 0.65-0.7 0.18-1.36 0.44-1.87 0.78-0.25 0.17-0.44 0.35-0.59 0.54-0.16 0.19-0.35 0.34-0.35 0.84 0 0.19 0.05 0.42 0.19 0.66 0.14 0.23 0.38 0.38 0.5 0.43 0.3 0.14 0.41 0.13 0.59 0.13 0.19 0 0.4-0.03 0.63-0.06 0.83-0.14 1.79-0.53 2.87-1.07 0.19-0.09 0.35-0.24 0.44-0.43v-0.04c0.21-0.13 0.51-0.3 0.91-0.68 0.42-0.41 0.79-0.91 1.09-1.44 0.18-0.3 0.18-0.69-0.01-0.99-0.2-0.29-0.54-0.46-0.9-0.42z"/>
      <path id="path3628" fill="url(#radialGradient7824)" d="m180.77 707.96c-1.4 0.46-1.44 0.38-0.24-0.48 1.24-0.9 1.22-1.13-0.2-1.69-0.9-0.35-2.03-0.39-2.51-0.09-2.92 1.84-11.41-3.73-16.57-10.86-1.61-2.23-2.17-2.55-2.19-1.25-0.06 2.98 6.65 9.48 12.99 12.6 4.26 2.09 5.39 3 3.81 3.05-3.13 0.12-7.49-2.36-12.54-7.12-2.36-2.22-4.3-3.67-4.3-3.22 0 1.59 8.17 8.57 12.87 11 5.99 3.1 6.1 3.83 0.24 1.62-7.86-2.96-15.06-10.69-15.06-16.16 0-1.52-1.2-2.61-4.41-4.01-4.53-1.98-5.99-3.66-2.35-2.68 2.89 0.77 1.97 0.07-4.03-3.08-4.28-2.23-5.75-3.73-8.08-8.22-2.05-3.93-2.28-4.79-0.83-3 2.33 2.86 2.69 1.7 0.62-2-0.77-1.37-1.42-3.33-1.44-4.36-0.02-1.02 1.18 0.51 2.66 3.39 3.11 6.08 5.67 8.27 12.48 10.71 4.78 1.7 5.38 2.18 5.38 4.24 0 0.55 0.4 1 0.88 1 2.24 0-0.54-4.28-3.92-6.04-8.55-4.45-14.61-12.59-14.47-19.42 0.06-2.92 0.08-2.93 0.81-0.5 1 3.36 3.51 7.98 5.85 10.76 1.74 2.08 11.58 7.21 13.81 7.21 2.2 0 0.69-1.69-2.59-2.9-4.18-1.54-10.69-7.3-12.67-11.2-1.49-2.95-1.93-9.87-0.62-9.87 0.43 0 1.37 1.66 2.09 3.68 0.71 2.03 3.21 5.77 5.56 8.33 3.45 3.76 5.46 4.99 10.6 6.49 4.89 1.43 6.11 2.14 5.32 3.12-0.73 0.9-0.6 2.07 0.45 4.06 0.82 1.53 1.74 4.01 2.06 5.51 0.7 3.38 3.18 5.84 11.3 11.22 3.5 2.31 7.02 5.03 7.83 6.02 1.41 1.75 1.34 1.75-1.66 0.17-1.73-0.91-4.09-1.66-5.25-1.66-3.22 0-11.4-4.92-14.04-8.45-1.29-1.73-2.9-5.03-3.58-7.34-1.3-4.44-3.85-7.7-3.85-4.92 0 0.82 0.63 2.02 1.39 2.67 0.77 0.65 1.69 2.96 2.05 5.13 0.77 4.67 4.45 8.78 10.44 11.67 2.33 1.12 5.94 3.43 8.03 5.14-0.46-0.39-1.54 1.93-2.12 1.73zm-30.19-23.67c-2.22-1.05-5.47-3.27-7.23-4.94-1.75-1.67-3.43-2.79-3.74-2.48-0.94 0.96 5.47 6.8 8.85 8.05 5.11 1.89 6.57 1.46 2.12-0.63zm333.32 31.2c0-0.52 1.04-1.22 2.32-1.55s5.13-2.68 8.56-5.23c5.39-4.01 5.84-4.2 3.31-1.4-4.71 5.2-14.19 10.67-14.19 8.18zm-2.94-3.59c0-0.23 1.65-1.43 3.67-2.66 7.37-4.51 11.94-9.01 14.16-13.94 1.47-3.28 2.82-4.95 4-4.95 4.7 0 13.35-11.07 17.94-22.97l1.35-3.5-0.35 5c-0.65 9.22-6.49 18.33-14.11 22.03-2.02 0.97-3.14 1.95-2.5 2.17 1.48 0.5 5.59-2.09 10.53-6.65l3.87-3.57-2.48 3.49c-2.35 3.32-10.84 9.99-12.7 9.99-0.48 0-0.87-0.66-0.87-1.47 0-2.68-2.7-0.47-3.33 2.73-1.04 5.3-12.35 14.72-17.68 14.72-0.82 0-1.5-0.19-1.5-0.42zm-6.85-2.59c0-0.41 1.36-1.32 3.03-2.02 6.82-2.89 14.51-8.87 16.5-12.85 1.1-2.21 2-4.7 2-5.55 0-1.03 0.94-1.54 2.82-1.54 5.15 0 12.29-10.03 14.76-20.72 1.61-6.97 2.97-7.56 2.97-1.3 0 9.63-6.19 19.87-14.18 23.47-4.23 1.91-5.31 2.91-5.85 5.39-1.15 5.36-11.34 13.87-18.13 15.13-2.15 0.41-3.92 0.4-3.92-0.01zm-6.68-3.69c0.64-0.78 2.33-2.04 3.76-2.79 7.21-3.81 15.63-13.41 15.64-17.84 0-1.44 0.55-1.76 2.39-1.4 1.83 0.36 3.31-0.49 6.33-3.63 3.22-3.35 4.58-6.1 7.48-15.08 1.95-6.04 3.85-11.32 4.23-11.72 0.38-0.41 0.63 3.43 0.55 8.53-0.1 6.46-0.65 10.37-1.83 12.9-2.03 4.36-7.92 10.77-9.9 10.77-0.78 0-1.42 0.42-1.42 0.93s-1.2 1.07-2.68 1.25c-1.68 0.19-2.81 1-3.02 2.16-0.38 2-1.7 3.85-7.13 9.99-2.74 3.11-4.87 4.37-9.54 5.68-4.93 1.38-5.81 1.42-4.86 0.25zm-26.41-4.21c0.65-1.06 2.84-2.87 4.86-4.03 4.75-2.73 12.09-11.3 14.26-16.67 1.29-3.16 2.37-4.32 4.41-4.74 2.02-0.41 3.21-1.65 4.62-4.82 2.37-5.28 5.74-17.02 6.31-21.9 0.47-4.1 3.28-9.11 4.63-8.26 0.49 0.31 0.63 0.98 0.32 1.49s-0.08 0.93 0.51 0.93c0.77 0 0.76 0.59-0.02 2.09-0.83 1.57-0.79 2.85 0.15 5.15 1.37 3.4 1.92 16.57 0.71 17.33-0.42 0.27-1.48 2.02-2.35 3.9-0.88 1.88-2.41 3.68-3.4 4-1 0.33-2.09 1.48-2.43 2.58-0.42 1.34-1.18 1.8-2.36 1.42-2.96-0.95-4.89 0.52-6.1 4.66-1.49 5.06-9.14 13.45-13.04 14.29-1.62 0.35-3.91 0.83-5.11 1.08-1.58 0.33-1.99 0.92-1.53 2.18 0.55 1.49 0.42 1.55-0.92 0.45-1.05-0.88-1.77-0.96-2.2-0.25-0.35 0.57-1.05 1.04-1.56 1.04s-0.4-0.86 0.24-1.92zm18.4-0.92c10.03-7.79 15.67-15.03 15.67-20.09 0-1.12 0.61-2.03 1.35-2.03 3.98 0 10.56-10.82 14.45-23.74 2.46-8.15 2.52-8.27 4.19-7.62 1.1 0.44 1.08 1.03-0.13 3.51-1.18 2.41-1.24 3.53-0.3 5.85 1.34 3.29 0.1 11.03-2.72 17.08-1.94 4.14-8.02 9.91-10.45 9.91-1.51 0-2.5 1.7-2.62 4.49-0.02 0.55-0.34 1.23-0.71 1.5-0.36 0.28-2.13 2.42-3.92 4.77-3.77 4.94-7.09 6.93-13.58 8.15l-4.64 0.87 3.41-2.65zm42.12 0.85c0-0.83 0.43-2.18 0.95-3 0.84-1.33 0.95-1.33 0.95 0 0 0.82-0.43 2.17-0.95 3-0.84 1.33-0.95 1.33-0.95 0zm-307.29-1c-0.81-0.54-2.47-0.98-3.7-0.99-3.94-0.02-11.85-4.87-14.84-9.09-1.58-2.22-3.78-6.82-4.9-10.22-1.84-5.62-2.39-6.33-6.17-7.95-2.28-0.98-4.37-1.79-4.64-1.8-1.33-0.05-6.32-5.98-8.87-10.52-3.18-5.68-3.28-6.15-1.92-9.78 1.27-3.42 3.39-2.43 4.75 2.23 0.6 2.04 3.15 6.07 5.66 8.97 5.74 6.61 11.91 10.43 16.16 10 3.57-0.36 4.87-2.47 2.16-3.49-3-1.13-11.91-9.31-14.13-12.98-1.6-2.64-1.97-4.49-1.6-7.86 0.34-3.09 0.16-4.22-0.62-3.78-0.73 0.42-0.72 0.21 0.05-0.64 0.63-0.7 0.91-1.89 0.63-2.65-0.29-0.75-0.3-1.37-0.02-1.37 0.86 0 4.94 7.33 6.38 11.48 2.87 8.24 12.38 16.48 19.03 16.48h3.87l-2.28 1.89c-1.97 1.62-2.13 2.22-1.18 4.25 0.61 1.29 2.09 4.52 3.29 7.18 2.03 4.51 8.37 10.6 11.11 10.68 0.59 0.02 2.33 1.16 3.86 2.53 2.29 2.05 2.57 2.76 1.58 3.98-0.81 1-1.57 1.16-2.36 0.49-0.63-0.54-3.41-1.48-6.17-2.08-6.19-1.35-12.86-7.01-14.8-12.56-0.75-2.13-1.81-5-2.37-6.37-0.55-1.38-1.04-2.84-1.09-3.25-0.04-0.41-0.41-0.75-0.81-0.75-0.41 0-1.07 0.01-1.47 0.02s-1.31 0.39-2.02 0.85c-1.06 0.68-0.99 1.82 0.38 6.23 2.11 6.78 5.32 10.36 12.16 13.54 2.96 1.38 6.15 3.21 7.09 4.07 3.26 2.98 1.44 5.66-2.2 3.26zm230.93-0.64c-0.01-0.47 3.46-4.23 7.71-8.35 8.24-8 11.86-13.1 11.86-16.73 0.01-1.7 0.57-2.25 2.33-2.25 1.28 0 2.85-0.64 3.49-1.42 1.36-1.68 5.94-24.35 5.27-26.12-0.25-0.67 0.02-1.51 0.59-1.88 0.58-0.36 1.05-1.73 1.05-3.03 0-1.31 0.47-2.68 1.04-3.04 1.57-0.99 3.91 2.72 3.34 5.29-0.28 1.24 0.2 3.65 1.06 5.35 2.57 5.08 1.05 19.62-2.62 24.97-0.98 1.43-1.5 2.89-1.16 3.24s-0.66 0.64-2.23 0.65c-3.88 0.02-4.96 0.9-6.82 5.52-0.87 2.17-3.83 6.3-6.57 9.16-4.11 4.3-5.78 5.33-9.46 5.89-2.46 0.38-5.46 1.34-6.67 2.15s-2.21 1.08-2.21 0.6zm-14.92-4.14c-2.71-0.58-2.07-1.74 3.77-6.84 7.15-6.23 14.44-15.88 13.82-18.3-0.32-1.24 0.28-2.18 1.86-2.91 2.18-1.02 2.33-1.62 2.33-9.29 0-12.43 2.78-25.8 5.37-25.8 0.67 0 1.48 1.63 1.8 3.62 0.31 1.99 1.3 4.45 2.2 5.46 1.95 2.2 2.77 18.12 1.28 24.87-0.58 2.65-0.58 4.65 0 5.37 0.67 0.82-0.45 1.19-4.02 1.35-5.64 0.25-5.5 0.17-5.94 3.1-0.18 1.21-0.85 2.74-1.49 3.39s-1.16 1.61-1.16 2.14c0 1.8-5 7.64-7.83 9.13-1.56 0.82-3.93 1.5-5.28 1.5-1.34 0-3.01 0.8-3.71 1.78-0.71 0.99-2.05 1.63-3 1.43zm-17.51-2.15l-2.59-0.56 2.64-5.64c1.45-3.09 4.04-7.26 5.76-9.26s4.03-5.43 5.12-7.62c2.4-4.81 1.88-5.19-6.48-4.75-4.86 0.25-5.81 0.61-6.09 2.3-1.06 6.22-8.74 17.48-11.92 17.48-0.46 0-0.98 0.97-1.15 2.15-0.31 2.15-2.76 3.16-5.27 2.18-2.72-1.07-2.54-4.24 0.49-8.74 1.65-2.44 3-4.92 3-5.51s0.4-1.07 0.89-1.07c1.53 0 6.17-9.07 5.65-11.08-0.36-1.4 0.14-2.07 1.87-2.51 2.77-0.71 2.71-0.2 0.85-8.27-1.64-7.1-1.78-25.81-0.21-27.83 1.52-1.94 3.48-1.47 4.16 1 0.71 2.61 1.22 3.88 5.26 13.02 2.98 6.76 5.43 17.03 5.15 21.63-0.18 3.1 0.84 3.7 5.53 3.25l3.8-0.37 0.04-15.24c0.03-12.97 0.3-15.65 1.81-18 1.66-2.58 1.85-2.64 3.05-0.96 0.71 0.99 1.29 2.58 1.29 3.53s1.18 3.16 2.62 4.91c1.91 2.31 2.74 4.61 3.05 8.48 0.33 4 0.77 5.19 1.79 4.79 0.74-0.29 1.35-0.02 1.35 0.6 0 0.63-0.63 1.39-1.4 1.69-1 0.39-1.38 2.29-1.35 6.85 0.03 5.44 0.32 6.46 2.12 7.35 1.69 0.83 0.92 1.05-4.02 1.1-6.22 0.07-6.57 0.32-6.15 4.41 0.11 1.02-0.72 2.72-1.83 3.78-1.12 1.06-2.68 3.2-3.47 4.77-1.74 3.42-6.95 8.08-9.04 8.08-1.05 0-1.35 0.64-0.97 2.1 0.29 1.15 0.27 1.83-0.04 1.5-0.32-0.32-1.06-0.22-1.65 0.22-0.59 0.45-2.24 0.56-3.66 0.24zm-181.63-4.82c-6.16-3.3-7.47-4.56-9.54-9.26-0.97-2.18-2.13-3.96-2.58-3.96-0.46 0-0.83-0.83-0.83-1.85 0-3.82-2.14-8.28-3.68-7.68-1.21 0.48-1.27 0.31-0.3-0.88 0.99-1.21 0.48-1.83-3.05-3.65-11.74-6.09-18.22-16.8-14.47-23.96 0.82-1.56 0.69-1.93-0.68-1.93-1.3 0-1.43-0.28-0.56-1.17 1.44-1.46 4.74 1.87 7.56 7.66 3.33 6.81 11.93 14.78 18.74 17.36 5.68 2.16 5.97 2.42 5.32 4.91-0.79 3 0.73 12.19 2.01 12.19 0.47 0 0.85 0.48 0.85 1.07s2.42 3.33 5.38 6.09 5.38 5.37 5.38 5.8c0 1.99-5.23 1.58-9.55-0.74zm18.07-0.68c-0.84-0.86-2.09-1.56-2.77-1.56-2.2 0-8.78-5.27-10.28-8.25-1.57-3.1-2.03-5.7-2.21-12.58-0.1-4.08-0.26-4.34-2.52-3.89-1.33 0.26-2.19 0.08-1.9-0.39 0.28-0.47 1.15-0.85 1.92-0.85 0.78 0 1.4-0.34 1.38-0.75-0.05-1.33-2.59-4.25-3.7-4.25-0.59 0-3.44-2.35-6.33-5.24-5.31-5.3-8.53-11.98-8.53-17.7 0-1.44-0.53-3.16-1.17-3.82-0.92-0.93-0.53-1.2 1.73-1.2 2.65 0 3.43 0.9 8.76 10.12 5.4 9.35 11.94 16.85 14.68 16.85 0.63 0 1.94 0.9 2.91 1.99 0.98 1.1 2.48 2.01 3.33 2.03 1.34 0.03 1.32 0.18-0.15 1.05-1.79 1.07-2.37 3.91-0.79 3.91 0.5 0 0.67 1.51 0.38 3.35-0.69 4.33 1.17 7.85 7.43 14.09 4.97 4.96 6.19 7.53 3.58 7.53-0.76 0-2.03 0.25-2.81 0.56s-2.11-0.14-2.94-1zm19.89-1.74c-1.33-0.5-2.65-1.23-2.94-1.63-0.28-0.39-1.84-1.15-3.45-1.69-3.84-1.29-8.21-9.99-9.01-17.96-0.48-4.67-0.96-5.87-2.57-6.3-1.93-0.51-1.93-0.54 0.15-1.33 1.18-0.44 2.12-1.15 2.11-1.58-0.02-0.43-2.61-2.66-5.76-4.94-8.87-6.44-10.65-9.4-11.44-19.11-0.56-6.85-0.44-8.19 0.77-8.19 1.78 0 4.95 3.46 7.04 7.68 4.64 9.38 11.37 16.91 19.02 21.3 2.25 1.29 4.09 2.6 4.09 2.92s-0.99 1.02-2.2 1.57c-1.94 0.86-2.16 1.58-1.85 5.98 0.42 5.99 2.87 11.2 7.48 15.91 5.12 5.23 4.27 9.54-1.44 7.37zm102.72 0.22c0-0.54-0.64-0.72-1.42-0.42-2.77 1.09-1.11-7.67 3.3-17.43 2.33-5.17 3.83-9.7 3.36-10.16-0.46-0.46-2.16-1.03-3.78-1.26-1.88-0.27-1.11-0.48 2.15-0.58 2.79-0.08 5.31-0.53 5.59-1 0.29-0.47-0.51-4.27-1.78-8.44-1.26-4.18-2.13-7.76-1.94-7.96 0.2-0.2-0.22-3.47-0.93-7.28-1.38-7.37-0.62-12.42 1.86-12.42 2.12 0 8.72 15.8 14.7 35.21 0.97 3.13 2.04 4.77 3.14 4.84 1.05 0.06 0.76 0.38-0.77 0.86-1.34 0.42-3.65 0.54-5.12 0.28-1.75-0.32-2.81-0.01-3.07 0.89-0.21 0.75-1.17 4.29-2.13 7.86-1.18 4.39-2.8 7.63-5.01 10.03-1.79 1.94-3.26 4.06-3.26 4.7 0 0.65-0.85 1.64-1.89 2.21-2.36 1.29-3 1.3-3 0.07zm-85.08-2.75c-0.77-0.31-3.33-2.46-5.69-4.77-5-4.89-6.56-9.98-5.55-18.17 0.58-4.74 0.45-5.31-1.18-5.37-1.59-0.05-1.56-0.17 0.28-0.93 2.68-1.1 3.86-3 1.87-3-0.84 0-1.53-0.45-1.53-1s-0.45-1-1.01-1c-1.12 0-6.66-6.1-8.5-9.37-1.09-1.94-6.15-16.78-6.15-18.05 0-0.3 0.34-0.47 0.74-0.38 0.4 0.08 1.51-0.19 2.46-0.61 2.1-0.94 4.2 0.69 6.31 4.87 0.85 1.69 4.15 7.11 7.35 12.06 6.24 9.65 12.7 15.92 15.62 15.14 0.98-0.26 1.53-0.07 1.24 0.41-0.3 0.49-1.95 1.26-3.67 1.72-2.77 0.72-3.17 1.27-3.45 4.71-0.41 5.03 1.49 11.96 4.59 16.8 1.88 2.94 2.22 4.22 1.43 5.5-1.12 1.82-2.98 2.34-5.16 1.44zm63.3-1.01c-3.13-1.32-3.66-1.99-3.66-4.65 0.01-4.07 1.59-9.85 4.5-16.37 1.29-2.9 2.34-5.72 2.34-6.27 0-2.14-5.04-3.01-10.29-1.76-5.12 1.21-5.16 1.25-5.86 5.76-2.96 18.87-3.41 20.81-4.95 21.41-0.74 0.29-1.58 0.13-1.88-0.36-0.29-0.49-1.54-0.7-2.76-0.47-1.92 0.35-2.4-0.2-3.34-3.82-1.18-4.49-0.38-9.95 2.41-16.55 0.77-1.83 1.15-4.36 0.84-5.63-0.37-1.51-0.08-2.5 0.83-2.86 1.07-0.42 0.39-2.12-2.92-7.27-6.35-9.86-9.63-23.44-6.2-25.65 2.26-1.46 4.41-0.27 5.18 2.86 0.57 2.29 4.59 8.73 6.5 10.43 0.32 0.27 0.87 1.17 1.23 1.99 1.48 3.38 4.96 8.39 9.47 13.64 2.48 2.88 4.18 3.85 7.71 4.41 5.55 0.87 6.36 0.45 4.6-2.37-1.7-2.74-4.61-11.51-4.69-14.18-0.04-1.1-0.7-4.36-1.47-7.26-1.18-4.4-1.19-5.74-0.11-8.24 2.29-5.28 3.5-4 9.21 9.76 0.97 2.33 2.05 4.24 2.4 4.24s1.17 1.91 1.84 4.25c0.66 2.33 2.66 6.49 4.45 9.24 5.04 7.73 5.17 9.08 1.05 10.47-3.53 1.19-4.43 2.5-2.24 3.28 0.9 0.32 0.77 0.96-0.49 2.41-0.94 1.08-1.71 2.46-1.71 3.06 0 2.23-3.82 10.07-5.84 11.99-1.15 1.09-2.16 2.95-2.25 4.11-0.08 1.17-0.17 2.08-0.19 2.03s-1.69-0.79-3.71-1.63zm190.09-2.27c0.57-1.1 1.26-1.99 1.53-1.99s0.02 0.89-0.56 1.99c-0.57 1.1-1.26 2-1.53 2s-0.02-0.9 0.56-2zm-232.56-0.55c-0.33-0.86-1.13-1.35-1.79-1.09s-1.9-0.37-2.76-1.39c-1.67-2-4.06-9.83-3.25-10.65 0.27-0.28 0.12-1.49-0.32-2.68-0.54-1.45-0.36-2.83 0.55-4.09 1.69-2.36 1.78-6.5 0.14-6.54-0.73-0.02-0.51-0.59 0.55-1.41 1.67-1.29 1.57-1.57-1.63-4.84-6.16-6.28-9.22-12.46-11.35-22.91-0.6-2.97-0.4-4.04 1.01-5.34 0.96-0.89 2.15-1.37 2.63-1.07 0.47 0.3 4.23 6.3 8.33 13.33 8.16 13.98 13.28 19.4 19.16 20.33l3.56 0.57-2.94 0.72c-7.41 1.82-7.72 2.04-8.55 6.13-0.93 4.59 1.78 19.46 3.56 19.52 1.83 0.05-2.6 2.96-4.52 2.96-0.99 0-2.06-0.7-2.38-1.55zm235.11-4.94c0.35-1.65 1.07-3.45 1.6-4 0.63-0.65 0.71-0.14 0.24 1.5-1.16 4.04-2.56 5.94-1.84 2.5zm-334.28-4.49c0-0.55 0.2-1 0.43-1 0.24 0 0.71 0.45 1.04 1 0.33 0.54 0.14 0.99-0.43 0.99s-1.04-0.45-1.04-0.99zm-39.91-25.57c-0.7-0.77-0.83-1.4-0.31-1.4 1.02 0 2.49 1.9 1.91 2.46-0.19 0.19-0.91-0.29-1.6-1.06zm207.17-179.3c-0.65-1.24-2.19-3.36-3.42-4.72-1.24-1.36-2.53-3.62-2.88-5.02-0.34-1.39-1.8-4.35-3.24-6.57s-3.24-5.83-3.99-8.03c-0.76-2.19-2.36-5.6-3.57-7.56-2.13-3.44-2.14-3.61-0.38-4.73 1-0.63 2.49-0.89 3.31-0.57 1.21 0.47 1.49-0.33 1.48-4.26-0.01-2.67 0.19-7 0.44-9.64 0.39-4.13 0.95-6.57 3.07-13.45 0.29-0.93 0.95-0.8 2.52 0.5 5.77 4.77 5.98 5.19 5.36 10.6-0.32 2.83-0.65 8.37-0.72 12.3-0.11 5.59-0.43 7.04-1.47 6.64-0.91-0.36-1.33 0.29-1.33 2.08 0 1.43 0.44 2.6 0.98 2.6 0.53 0 0.98 0.41 0.98 0.91s1.54 4.27 3.42 8.37c1.88 4.11 3.42 7.91 3.42 8.46s0.96 1.64 2.13 2.43c1.51 1.03 1.86 1.85 1.22 2.87-0.49 0.79-0.9 3-0.9 4.92 0 3.05-0.33 3.54-2.62 3.81-1.91 0.22-2.95-0.3-3.81-1.94zm-52.77-1.23c-3.37-1.51-4.15-2.4-7.07-8.13-2.82-5.52-6.13-16.45-7.14-23.61-0.48-3.35-1.24-4.92-2.76-5.67-1.91-0.94-1.78-1.05 1.31-1.12 4.77-0.12 5.82-1.07 6.25-5.67 0.57-6 5.36-14.8 9.7-17.79 5.72-3.95 6.95-3.52 6.19 2.14-0.34 2.59-1.43 6.3-2.41 8.24-0.99 1.95-2.41 6.42-3.17 9.93-0.96 4.51-1.88 6.54-3.09 6.86-2.15 0.58-2.16 0.56 0.34 8.3 4.19 12.98 6.37 24.46 5.03 26.5-0.54 0.81-1.4 0.81-3.18 0.02zm-11.15-27.33c-0.33-0.33-0.56 0.26-0.52 1.31 0.05 1.16 0.28 1.4 0.6 0.6 0.28-0.72 0.24-1.58-0.08-1.91zm5.87-23.97c-0.33-0.33-0.56 0.26-0.51 1.31 0.04 1.17 0.27 1.4 0.59 0.61 0.28-0.73 0.24-1.59-0.08-1.92zm4.3 1.23c0-0.83-0.17-1.5-0.38-1.5s-0.64 0.67-0.95 1.5c-0.31 0.82-0.14 1.5 0.38 1.5s0.95-0.68 0.95-1.5zm82.2 47.73c-2.34-1.79-4.63-5.24-7.22-10.87-2.09-4.54-5.51-10.36-7.59-12.93s-3.78-5.07-3.78-5.56-0.77-0.93-1.72-0.97c-1.11-0.05-0.81-0.42 0.88-1.05 2.15-0.81 2.6-1.59 2.63-4.67 0.01-2.03 0.12-7.54 0.22-12.24 0.11-4.7-0.07-9.42-0.4-10.48-0.78-2.55 0.96-5.51 2.14-3.65 0.45 0.71 2.1 1.64 3.67 2.06 4.84 1.31 5.69 4.64 4.39 17.27-0.62 6-0.88 11.32-0.58 11.81s0.05 1.2-0.55 1.57c-0.68 0.44 0.51 2.4 3.25 5.32 6.09 6.51 10.53 12.62 10.53 14.5 0 0.89 0.44 1.61 0.98 1.61 1.29 0 1.24 3.91-0.1 7.84-1.29 3.79-2.3 3.86-6.75 0.44zm-55.23 0.28c-2.12-0.67-4.32-2.03-4.89-3.03s-2.03-2.94-3.24-4.32-2.2-3.25-2.2-4.15c0-0.91-0.39-2.08-0.86-2.61-0.47-0.52-1.85-4.09-3.06-7.94-1.21-3.84-2.58-7.41-3.05-7.93-1.49-1.65-0.94-3.55 1.04-3.55 2.54 0 3.01-1 3.13-6.68 0.14-6.95 2.47-13.85 5.32-15.75 2.34-1.56 8.62-1.33 9.64 0.35 0.23 0.37-0.68 4.92-2.02 10.13-1.33 5.2-2.24 10.46-2.01 11.7 0.34 1.91-0.03 2.25-2.42 2.25-2.58 0-2.76 0.23-2.16 2.74 0.36 1.51 1.25 3.64 1.97 4.72 0.73 1.08 1.33 2.52 1.33 3.2s1.32 3.53 2.95 6.34c1.62 2.82 3.08 5.87 3.23 6.79s0.8 2.66 1.45 3.86c1.31 2.44 1.56 5.36 0.44 5.2-0.4-0.06-2.47-0.65-4.59-1.32zm80.45-2.09c-3.19-3.03-9.91-13.69-11.77-18.67-0.35-0.94-2.53-3.1-4.84-4.81-2.32-1.71-4.56-3.75-4.99-4.54-0.43-0.78-1.75-1.46-2.94-1.5-1.37-0.05-0.74-0.51 1.76-1.28l3.91-1.2-0.33-7.46c-0.19-4.21-1.19-9.85-2.31-12.95-1.09-3.02-2.2-6.73-2.47-8.24-0.41-2.32-0.15-2.75 1.69-2.75 1.5 0 2 0.45 1.62 1.47-0.43 1.13 0.05 1.34 2.1 0.92 4.05-0.83 6.61 2.71 8.4 11.6 1.12 5.6 1.28 9.1 0.63 13.81l-0.88 6.31 6.93 6.67c9.28 8.93 12.83 17.93 9.55 24.2-1.35 2.58-1.81 2.46-6.06-1.58zm-136.53-0.15c-0.4-1-1.94-3.63-3.41-5.84-4.48-6.75-8.23-19.5-8.9-30.29-0.21-3.32-0.18-3.35 3.44-2.85 4.07 0.56 5.18-0.3 6.22-4.8 0.8-3.43 5.99-14.12 8.12-16.72 0.79-0.96 2.39-1.75 3.55-1.75s3.05-0.89 4.2-1.99c1.22-1.16 2.34-1.57 2.69-1 0.33 0.55 0.13 0.99-0.45 0.99-0.7 0-0.66 0.63 0.12 1.9 0.98 1.6 0.53 2.96-2.86 8.74-5.25 8.95-7.94 17.17-6.01 18.41 0.91 0.59-0.04 0.89-2.88 0.9l-4.25 0.01 0.63 4.25c0.34 2.33 1.52 8.75 2.61 14.26 1.43 7.18 1.75 10.99 1.13 13.42-0.99 3.9-2.88 5.03-3.95 2.36zm163.87-5.27c-2-1.8-4.37-4.83-5.26-6.74-3.45-7.43-17.34-21.16-21.59-21.36-1.13-0.05-0.8-0.43 0.95-1.08 2.76-1.03 3.42-2.69 1.76-4.39-0.52-0.53-1.2-3.87-1.52-7.44-0.37-4.21-1.55-8.49-3.38-12.2-1.6-3.25-2.58-6.58-2.29-7.73 0.47-1.84 0.74-1.89 3.1-0.64 1.42 0.76 3.73 1.84 5.13 2.4 4.13 1.66 8.57 10.82 9.49 19.59 0.43 4.08 0.45 8.33 0.05 9.43-0.6 1.65 0.01 2.47 3.37 4.51 11.48 6.95 18.1 18.22 15.11 25.7l-1.29 3.21-3.63-3.26zm-188.58-1.17c0-0.62-0.86-0.88-1.96-0.59-1.27 0.34-1.95 0.03-1.95-0.88 0-0.78-0.34-1.41-0.75-1.41-1.31 0-4.04-7.63-5.08-14.16-1.14-7.18-1.3-14.13-0.42-18.62 0.52-2.66 1.07-3.11 4.1-3.37 3.21-0.28 3.68-0.73 5.52-5.39 2.81-7.11 6.55-11.73 13.25-16.38 5.38-3.72 10.54-5.8 6.32-2.53-1.07 0.82-1.37 1.48-0.68 1.5 2.01 0.05 1.42 1.6-2.36 6.18-3.58 4.34-10.12 17.37-10.12 20.18 0 0.82-0.97 1.64-2.16 1.81-3.16 0.47-3.84 5.04-3.12 21.04 0.33 7.56 0.34 13.74 0.01 13.74s-0.6-0.51-0.6-1.12zm-3.26-17.29c-1.4-3.02-1.93-2.63-1.08 0.8 0.35 1.44 0.99 2.39 1.42 2.12s0.28-1.58-0.34-2.92zm-23.85 10.16c-3.68-7.2-5.01-10.92-6.02-16.8-1.57-9.22-1.39-14.83 0.6-18.9 1.51-3.08 2.15-3.49 5.46-3.49 3.64 0 3.81-0.16 6.05-5.76 1.27-3.17 3.33-7.08 4.57-8.69 2.38-3.07 9.73-6.68 11.43-5.61 0.54 0.34 1.89-0.36 3-1.57 3.89-4.27 3.05-0.99-1.1 4.29-7.22 9.16-9.19 12.19-11.13 17.05-1.46 3.63-2.44 4.76-4.34 4.99-3.75 0.45-5.68 7.6-5.79 21.45-0.05 6.14-0.43 12.09-0.84 13.22-0.74 2.03-0.76 2.03-1.89-0.18zm-2.24-17.61c0-0.49-0.73-1.18-1.61-1.52-1.34-0.53-1.4-0.38-0.37 0.89 1.41 1.73 1.98 1.91 1.98 0.63zm239.49 17.88c-1.37-1.1-3.85-4.44-5.5-7.43-4.42-7.99-8.37-12.12-14.71-15.35l-5.65-2.88 1.8-2.26c1.47-1.86 1.68-3.29 1.17-7.9-0.71-6.41-3.57-12.09-8.62-17.08-3.81-3.77-4.21-5.17-2-7.04 1.2-1.01 1.47-0.95 1.47 0.38 0 0.89 0.46 1.62 1.03 1.62s0.8 0.39 0.51 0.87 1.27 0.82 3.46 0.77c3.3-0.09 4.46 0.43 6.72 3.01 3.75 4.28 6.87 13.3 7.06 20.4 0.11 3.96 0.56 5.91 1.38 5.91 1.13 0 2.8 1.41 10.84 9.14 1.71 1.65 3.98 4.78 5.03 6.94 1.64 3.39 1.75 4.49 0.78 7.85-1.5 5.18-1.84 5.4-4.77 3.05zm18.65-7.75c-0.81-0.96-2.47-3.91-3.69-6.56-2.07-4.47-5.03-7.41-16.55-16.41-1.58-1.24-3.67-2.25-4.65-2.25-1.55 0-1.49-0.2 0.4-1.55 2.04-1.46 2.08-1.73 0.7-4.45-0.8-1.59-1.46-3.97-1.46-5.29 0-3.5-3.77-8.64-9.58-13.07-4.64-3.53-6.81-7.6-4.06-7.6 0.57 0 0.83 0.34 0.58 0.75s0.49 0.81 1.65 0.88c8.41 0.53 13.23 3.67 18.2 11.85 1.97 3.26 4.44 13.9 3.56 15.36-0.3 0.5 1.06 1.68 3.03 2.63 3.52 1.71 8.14 5.46 13.07 10.62 3.07 3.22 5.35 12.04 3.85 14.91-1.26 2.39-3.13 2.46-5.05 0.18zm-277.03-5.03c-5.57-6.28-6.06-21.98-0.9-29.1 1.81-2.49 1.84-2.81 0.36-3.83-1.2-0.82-0.62-0.84 2.24-0.08 4.41 1.18 5.71 0.12 7.36-5.98 2.14-7.9 9.21-14.48 15.74-14.65 2.18-0.06 4.61-0.88 5.77-1.95 1.11-1.03 2.02-1.4 2.02-0.84 0 0.57-3.42 4.57-7.59 8.9-5.63 5.84-8.09 9.25-9.54 13.24-1.51 4.14-2.59 5.6-4.74 6.37-1.93 0.69-3.33 2.32-4.6 5.33-2.19 5.23-4.02 14.99-3.71 19.79 0.29 4.35-0.36 5.11-2.41 2.8zm293.1-2.76c-1.23-0.88-3.47-4.37-5-7.77-2.93-6.51-5.29-9.18-10.88-12.26-1.88-1.04-4.47-2.68-5.74-3.63-1.28-0.95-2.82-1.43-3.43-1.06-0.64 0.4-0.58 0.02 0.14-0.89 0.88-1.11 1.05-3.29 0.58-7.43-0.63-5.55-0.99-6.2-6.86-12.08-3.4-3.42-7.21-6.48-8.45-6.8-3.14-0.81-4.75-3.61-3.02-5.26 1.11-1.06 1.34-0.85 1.34 1.19 0 2.37 0.18 2.44 5.15 1.92 4.76-0.5 5.5-0.28 9.54 2.86 2.41 1.88 5.32 5.13 6.47 7.23 1.98 3.58 3.82 12.09 3.41 15.68-0.13 1.09 2.01 2.74 6.44 5 3.65 1.85 7.22 4.05 7.93 4.87 2.58 3.01 6.99 13.36 6.13 14.42-0.47 0.58-1 2.08-1.19 3.34-0.32 2.16-0.45 2.19-2.56 0.67zm-312.64-7.14c-2.65-6.36-2.91-8.25-2.2-15.97 0.57-6.24 1.15-7.98 3.53-10.75 1.57-1.82 2.85-4.04 2.85-4.92 0-1.18 0.91-1.62 3.35-1.62 2.92 0 3.48-0.42 4.41-3.3 2.53-7.83 12.23-14.04 19.15-12.27 2.5 0.64 2.43 0.75-2.63 4.25-7.53 5.2-10.03 7.83-12.65 13.33-1.29 2.7-3 4.92-3.8 4.94-2.34 0.07-5.81 8.64-7.47 18.45-1.97 11.67-2.54 12.66-4.54 7.86zm4.18-11.85c0-0.24-0.44-0.44-0.98-0.44s-0.98 0.48-0.98 1.06 0.44 0.78 0.98 0.44 0.98-0.82 0.98-1.06zm17.61-29.46c0-0.58-0.44-0.78-0.98-0.44s-0.98 0.82-0.98 1.06 0.44 0.44 0.98 0.44 0.98-0.48 0.98-1.06zm303.92 37.93c-1.39-1.69-2.53-3.88-2.53-4.88 0-3.45-8.37-11.61-14.42-14.05-3.1-1.25-6.02-2.62-6.49-3.04s-1.57-0.49-2.45-0.16c-1.39 0.53-1.42 0.39-0.24-1.08 1.16-1.46 1.11-2.48-0.31-7.11-2.04-6.61-4.29-9.17-13.16-15.03-3.78-2.5-7.16-5.02-7.52-5.61-1.07-1.77 1.08-3.15 2.4-1.53 0.79 0.97 2.35 1.28 4.8 0.95 2.87-0.38 4.48 0.11 7.68 2.35 6.13 4.29 9.2 8.7 11.57 16.61l2.14 7.19 5.91 3c11.1 5.63 15.28 10.77 16.52 20.32 0.79 6.03-0.2 6.56-3.9 2.07zm-342.5-8.4c-3.43-7.38 0.17-19.96 7.24-25.3 1.63-1.23 2.96-2.94 2.96-3.81 0-0.93 0.56-1.36 1.35-1.04 1.66 0.64 3.55-1.14 3.55-3.36 0-2.24 7.93-10.64 11.38-12.04 3.81-1.55 7.17-1.97 10.39-1.3 3.55 0.74 3.4 1.86-0.49 3.49-7.98 3.35-13.85 8.76-16.94 15.63-1.33 2.97-2.5 4.23-3.92 4.24-1.95 0.01-7.27 5.25-9.33 9.2-0.56 1.05-1.77 5.55-2.71 10l-1.71 8.1-1.77-3.81zm352.2 0.73c-0.54-0.41-1.75-2.45-2.7-4.53-3.06-6.76-9.23-13.12-14.35-14.78-1.92-0.63-3.92-1.54-4.43-2.02-0.51-0.49-1.77-0.88-2.79-0.88-1.25 0-1.68-0.49-1.31-1.48 0.3-0.82-0.07-2.73-0.84-4.25-0.76-1.52-1.62-3.93-1.9-5.36-0.72-3.66-5.99-9.08-12.06-12.39-6.36-3.48-7.84-5.1-6.2-6.77 0.94-0.95 1.07-0.87 0.62 0.34-0.47 1.26 0.06 1.48 2.87 1.14 5.13-0.61 7.54 0.32 12.63 4.9 4.44 3.99 8.01 9.64 9.4 14.88l0.66 2.5 1.25-2.38c0.94-1.78 0.98-2.97 0.17-4.79-0.59-1.33-1.08-3.53-1.08-4.89 0-3.66-6.66-10.43-14.19-14.41-3.58-1.89-6.68-3.72-6.89-4.06-0.2-0.33 1.45-0.68 3.67-0.77 8.17-0.33 17.53 8.13 21.4 19.32 1.39 4.02 2.93 6.66 4.24 7.27 1.12 0.52 4.39 2 7.26 3.29 3.08 1.38 6.31 3.78 7.89 5.87 2.9 3.86 6.31 12.03 5.01 12.03-0.44 0-0.56 0.97-0.25 2.15 0.99 3.87-1.48 1.06-3.99-4.53-2.79-6.23-6.97-9.96-14.82-13.21-4.31-1.79-6.08-2.1-7.54-1.3-2.92 1.59-1.72 3.11 5.14 6.54 7.56 3.78 13.07 9.42 14.51 14.84 1.82 6.86 1.3 9.74-1.38 7.73zm-364.45-8.71c-2.98-7.67-0.16-19.26 6.4-26.24 4.84-5.16 4.88-5.24 2.85-5.24-4.26 0-16.15 17.06-16.15 23.17 0 1.05-0.44 1.64-0.98 1.3-1.44-0.91-1.19-6.38 0.57-12.55 1.92-6.7 6.11-11.41 12.88-14.53 2.83-1.29 5.14-2.86 5.14-3.48 0-2.36 7.21-11.01 11.1-13.34 4.61-2.75 9.32-3.86 11.23-2.66 0.89 0.57-0.3 1.61-3.95 3.43-5.56 2.78-13.49 9.15-13.49 10.85 0 0.56-0.93 2.34-2.06 3.97-2.18 3.13-1.97 4.05 1.03 4.52 1.29 0.2 2.59-1 4.29-3.94 4.94-8.54 11.85-13.12 18.88-12.53l3.79 0.31-5.41 2.72c-2.97 1.49-7.22 4.29-9.43 6.22-4.18 3.65-8.51 11.13-7.46 12.87 0.37 0.61-0.07 0.74-1.12 0.32-1.26-0.49-2.79 0.49-5.61 3.58-4.8 5.28-6.44 8.37-9.18 17.24l-2.16 6.99-1.16-2.98zm374.4-12.25c-0.75-1.51-1.63-3.92-1.97-5.35-1.07-4.56-8.47-10.53-14.69-11.85-3.02-0.64-5.96-0.87-6.52-0.51-0.68 0.42-0.82-0.25-0.39-1.97 0.42-1.7 0.13-3.22-0.81-4.33-0.8-0.94-1.75-2.98-2.11-4.53-0.84-3.61-7.78-10.5-13.7-13.61-6.02-3.16-6.41-4.04-1.81-4.04 4.53 0 11.63 4.25 14.88 8.92 2.78 3.98 3.98 3.09 1.67-1.22-2.15-4-8.7-9.05-13.85-10.69-4.22-1.34-6.09-2.62-5.18-3.55 1.1-1.12 8.33 1.56 12.45 4.61 2.29 1.69 4.36 2.87 4.61 2.62 0.87-0.89-8.01-7.79-13.81-10.73-5.41-2.74-5.62-2.96-2.48-2.62 1.89 0.2 4.27 0.74 5.3 1.19 1.46 0.64 1.7 0.51 1.07-0.6-0.48-0.84-0.45-1.08 0.08-0.58 0.49 0.46 0.89 1.19 0.89 1.63s2.31 3.12 5.12 5.95c2.82 2.83 5.02 5.61 4.9 6.17-0.13 0.56 1.47 1.63 3.56 2.38 2.08 0.75 4.29 1.87 4.89 2.5 0.82 0.85 0.41 0.87-1.65 0.07-1.52-0.58-3.44-1.06-4.28-1.06-2.75 0 0.45 2.73 3.99 3.41 1.78 0.34 4.77 2.07 6.63 3.85 1.87 1.78 2.69 2.69 1.84 2.04-1.59-1.23-10-3.47-10.62-2.84-0.72 0.74 1.89 4.53 3.12 4.53 4.11 0 12.4 6.33 15.03 11.48 1.25 2.46 0.75 2.17-2.78-1.68-3.25-3.52-5.57-5.03-9.44-6.13l-5.14-1.46v2.42c0 1.33 0.55 2.58 1.22 2.78 11.43 3.34 18.73 9.29 19.76 16.09 0.32 2.18 0.98 5.2 1.46 6.71s0.7 2.74 0.49 2.74c-0.2 0-0.98-1.23-1.73-2.74zm-22.99-32.44c-0.73-0.74-0.86-0.35-0.43 1.31 0.34 1.35 0.79 1.8 1.03 1.05 0.24-0.72-0.04-1.78-0.6-2.36zm-365.07 28.48c-0.15-4.94 3.61-13.96 7.58-18.2 2.13-2.28 5.62-4.56 8.64-5.64 3.94-1.42 5.17-2.38 5.58-4.37 1.53-7.27 8.55-13.72 15.87-14.58l4.8-0.56-6.13 3.31c-7.31 3.94-11.97 8.21-11.97 10.97 0 3.46-3.13 7.88-5.13 7.23-1.02-0.33-3.58 0.51-5.99 1.94-4.43 2.65-9.17 10.21-11.85 18.88-1.28 4.17-1.3 4.18-1.4 1.02zm-1.51-8.78c1.93-10.06 6.35-15.96 15.41-20.53 2.8-1.41 5.23-3.32 5.4-4.25 0.18-0.92-0.06-1.68-0.52-1.68-2.2 0-13.76 8.92-15.86 12.23-1.3 2.06-2.57 3.54-2.82 3.28s0.26-1.59 1.14-2.96 1.62-3.07 1.65-3.78c0.02-0.7 2.02-3.53 4.43-6.27 3.31-3.76 4.59-4.66 5.22-3.64 0.52 0.85 1.05 0.98 1.44 0.33 0.34-0.56 0.06-1.21-0.61-1.45-0.68-0.23 0.64-1.4 2.93-2.6 3.54-1.85 4.16-1.94 4.16-0.6 0 0.87-0.41 1.32-0.91 1.01-0.51-0.32-1.19-0.12-1.53 0.44-1.47 2.43 3.25 0.73 5.11-1.84 3.03-4.17 10.85-9.13 14.37-9.12 2.76 0.02 2.48 0.33-3.34 3.64-8.28 4.7-11.19 7.55-13.17 12.86-1.29 3.44-2.51 4.77-5.85 6.43-6.02 2.97-10.73 8.03-14.21 15.25-1.94 4.02-2.81 5.18-2.44 3.25zm91.44-4.49c1.92-1.26 3.21-1.26 2.45 0-0.33 0.55-1.35 0.99-2.26 0.98-1.43-0.01-1.45-0.15-0.19-0.98zm-66.56-33.46c5.49-7.93 13.11-13.59 18-13.39 1.75 0.07 1.66 0.21-0.54 0.89-1.44 0.45-3.63 1.53-4.87 2.41l-2.24 1.6 3.4 0.07 3.4 0.07-3.94 1.26c-4.2 1.34-8.27 3.69-12.18 7.03-2.33 1.98-2.37 1.99-1.03 0.06zm321.96-10.48c-1.88-1.06-3.07-1.94-2.64-1.96 1.04-0.05 6.55 2.88 6.55 3.48 0 0.65-0.05 0.63-3.91-1.52z"/>
      <path id="path3640" d="m156.68 350.56s0 61.43 166.43 79.29c166.42 17.86 192.32-68.57 175-86.07" filter="url(#filter3686)" stroke="#000" stroke-width="2" fill="none"/>
      <path id="path3690" d="m-516.07 923.79s42.26 45.14 169.64 38.22c76.26-4.17 154.47-25 181.79-42.15" transform="matrix(1 0 0 -1 668.82 1614.3)" filter="url(#filter7736)" stroke="#000" stroke-width="2" fill="none"/>
      <path id="path7740" d="m156.68 350.56s0 61.43 166.43 79.29c166.42 17.86 192.32-68.57 175-86.07" filter="url(#filter7750)" stroke="#000" stroke-width=".5" fill="none"/>
      <path id="path7754" d="m-516.07 923.79s42.26 45.14 169.64 38.22c76.26-4.17 154.47-25 181.79-42.15" transform="matrix(1 0 0 -1 668.82 1614.3)" filter="url(#filter7756)" stroke="#000" stroke-width=".5" fill="none"/>
    </g>
  </g>
  <metadata>
    <rdf:RDF>
      <cc:Work>
        <dc:format>image/svg+xml</dc:format>
        <dc:type rdf:resource="http://purl.org/dc/dcmitype/StillImage"/>
        <cc:license rdf:resource="http://creativecommons.org/licenses/publicdomain/"/>
        <dc:publisher>
          <cc:Agent rdf:about="http://openclipart.org/">
            <dc:title>Openclipart</dc:title>
          </cc:Agent>
        </dc:publisher>
        <dc:title>Baseball</dc:title>
        <dc:date>2009-04-22T17:55:19</dc:date>
        <dc:description>Simple svg of a baseball. There are still some rough edges but should get you going</dc:description>
        <dc:source>http://openclipart.org/detail/25258/baseball-by-vedub4us</dc:source>
        <dc:creator>
          <cc:Agent>
            <dc:title>vedub4us</dc:title>
          </cc:Agent>
        </dc:creator>
        <dc:subject>
          <rdf:Bag>
            <rdf:li>baseball</rdf:li>
            <rdf:li>cleanup</rdf:li>
            <rdf:li>clip art</rdf:li>
            <rdf:li>clipart</rdf:li>
            <rdf:li>how i did it</rdf:li>
            <rdf:li>image</rdf:li>
            <rdf:li>media</rdf:li>
            <rdf:li>png</rdf:li>
            <rdf:li>public domain</rdf:li>
            <rdf:li>sport</rdf:li>
            <rdf:li>svg</rdf:li>
          </rdf:Bag>
        </dc:subject>
      </cc:Work>
      <cc:License rdf:about="http://creativecommons.org/licenses/publicdomain/">
        <cc:permits rdf:resource="http://creativecommons.org/ns#Reproduction"/>
        <cc:permits rdf:resource="http://creativecommons.org/ns#Distribution"/>
        <cc:permits rdf:resource="http://creativecommons.org/ns#DerivativeWorks"/>
      </cc:License>
    </rdf:RDF>
  </metadata>
</svg>
